<mxfile host="app.diagrams.net" modified="2022-05-07T08:56:20.016Z" agent="5.0 (Macintosh; Intel Mac OS X 10_15_7) AppleWebKit/605.1.15 (KHTML, like Gecko) Version/14.1.2 Safari/605.1.15" etag="iXjaifXX6Mla82EjEDh5" version="18.0.1" type="github" pages="4">
  <diagram id="C5RBs43oDa-KdzZeNtuy" name="Components">
    <mxGraphModel dx="946" dy="542" grid="1" gridSize="10" guides="1" tooltips="1" connect="1" arrows="1" fold="1" page="1" pageScale="1" pageWidth="827" pageHeight="1169" math="0" shadow="0">
      <root>
        <mxCell id="WIyWlLk6GJQsqaUBKTNV-0" />
        <mxCell id="WIyWlLk6GJQsqaUBKTNV-1" parent="WIyWlLk6GJQsqaUBKTNV-0" />
        <mxCell id="0CERszH_amMAJKaDQLQU-71" value="" style="shape=folder;fontStyle=1;spacingTop=10;tabWidth=80;tabHeight=40;tabPosition=left;html=1;fillColor=none;dashed=1;" parent="WIyWlLk6GJQsqaUBKTNV-1" vertex="1">
          <mxGeometry x="440" y="610" width="260" height="110" as="geometry" />
        </mxCell>
        <mxCell id="0CERszH_amMAJKaDQLQU-66" value="" style="shape=folder;fontStyle=1;spacingTop=10;tabWidth=60;tabHeight=20;tabPosition=left;html=1;dashed=1;fillColor=none;" parent="WIyWlLk6GJQsqaUBKTNV-1" vertex="1">
          <mxGeometry x="276" y="225" width="230" height="190" as="geometry" />
        </mxCell>
        <mxCell id="0CERszH_amMAJKaDQLQU-28" value="" style="rounded=0;orthogonalLoop=1;jettySize=auto;html=1;endArrow=halfCircle;endFill=0;entryX=0.5;entryY=0.5;endSize=6;strokeWidth=1;sketch=0;exitX=0.098;exitY=0.497;exitDx=0;exitDy=0;exitPerimeter=0;" parent="WIyWlLk6GJQsqaUBKTNV-1" source="0CERszH_amMAJKaDQLQU-23" target="0CERszH_amMAJKaDQLQU-29" edge="1">
          <mxGeometry relative="1" as="geometry">
            <mxPoint x="476" y="330" as="sourcePoint" />
          </mxGeometry>
        </mxCell>
        <mxCell id="0CERszH_amMAJKaDQLQU-65" value="" style="shape=folder;fontStyle=1;spacingTop=10;tabWidth=50;tabHeight=20;tabPosition=left;html=1;fillColor=none;dashed=1;" parent="WIyWlLk6GJQsqaUBKTNV-1" vertex="1">
          <mxGeometry x="137" y="485" width="560" height="100" as="geometry" />
        </mxCell>
        <mxCell id="0CERszH_amMAJKaDQLQU-24" value="Visualizer" style="shape=module;align=left;spacingLeft=20;align=center;verticalAlign=top;" parent="WIyWlLk6GJQsqaUBKTNV-1" vertex="1">
          <mxGeometry x="176" y="519" width="100" height="50" as="geometry" />
        </mxCell>
        <mxCell id="0CERszH_amMAJKaDQLQU-39" style="edgeStyle=orthogonalEdgeStyle;rounded=0;orthogonalLoop=1;jettySize=auto;html=1;exitX=0.5;exitY=0;exitDx=0;exitDy=0;endArrow=none;endFill=0;" parent="WIyWlLk6GJQsqaUBKTNV-1" source="0CERszH_amMAJKaDQLQU-25" target="0CERszH_amMAJKaDQLQU-37" edge="1">
          <mxGeometry relative="1" as="geometry">
            <Array as="points">
              <mxPoint x="516" y="485" />
              <mxPoint x="446" y="485" />
            </Array>
          </mxGeometry>
        </mxCell>
        <mxCell id="0CERszH_amMAJKaDQLQU-69" style="edgeStyle=orthogonalEdgeStyle;rounded=0;orthogonalLoop=1;jettySize=auto;html=1;exitX=0.75;exitY=1;exitDx=0;exitDy=0;entryX=0.75;entryY=0;entryDx=0;entryDy=0;endArrow=none;endFill=0;" parent="WIyWlLk6GJQsqaUBKTNV-1" source="0CERszH_amMAJKaDQLQU-25" target="0CERszH_amMAJKaDQLQU-67" edge="1">
          <mxGeometry relative="1" as="geometry" />
        </mxCell>
        <mxCell id="0CERszH_amMAJKaDQLQU-25" value="Matcher" style="shape=module;align=left;spacingLeft=20;align=center;verticalAlign=top;" parent="WIyWlLk6GJQsqaUBKTNV-1" vertex="1">
          <mxGeometry x="466" y="519" width="100" height="50" as="geometry" />
        </mxCell>
        <mxCell id="0CERszH_amMAJKaDQLQU-70" style="edgeStyle=orthogonalEdgeStyle;rounded=0;orthogonalLoop=1;jettySize=auto;html=1;exitX=0.75;exitY=1;exitDx=0;exitDy=0;entryX=0.75;entryY=0;entryDx=0;entryDy=0;endArrow=none;endFill=0;" parent="WIyWlLk6GJQsqaUBKTNV-1" source="0CERszH_amMAJKaDQLQU-26" target="0CERszH_amMAJKaDQLQU-68" edge="1">
          <mxGeometry relative="1" as="geometry" />
        </mxCell>
        <mxCell id="0CERszH_amMAJKaDQLQU-26" value="Detector" style="shape=module;align=left;spacingLeft=20;align=center;verticalAlign=top;" parent="WIyWlLk6GJQsqaUBKTNV-1" vertex="1">
          <mxGeometry x="586" y="519" width="100" height="50" as="geometry" />
        </mxCell>
        <mxCell id="0CERszH_amMAJKaDQLQU-27" value="" style="rounded=0;orthogonalLoop=1;jettySize=auto;html=1;endArrow=none;endFill=0;sketch=0;targetPerimeterSpacing=0;exitX=1;exitY=0.5;exitDx=0;exitDy=0;startArrow=none;" parent="WIyWlLk6GJQsqaUBKTNV-1" source="0CERszH_amMAJKaDQLQU-29" edge="1">
          <mxGeometry relative="1" as="geometry">
            <mxPoint x="436" y="330" as="sourcePoint" />
            <mxPoint x="356" y="290" as="targetPoint" />
          </mxGeometry>
        </mxCell>
        <mxCell id="0CERszH_amMAJKaDQLQU-29" value="" style="ellipse;whiteSpace=wrap;html=1;align=center;aspect=fixed;resizable=0;points=[];outlineConnect=0;sketch=0;" parent="WIyWlLk6GJQsqaUBKTNV-1" vertex="1">
          <mxGeometry x="246" y="285" width="10" height="10" as="geometry" />
        </mxCell>
        <mxCell id="0CERszH_amMAJKaDQLQU-31" value="" style="rounded=0;orthogonalLoop=1;jettySize=auto;html=1;endArrow=none;endFill=0;sketch=0;sourcePerimeterSpacing=0;exitX=0.25;exitY=0;exitDx=0;exitDy=0;" parent="WIyWlLk6GJQsqaUBKTNV-1" source="0CERszH_amMAJKaDQLQU-24" target="0CERszH_amMAJKaDQLQU-29" edge="1">
          <mxGeometry relative="1" as="geometry">
            <mxPoint x="296" y="290" as="sourcePoint" />
            <mxPoint x="356" y="290" as="targetPoint" />
            <Array as="points">
              <mxPoint x="201" y="290" />
            </Array>
          </mxGeometry>
        </mxCell>
        <mxCell id="0CERszH_amMAJKaDQLQU-34" value="Action" style="shape=module;align=left;spacingLeft=20;align=center;verticalAlign=top;" parent="WIyWlLk6GJQsqaUBKTNV-1" vertex="1">
          <mxGeometry x="396" y="345" width="100" height="50" as="geometry" />
        </mxCell>
        <mxCell id="0CERszH_amMAJKaDQLQU-35" value="" style="rounded=0;orthogonalLoop=1;jettySize=auto;html=1;endArrow=none;endFill=0;sketch=0;sourcePerimeterSpacing=0;targetPerimeterSpacing=0;exitX=0.75;exitY=0;exitDx=0;exitDy=0;" parent="WIyWlLk6GJQsqaUBKTNV-1" source="0CERszH_amMAJKaDQLQU-24" target="0CERszH_amMAJKaDQLQU-37" edge="1">
          <mxGeometry relative="1" as="geometry">
            <mxPoint x="446" y="460" as="sourcePoint" />
            <mxPoint x="446" y="485" as="targetPoint" />
            <Array as="points">
              <mxPoint x="251" y="485" />
              <mxPoint x="446" y="485" />
            </Array>
          </mxGeometry>
        </mxCell>
        <mxCell id="0CERszH_amMAJKaDQLQU-36" value="" style="rounded=0;orthogonalLoop=1;jettySize=auto;html=1;endArrow=halfCircle;endFill=0;entryX=0.5;entryY=0.5;endSize=6;strokeWidth=1;sketch=0;exitX=0.5;exitY=1;exitDx=0;exitDy=0;" parent="WIyWlLk6GJQsqaUBKTNV-1" source="0CERszH_amMAJKaDQLQU-34" target="0CERszH_amMAJKaDQLQU-37" edge="1">
          <mxGeometry relative="1" as="geometry">
            <mxPoint x="516" y="460" as="sourcePoint" />
          </mxGeometry>
        </mxCell>
        <mxCell id="0CERszH_amMAJKaDQLQU-37" value="" style="ellipse;whiteSpace=wrap;html=1;align=center;aspect=fixed;resizable=0;points=[];outlineConnect=0;sketch=0;" parent="WIyWlLk6GJQsqaUBKTNV-1" vertex="1">
          <mxGeometry x="441" y="435" width="10" height="10" as="geometry" />
        </mxCell>
        <mxCell id="0CERszH_amMAJKaDQLQU-41" value="Recording" style="shape=module;align=left;spacingLeft=20;align=center;verticalAlign=top;" parent="WIyWlLk6GJQsqaUBKTNV-1" vertex="1">
          <mxGeometry x="286" y="345" width="100" height="50" as="geometry" />
        </mxCell>
        <mxCell id="0CERszH_amMAJKaDQLQU-48" value="" style="rounded=0;orthogonalLoop=1;jettySize=auto;html=1;endArrow=none;endFill=0;sketch=0;sourcePerimeterSpacing=0;targetPerimeterSpacing=0;exitX=0.5;exitY=0;exitDx=0;exitDy=0;" parent="WIyWlLk6GJQsqaUBKTNV-1" source="0CERszH_amMAJKaDQLQU-26" target="0CERszH_amMAJKaDQLQU-50" edge="1">
          <mxGeometry relative="1" as="geometry">
            <mxPoint x="706" y="460" as="sourcePoint" />
            <Array as="points">
              <mxPoint x="636" y="290" />
            </Array>
          </mxGeometry>
        </mxCell>
        <mxCell id="0CERszH_amMAJKaDQLQU-49" value="" style="rounded=0;orthogonalLoop=1;jettySize=auto;html=1;endArrow=halfCircle;endFill=0;entryX=0.5;entryY=0.5;endSize=6;strokeWidth=1;sketch=0;exitX=1;exitY=0.5;exitDx=0;exitDy=0;" parent="WIyWlLk6GJQsqaUBKTNV-1" source="0CERszH_amMAJKaDQLQU-23" target="0CERszH_amMAJKaDQLQU-50" edge="1">
          <mxGeometry relative="1" as="geometry">
            <mxPoint x="746" y="460" as="sourcePoint" />
          </mxGeometry>
        </mxCell>
        <mxCell id="0CERszH_amMAJKaDQLQU-50" value="" style="ellipse;whiteSpace=wrap;html=1;align=center;aspect=fixed;resizable=0;points=[];outlineConnect=0;sketch=0;" parent="WIyWlLk6GJQsqaUBKTNV-1" vertex="1">
          <mxGeometry x="556" y="285" width="10" height="10" as="geometry" />
        </mxCell>
        <mxCell id="0CERszH_amMAJKaDQLQU-56" value="" style="rounded=0;orthogonalLoop=1;jettySize=auto;html=1;endArrow=none;endFill=0;sketch=0;sourcePerimeterSpacing=0;targetPerimeterSpacing=0;exitX=0.5;exitY=0;exitDx=0;exitDy=0;" parent="WIyWlLk6GJQsqaUBKTNV-1" source="0CERszH_amMAJKaDQLQU-24" target="0CERszH_amMAJKaDQLQU-58" edge="1">
          <mxGeometry relative="1" as="geometry">
            <mxPoint x="296" y="440" as="sourcePoint" />
            <Array as="points">
              <mxPoint x="226" y="465" />
              <mxPoint x="336" y="465" />
            </Array>
          </mxGeometry>
        </mxCell>
        <mxCell id="0CERszH_amMAJKaDQLQU-57" value="" style="rounded=0;orthogonalLoop=1;jettySize=auto;html=1;endArrow=halfCircle;endFill=0;entryX=0.5;entryY=0.5;endSize=6;strokeWidth=1;sketch=0;exitX=0.5;exitY=1;exitDx=0;exitDy=0;" parent="WIyWlLk6GJQsqaUBKTNV-1" source="0CERszH_amMAJKaDQLQU-41" target="0CERszH_amMAJKaDQLQU-58" edge="1">
          <mxGeometry relative="1" as="geometry">
            <mxPoint x="336" y="440" as="sourcePoint" />
          </mxGeometry>
        </mxCell>
        <mxCell id="0CERszH_amMAJKaDQLQU-58" value="" style="ellipse;whiteSpace=wrap;html=1;align=center;aspect=fixed;resizable=0;points=[];outlineConnect=0;sketch=0;fillColor=none;" parent="WIyWlLk6GJQsqaUBKTNV-1" vertex="1">
          <mxGeometry x="331" y="435" width="10" height="10" as="geometry" />
        </mxCell>
        <mxCell id="0CERszH_amMAJKaDQLQU-61" value="Camera" style="text;html=1;strokeColor=none;fillColor=none;align=center;verticalAlign=middle;whiteSpace=wrap;rounded=0;fontStyle=1" parent="WIyWlLk6GJQsqaUBKTNV-1" vertex="1">
          <mxGeometry x="276" y="220" width="60" height="30" as="geometry" />
        </mxCell>
        <mxCell id="0CERszH_amMAJKaDQLQU-63" value="Tools" style="text;html=1;strokeColor=none;fillColor=none;align=center;verticalAlign=middle;whiteSpace=wrap;rounded=0;fontStyle=1" parent="WIyWlLk6GJQsqaUBKTNV-1" vertex="1">
          <mxGeometry x="131" y="480" width="60" height="30" as="geometry" />
        </mxCell>
        <mxCell id="0CERszH_amMAJKaDQLQU-64" value="&lt;h1&gt;Component Diagram&lt;/h1&gt;&lt;p&gt;The Camera is able to take individual frames, however it can also keep track of an action (i.e. 2 frames of the same scene from different poses) or even record multiple frames as a video recording.&lt;/p&gt;&lt;p&gt;The Tools to manage the Semantic Sampling, namely the Visual Odometry are: Visualizer, Localizer, Matcher and Detector.&lt;/p&gt;" style="text;html=1;strokeColor=none;fillColor=none;spacing=5;spacingTop=-20;whiteSpace=wrap;overflow=hidden;rounded=0;" parent="WIyWlLk6GJQsqaUBKTNV-1" vertex="1">
          <mxGeometry x="40" y="40" width="485" height="150" as="geometry" />
        </mxCell>
        <mxCell id="0CERszH_amMAJKaDQLQU-23" value="Frame" style="shape=module;align=left;spacingLeft=20;align=center;verticalAlign=top;" parent="WIyWlLk6GJQsqaUBKTNV-1" vertex="1">
          <mxGeometry x="341" y="265" width="100" height="50" as="geometry" />
        </mxCell>
        <mxCell id="0CERszH_amMAJKaDQLQU-67" value="Matching&#xa;DNN" style="shape=module;align=left;spacingLeft=20;align=center;verticalAlign=top;" parent="WIyWlLk6GJQsqaUBKTNV-1" vertex="1">
          <mxGeometry x="466" y="660" width="100" height="50" as="geometry" />
        </mxCell>
        <mxCell id="0CERszH_amMAJKaDQLQU-68" value="Detecting&#xa;DNN" style="shape=module;align=left;spacingLeft=20;align=center;verticalAlign=top;" parent="WIyWlLk6GJQsqaUBKTNV-1" vertex="1">
          <mxGeometry x="586" y="660" width="100" height="50" as="geometry" />
        </mxCell>
        <mxCell id="0CERszH_amMAJKaDQLQU-72" value="Neural&lt;br&gt;Networks" style="text;html=1;strokeColor=none;fillColor=none;align=left;verticalAlign=middle;whiteSpace=wrap;rounded=0;fontStyle=1" parent="WIyWlLk6GJQsqaUBKTNV-1" vertex="1">
          <mxGeometry x="451" y="615" width="60" height="30" as="geometry" />
        </mxCell>
      </root>
    </mxGraphModel>
  </diagram>
  <diagram id="QlGGPzCKt4xssirYI50x" name="Classes">
    <mxGraphModel dx="946" dy="542" grid="1" gridSize="10" guides="1" tooltips="1" connect="1" arrows="1" fold="1" page="1" pageScale="1" pageWidth="827" pageHeight="1169" math="0" shadow="0">
      <root>
        <mxCell id="SgYKUem5aVHlXxRxo-qd-0" />
        <mxCell id="SgYKUem5aVHlXxRxo-qd-1" parent="SgYKUem5aVHlXxRxo-qd-0" />
        <mxCell id="bNGArXJucVCeb-CV9Sgj-11" value="" style="shape=folder;fontStyle=1;spacingTop=10;tabWidth=90;tabHeight=20;tabPosition=left;html=1;fillColor=none;" parent="SgYKUem5aVHlXxRxo-qd-1" vertex="1">
          <mxGeometry x="120" y="205" width="280" height="175" as="geometry" />
        </mxCell>
        <mxCell id="bNGArXJucVCeb-CV9Sgj-0" value="Frame" style="swimlane;fontStyle=1;align=center;verticalAlign=top;childLayout=stackLayout;horizontal=1;startSize=26;horizontalStack=0;resizeParent=1;resizeParentMax=0;resizeLast=0;collapsible=1;marginBottom=0;fillColor=none;" parent="SgYKUem5aVHlXxRxo-qd-1" vertex="1" collapsed="1">
          <mxGeometry x="228" y="257" width="80" height="26" as="geometry">
            <mxRectangle x="374" y="285" width="160" height="34" as="alternateBounds" />
          </mxGeometry>
        </mxCell>
        <mxCell id="bNGArXJucVCeb-CV9Sgj-2" value="" style="line;strokeWidth=1;fillColor=none;align=left;verticalAlign=middle;spacingTop=-1;spacingLeft=3;spacingRight=3;rotatable=0;labelPosition=right;points=[];portConstraint=eastwest;" parent="bNGArXJucVCeb-CV9Sgj-0" vertex="1">
          <mxGeometry y="26" width="160" height="8" as="geometry" />
        </mxCell>
        <mxCell id="bNGArXJucVCeb-CV9Sgj-9" style="edgeStyle=orthogonalEdgeStyle;rounded=0;orthogonalLoop=1;jettySize=auto;html=1;exitX=0.5;exitY=0;exitDx=0;exitDy=0;entryX=1;entryY=0.5;entryDx=0;entryDy=0;endArrow=open;endFill=0;" parent="SgYKUem5aVHlXxRxo-qd-1" source="bNGArXJucVCeb-CV9Sgj-4" target="bNGArXJucVCeb-CV9Sgj-0" edge="1">
          <mxGeometry relative="1" as="geometry" />
        </mxCell>
        <mxCell id="bNGArXJucVCeb-CV9Sgj-12" value="2" style="edgeLabel;html=1;align=center;verticalAlign=middle;resizable=0;points=[];" parent="bNGArXJucVCeb-CV9Sgj-9" vertex="1" connectable="0">
          <mxGeometry x="0.7649" y="1" relative="1" as="geometry">
            <mxPoint x="5" y="-14" as="offset" />
          </mxGeometry>
        </mxCell>
        <mxCell id="bNGArXJucVCeb-CV9Sgj-4" value="Action" style="swimlane;fontStyle=1;align=center;verticalAlign=top;childLayout=stackLayout;horizontal=1;startSize=26;horizontalStack=0;resizeParent=1;resizeParentMax=0;resizeLast=0;collapsible=1;marginBottom=0;fillColor=none;" parent="SgYKUem5aVHlXxRxo-qd-1" vertex="1" collapsed="1">
          <mxGeometry x="308" y="322" width="80" height="26" as="geometry">
            <mxRectangle x="200" y="220" width="160" height="34" as="alternateBounds" />
          </mxGeometry>
        </mxCell>
        <mxCell id="bNGArXJucVCeb-CV9Sgj-5" value="" style="line;strokeWidth=1;fillColor=none;align=left;verticalAlign=middle;spacingTop=-1;spacingLeft=3;spacingRight=3;rotatable=0;labelPosition=right;points=[];portConstraint=eastwest;" parent="bNGArXJucVCeb-CV9Sgj-4" vertex="1">
          <mxGeometry y="26" width="160" height="8" as="geometry" />
        </mxCell>
        <mxCell id="bNGArXJucVCeb-CV9Sgj-10" style="edgeStyle=orthogonalEdgeStyle;rounded=0;orthogonalLoop=1;jettySize=auto;html=1;exitX=1;exitY=0.5;exitDx=0;exitDy=0;entryX=0;entryY=0.5;entryDx=0;entryDy=0;endArrow=open;endFill=0;" parent="SgYKUem5aVHlXxRxo-qd-1" source="bNGArXJucVCeb-CV9Sgj-6" target="bNGArXJucVCeb-CV9Sgj-4" edge="1">
          <mxGeometry relative="1" as="geometry" />
        </mxCell>
        <mxCell id="rDG7UkoSE41G4T-J6Kr--0" value="2..N" style="edgeLabel;html=1;align=center;verticalAlign=middle;resizable=0;points=[];" parent="bNGArXJucVCeb-CV9Sgj-10" vertex="1" connectable="0">
          <mxGeometry x="0.7857" y="-2" relative="1" as="geometry">
            <mxPoint x="-16" y="-15" as="offset" />
          </mxGeometry>
        </mxCell>
        <mxCell id="bNGArXJucVCeb-CV9Sgj-6" value="Recording" style="swimlane;fontStyle=1;align=center;verticalAlign=top;childLayout=stackLayout;horizontal=1;startSize=26;horizontalStack=0;resizeParent=1;resizeParentMax=0;resizeLast=0;collapsible=1;marginBottom=0;fillColor=none;" parent="SgYKUem5aVHlXxRxo-qd-1" vertex="1" collapsed="1">
          <mxGeometry x="132" y="322" width="96" height="26" as="geometry">
            <mxRectangle x="200" y="220" width="160" height="34" as="alternateBounds" />
          </mxGeometry>
        </mxCell>
        <mxCell id="bNGArXJucVCeb-CV9Sgj-7" value="" style="line;strokeWidth=1;fillColor=none;align=left;verticalAlign=middle;spacingTop=-1;spacingLeft=3;spacingRight=3;rotatable=0;labelPosition=right;points=[];portConstraint=eastwest;" parent="bNGArXJucVCeb-CV9Sgj-6" vertex="1">
          <mxGeometry y="26" width="160" height="8" as="geometry" />
        </mxCell>
        <mxCell id="bNGArXJucVCeb-CV9Sgj-16" value="&lt;b&gt;Camera&lt;/b&gt;" style="text;html=1;strokeColor=none;fillColor=none;align=center;verticalAlign=middle;whiteSpace=wrap;rounded=0;" parent="SgYKUem5aVHlXxRxo-qd-1" vertex="1">
          <mxGeometry x="138" y="200" width="60" height="30" as="geometry" />
        </mxCell>
        <mxCell id="TWnZJ-1JmbXFBrBigYPw-4" style="edgeStyle=orthogonalEdgeStyle;rounded=0;orthogonalLoop=1;jettySize=auto;html=1;exitX=0;exitY=0;exitDx=190;exitDy=20;exitPerimeter=0;entryX=0.5;entryY=1;entryDx=0;entryDy=0;entryPerimeter=0;endArrow=open;endFill=0;dashed=1;dashPattern=1 2;" parent="SgYKUem5aVHlXxRxo-qd-1" source="bNGArXJucVCeb-CV9Sgj-17" target="bNGArXJucVCeb-CV9Sgj-11" edge="1">
          <mxGeometry relative="1" as="geometry">
            <Array as="points">
              <mxPoint x="260" y="454" />
            </Array>
          </mxGeometry>
        </mxCell>
        <mxCell id="bNGArXJucVCeb-CV9Sgj-17" value="" style="shape=folder;fontStyle=1;spacingTop=10;tabWidth=90;tabHeight=20;tabPosition=left;html=1;fillColor=none;" parent="SgYKUem5aVHlXxRxo-qd-1" vertex="1">
          <mxGeometry x="120" y="434" width="280" height="246" as="geometry" />
        </mxCell>
        <mxCell id="bNGArXJucVCeb-CV9Sgj-18" value="Visualizer" style="swimlane;fontStyle=1;align=center;verticalAlign=top;childLayout=stackLayout;horizontal=1;startSize=26;horizontalStack=0;resizeParent=1;resizeParentMax=0;resizeLast=0;collapsible=1;marginBottom=0;fillColor=none;" parent="SgYKUem5aVHlXxRxo-qd-1" vertex="1" collapsed="1">
          <mxGeometry x="140" y="507" width="100" height="26" as="geometry">
            <mxRectangle x="200" y="220" width="160" height="34" as="alternateBounds" />
          </mxGeometry>
        </mxCell>
        <mxCell id="bNGArXJucVCeb-CV9Sgj-19" value="" style="line;strokeWidth=1;fillColor=none;align=left;verticalAlign=middle;spacingTop=-1;spacingLeft=3;spacingRight=3;rotatable=0;labelPosition=right;points=[];portConstraint=eastwest;" parent="bNGArXJucVCeb-CV9Sgj-18" vertex="1">
          <mxGeometry y="26" width="160" height="8" as="geometry" />
        </mxCell>
        <mxCell id="bNGArXJucVCeb-CV9Sgj-34" style="edgeStyle=orthogonalEdgeStyle;rounded=0;orthogonalLoop=1;jettySize=auto;html=1;exitX=1;exitY=0.5;exitDx=0;exitDy=0;entryX=0;entryY=0.5;entryDx=0;entryDy=0;startArrow=none;startFill=0;endArrow=open;endFill=0;" parent="SgYKUem5aVHlXxRxo-qd-1" source="bNGArXJucVCeb-CV9Sgj-22" target="bNGArXJucVCeb-CV9Sgj-30" edge="1">
          <mxGeometry relative="1" as="geometry" />
        </mxCell>
        <mxCell id="bNGArXJucVCeb-CV9Sgj-22" value="Matcher" style="swimlane;fontStyle=1;align=center;verticalAlign=top;childLayout=stackLayout;horizontal=1;startSize=26;horizontalStack=0;resizeParent=1;resizeParentMax=0;resizeLast=0;collapsible=1;marginBottom=0;fillColor=none;" parent="SgYKUem5aVHlXxRxo-qd-1" vertex="1" collapsed="1">
          <mxGeometry x="274" y="574" width="100" height="26" as="geometry">
            <mxRectangle x="194" y="614" width="160" height="34" as="alternateBounds" />
          </mxGeometry>
        </mxCell>
        <mxCell id="bNGArXJucVCeb-CV9Sgj-23" value="" style="line;strokeWidth=1;fillColor=none;align=left;verticalAlign=middle;spacingTop=-1;spacingLeft=3;spacingRight=3;rotatable=0;labelPosition=right;points=[];portConstraint=eastwest;" parent="bNGArXJucVCeb-CV9Sgj-22" vertex="1">
          <mxGeometry y="26" width="160" height="8" as="geometry" />
        </mxCell>
        <mxCell id="bNGArXJucVCeb-CV9Sgj-35" style="edgeStyle=orthogonalEdgeStyle;rounded=0;orthogonalLoop=1;jettySize=auto;html=1;exitX=1;exitY=0.5;exitDx=0;exitDy=0;entryX=0;entryY=0.5;entryDx=0;entryDy=0;startArrow=none;startFill=0;endArrow=open;endFill=0;" parent="SgYKUem5aVHlXxRxo-qd-1" source="bNGArXJucVCeb-CV9Sgj-24" target="bNGArXJucVCeb-CV9Sgj-32" edge="1">
          <mxGeometry relative="1" as="geometry" />
        </mxCell>
        <mxCell id="bNGArXJucVCeb-CV9Sgj-24" value="Detector" style="swimlane;fontStyle=1;align=center;verticalAlign=top;childLayout=stackLayout;horizontal=1;startSize=26;horizontalStack=0;resizeParent=1;resizeParentMax=0;resizeLast=0;collapsible=1;marginBottom=0;fillColor=none;" parent="SgYKUem5aVHlXxRxo-qd-1" vertex="1" collapsed="1">
          <mxGeometry x="274" y="624" width="100" height="26" as="geometry">
            <mxRectangle x="200" y="220" width="160" height="34" as="alternateBounds" />
          </mxGeometry>
        </mxCell>
        <mxCell id="bNGArXJucVCeb-CV9Sgj-25" value="" style="line;strokeWidth=1;fillColor=none;align=left;verticalAlign=middle;spacingTop=-1;spacingLeft=3;spacingRight=3;rotatable=0;labelPosition=right;points=[];portConstraint=eastwest;" parent="bNGArXJucVCeb-CV9Sgj-24" vertex="1">
          <mxGeometry y="26" width="160" height="8" as="geometry" />
        </mxCell>
        <mxCell id="bNGArXJucVCeb-CV9Sgj-27" value="&lt;b&gt;Tools&lt;/b&gt;" style="text;html=1;strokeColor=none;fillColor=none;align=center;verticalAlign=middle;whiteSpace=wrap;rounded=0;" parent="SgYKUem5aVHlXxRxo-qd-1" vertex="1">
          <mxGeometry x="120" y="430" width="60" height="30" as="geometry" />
        </mxCell>
        <mxCell id="bNGArXJucVCeb-CV9Sgj-28" value="" style="shape=folder;fontStyle=1;spacingTop=10;tabWidth=80;tabHeight=40;tabPosition=left;html=1;fillColor=none;" parent="SgYKUem5aVHlXxRxo-qd-1" vertex="1">
          <mxGeometry x="444" y="500" width="280" height="180" as="geometry" />
        </mxCell>
        <mxCell id="bNGArXJucVCeb-CV9Sgj-29" value="&lt;b&gt;Neural&lt;br&gt;&lt;div&gt;&lt;b&gt;Networks&lt;/b&gt;&lt;/div&gt;&lt;/b&gt;" style="text;html=1;strokeColor=none;fillColor=none;align=left;verticalAlign=middle;whiteSpace=wrap;rounded=0;" parent="SgYKUem5aVHlXxRxo-qd-1" vertex="1">
          <mxGeometry x="454" y="505" width="60" height="30" as="geometry" />
        </mxCell>
        <mxCell id="bNGArXJucVCeb-CV9Sgj-30" value="MatchingDNN" style="swimlane;fontStyle=1;align=center;verticalAlign=top;childLayout=stackLayout;horizontal=1;startSize=26;horizontalStack=0;resizeParent=1;resizeParentMax=0;resizeLast=0;collapsible=1;marginBottom=0;fillColor=none;" parent="SgYKUem5aVHlXxRxo-qd-1" vertex="1" collapsed="1">
          <mxGeometry x="519" y="574" width="130" height="26" as="geometry">
            <mxRectangle x="200" y="220" width="160" height="34" as="alternateBounds" />
          </mxGeometry>
        </mxCell>
        <mxCell id="bNGArXJucVCeb-CV9Sgj-31" value="" style="line;strokeWidth=1;fillColor=none;align=left;verticalAlign=middle;spacingTop=-1;spacingLeft=3;spacingRight=3;rotatable=0;labelPosition=right;points=[];portConstraint=eastwest;" parent="bNGArXJucVCeb-CV9Sgj-30" vertex="1">
          <mxGeometry y="26" width="160" height="8" as="geometry" />
        </mxCell>
        <mxCell id="bNGArXJucVCeb-CV9Sgj-32" value="DetectingDNN" style="swimlane;fontStyle=1;align=center;verticalAlign=top;childLayout=stackLayout;horizontal=1;startSize=26;horizontalStack=0;resizeParent=1;resizeParentMax=0;resizeLast=0;collapsible=1;marginBottom=0;fillColor=none;" parent="SgYKUem5aVHlXxRxo-qd-1" vertex="1" collapsed="1">
          <mxGeometry x="519" y="624" width="130" height="26" as="geometry">
            <mxRectangle x="200" y="220" width="160" height="34" as="alternateBounds" />
          </mxGeometry>
        </mxCell>
        <mxCell id="bNGArXJucVCeb-CV9Sgj-33" value="" style="line;strokeWidth=1;fillColor=none;align=left;verticalAlign=middle;spacingTop=-1;spacingLeft=3;spacingRight=3;rotatable=0;labelPosition=right;points=[];portConstraint=eastwest;" parent="bNGArXJucVCeb-CV9Sgj-32" vertex="1">
          <mxGeometry y="26" width="160" height="8" as="geometry" />
        </mxCell>
        <mxCell id="HNlsBDx6Wpczn4e5byi6-0" value="&lt;h1&gt;Class Diagram&lt;/h1&gt;&lt;p&gt;The Camera is able to take individual frames, however it can also keep track of an action (i.e. 2 frames of the same scene from different poses) or even record multiple frames as a video recording.&lt;/p&gt;&lt;p&gt;The Tools to manage the Semantic Sampling, namely the Visual Odometry are: Visualizer, Localizer, Matcher and Detector.&lt;/p&gt;" style="text;html=1;strokeColor=none;fillColor=none;spacing=5;spacingTop=-20;whiteSpace=wrap;overflow=hidden;rounded=0;" parent="SgYKUem5aVHlXxRxo-qd-1" vertex="1">
          <mxGeometry x="40" y="40" width="485" height="150" as="geometry" />
        </mxCell>
        <mxCell id="TWnZJ-1JmbXFBrBigYPw-2" style="edgeStyle=orthogonalEdgeStyle;rounded=0;orthogonalLoop=1;jettySize=auto;html=1;exitX=0.5;exitY=0;exitDx=0;exitDy=0;entryX=0;entryY=0.5;entryDx=0;entryDy=0;endArrow=open;endFill=0;" parent="SgYKUem5aVHlXxRxo-qd-1" source="TWnZJ-1JmbXFBrBigYPw-0" target="bNGArXJucVCeb-CV9Sgj-22" edge="1">
          <mxGeometry relative="1" as="geometry">
            <Array as="points">
              <mxPoint x="190" y="587" />
            </Array>
          </mxGeometry>
        </mxCell>
        <mxCell id="TWnZJ-1JmbXFBrBigYPw-3" style="edgeStyle=orthogonalEdgeStyle;rounded=0;orthogonalLoop=1;jettySize=auto;html=1;exitX=0.5;exitY=1;exitDx=0;exitDy=0;entryX=0;entryY=0.5;entryDx=0;entryDy=0;endArrow=open;endFill=0;" parent="SgYKUem5aVHlXxRxo-qd-1" source="TWnZJ-1JmbXFBrBigYPw-0" target="bNGArXJucVCeb-CV9Sgj-24" edge="1">
          <mxGeometry relative="1" as="geometry">
            <Array as="points">
              <mxPoint x="190" y="637" />
            </Array>
          </mxGeometry>
        </mxCell>
        <mxCell id="TWnZJ-1JmbXFBrBigYPw-0" value="Merger" style="swimlane;fontStyle=1;align=center;verticalAlign=top;childLayout=stackLayout;horizontal=1;startSize=26;horizontalStack=0;resizeParent=1;resizeParentMax=0;resizeLast=0;collapsible=1;marginBottom=0;fillColor=none;" parent="SgYKUem5aVHlXxRxo-qd-1" vertex="1" collapsed="1">
          <mxGeometry x="140" y="598" width="100" height="26" as="geometry">
            <mxRectangle x="200" y="220" width="160" height="34" as="alternateBounds" />
          </mxGeometry>
        </mxCell>
        <mxCell id="TWnZJ-1JmbXFBrBigYPw-1" value="" style="line;strokeWidth=1;fillColor=none;align=left;verticalAlign=middle;spacingTop=-1;spacingLeft=3;spacingRight=3;rotatable=0;labelPosition=right;points=[];portConstraint=eastwest;" parent="TWnZJ-1JmbXFBrBigYPw-0" vertex="1">
          <mxGeometry y="26" width="160" height="8" as="geometry" />
        </mxCell>
      </root>
    </mxGraphModel>
  </diagram>
  <diagram id="A591M2Tv83JdeTOL5ZO7" name="DNN Pipeline">
    <mxGraphModel dx="946" dy="542" grid="1" gridSize="10" guides="1" tooltips="1" connect="1" arrows="1" fold="1" page="1" pageScale="1" pageWidth="827" pageHeight="1169" math="1" shadow="0">
      <root>
        <mxCell id="0" />
        <mxCell id="1" parent="0" />
        <mxCell id="M1dlDY-dCehF3eleabuK-1" value="" style="rounded=1;whiteSpace=wrap;html=1;fillColor=none;" vertex="1" parent="1">
          <mxGeometry x="10" y="40" width="810" height="280" as="geometry" />
        </mxCell>
        <mxCell id="M1dlDY-dCehF3eleabuK-80" value="" style="rounded=0;whiteSpace=wrap;html=1;fillColor=none;dashed=1;" vertex="1" parent="1">
          <mxGeometry x="46" y="80" width="54" height="230" as="geometry" />
        </mxCell>
        <mxCell id="M1dlDY-dCehF3eleabuK-77" style="edgeStyle=orthogonalEdgeStyle;rounded=1;orthogonalLoop=1;jettySize=auto;html=1;exitX=1;exitY=0.5;exitDx=0;exitDy=0;entryX=0;entryY=0.5;entryDx=0;entryDy=0;endArrow=blockThin;endFill=1;" edge="1" parent="1" source="M1dlDY-dCehF3eleabuK-7" target="M1dlDY-dCehF3eleabuK-8">
          <mxGeometry relative="1" as="geometry" />
        </mxCell>
        <mxCell id="M1dlDY-dCehF3eleabuK-7" value="DATA LOADER" style="text;html=1;strokeColor=none;fillColor=none;align=center;verticalAlign=middle;whiteSpace=wrap;rounded=0;fontStyle=1" vertex="1" parent="1">
          <mxGeometry x="43" y="44" width="60" height="30" as="geometry" />
        </mxCell>
        <mxCell id="M1dlDY-dCehF3eleabuK-47" style="edgeStyle=orthogonalEdgeStyle;rounded=1;orthogonalLoop=1;jettySize=auto;html=1;exitX=0.5;exitY=1;exitDx=0;exitDy=0;entryX=0.5;entryY=0;entryDx=0;entryDy=0;endArrow=blockThin;endFill=1;" edge="1" parent="1" source="M1dlDY-dCehF3eleabuK-8" target="M1dlDY-dCehF3eleabuK-44">
          <mxGeometry relative="1" as="geometry" />
        </mxCell>
        <mxCell id="M1dlDY-dCehF3eleabuK-48" style="edgeStyle=orthogonalEdgeStyle;rounded=1;orthogonalLoop=1;jettySize=auto;html=1;exitX=0.5;exitY=1;exitDx=0;exitDy=0;entryX=0.5;entryY=0;entryDx=0;entryDy=0;endArrow=blockThin;endFill=1;" edge="1" parent="1" source="M1dlDY-dCehF3eleabuK-8" target="M1dlDY-dCehF3eleabuK-45">
          <mxGeometry relative="1" as="geometry" />
        </mxCell>
        <mxCell id="M1dlDY-dCehF3eleabuK-8" value="POSE &lt;br&gt;PRE-PROCESSING" style="text;html=1;strokeColor=none;fillColor=none;align=center;verticalAlign=middle;whiteSpace=wrap;rounded=0;fontStyle=1" vertex="1" parent="1">
          <mxGeometry x="155" y="44" width="120" height="30" as="geometry" />
        </mxCell>
        <mxCell id="M1dlDY-dCehF3eleabuK-71" style="edgeStyle=orthogonalEdgeStyle;rounded=1;orthogonalLoop=1;jettySize=auto;html=1;exitX=0.5;exitY=0;exitDx=0;exitDy=0;entryX=0.5;entryY=1;entryDx=0;entryDy=0;endArrow=blockThin;endFill=1;" edge="1" parent="1" source="M1dlDY-dCehF3eleabuK-9" target="M1dlDY-dCehF3eleabuK-55">
          <mxGeometry relative="1" as="geometry" />
        </mxCell>
        <mxCell id="M1dlDY-dCehF3eleabuK-72" style="edgeStyle=orthogonalEdgeStyle;rounded=1;orthogonalLoop=1;jettySize=auto;html=1;exitX=0.5;exitY=0;exitDx=0;exitDy=0;entryX=0.5;entryY=1;entryDx=0;entryDy=0;endArrow=blockThin;endFill=1;" edge="1" parent="1" source="M1dlDY-dCehF3eleabuK-9" target="M1dlDY-dCehF3eleabuK-56">
          <mxGeometry relative="1" as="geometry" />
        </mxCell>
        <mxCell id="M1dlDY-dCehF3eleabuK-9" value="FEATURES&amp;nbsp;&lt;br&gt;DETECTION" style="text;html=1;strokeColor=none;fillColor=none;align=center;verticalAlign=middle;whiteSpace=wrap;rounded=0;fontStyle=1" vertex="1" parent="1">
          <mxGeometry x="337.25" y="280" width="90" height="30" as="geometry" />
        </mxCell>
        <mxCell id="M1dlDY-dCehF3eleabuK-84" style="edgeStyle=orthogonalEdgeStyle;rounded=1;orthogonalLoop=1;jettySize=auto;html=1;exitX=0.5;exitY=0;exitDx=0;exitDy=0;endArrow=blockThin;endFill=1;entryX=0.45;entryY=1.041;entryDx=0;entryDy=0;entryPerimeter=0;" edge="1" parent="1" source="M1dlDY-dCehF3eleabuK-10" target="M1dlDY-dCehF3eleabuK-82">
          <mxGeometry relative="1" as="geometry">
            <mxPoint x="382" y="100" as="targetPoint" />
          </mxGeometry>
        </mxCell>
        <mxCell id="M1dlDY-dCehF3eleabuK-85" style="edgeStyle=orthogonalEdgeStyle;rounded=1;orthogonalLoop=1;jettySize=auto;html=1;exitX=1;exitY=0.5;exitDx=0;exitDy=0;entryX=0;entryY=0.5;entryDx=0;entryDy=0;endArrow=blockThin;endFill=1;" edge="1" parent="1" source="M1dlDY-dCehF3eleabuK-10" target="M1dlDY-dCehF3eleabuK-11">
          <mxGeometry relative="1" as="geometry">
            <Array as="points">
              <mxPoint x="480" y="133" />
              <mxPoint x="480" y="295" />
            </Array>
          </mxGeometry>
        </mxCell>
        <mxCell id="M1dlDY-dCehF3eleabuK-10" value="ANCHOR - POS - NEG&lt;br&gt;SAMPLING" style="text;html=1;strokeColor=none;fillColor=none;align=center;verticalAlign=middle;whiteSpace=wrap;rounded=0;fontStyle=1" vertex="1" parent="1">
          <mxGeometry x="312.25" y="118.25" width="140" height="30" as="geometry" />
        </mxCell>
        <mxCell id="M1dlDY-dCehF3eleabuK-104" style="edgeStyle=orthogonalEdgeStyle;rounded=1;orthogonalLoop=1;jettySize=auto;html=1;exitX=0.5;exitY=0;exitDx=0;exitDy=0;endArrow=blockThin;endFill=1;" edge="1" parent="1" source="M1dlDY-dCehF3eleabuK-11" target="M1dlDY-dCehF3eleabuK-88">
          <mxGeometry relative="1" as="geometry">
            <Array as="points">
              <mxPoint x="645" y="270" />
              <mxPoint x="540" y="270" />
            </Array>
          </mxGeometry>
        </mxCell>
        <mxCell id="M1dlDY-dCehF3eleabuK-105" style="edgeStyle=orthogonalEdgeStyle;rounded=1;orthogonalLoop=1;jettySize=auto;html=1;exitX=0.5;exitY=0;exitDx=0;exitDy=0;entryX=0.431;entryY=1.049;entryDx=0;entryDy=0;endArrow=blockThin;endFill=1;entryPerimeter=0;" edge="1" parent="1" source="M1dlDY-dCehF3eleabuK-11" target="M1dlDY-dCehF3eleabuK-100">
          <mxGeometry relative="1" as="geometry">
            <Array as="points">
              <mxPoint x="645" y="270" />
              <mxPoint x="747" y="270" />
              <mxPoint x="747" y="251" />
            </Array>
          </mxGeometry>
        </mxCell>
        <mxCell id="M1dlDY-dCehF3eleabuK-114" style="edgeStyle=orthogonalEdgeStyle;rounded=1;orthogonalLoop=1;jettySize=auto;html=1;exitX=0.5;exitY=0;exitDx=0;exitDy=0;entryX=0.5;entryY=1;entryDx=0;entryDy=0;endArrow=blockThin;endFill=1;" edge="1" parent="1" source="M1dlDY-dCehF3eleabuK-11" target="M1dlDY-dCehF3eleabuK-96">
          <mxGeometry relative="1" as="geometry" />
        </mxCell>
        <mxCell id="M1dlDY-dCehF3eleabuK-11" value="PATCH&lt;br&gt;EXTRACTION" style="text;html=1;strokeColor=none;fillColor=none;align=center;verticalAlign=middle;whiteSpace=wrap;rounded=0;fontStyle=1" vertex="1" parent="1">
          <mxGeometry x="600" y="280" width="90" height="30" as="geometry" />
        </mxCell>
        <mxCell id="M1dlDY-dCehF3eleabuK-12" value="TRIPLET LOSS NETWORK" style="text;html=1;strokeColor=none;fillColor=none;align=center;verticalAlign=middle;whiteSpace=wrap;rounded=0;fontStyle=1" vertex="1" parent="1">
          <mxGeometry x="600" y="44" width="90" height="30" as="geometry" />
        </mxCell>
        <mxCell id="M1dlDY-dCehF3eleabuK-41" style="edgeStyle=orthogonalEdgeStyle;orthogonalLoop=1;jettySize=auto;html=1;exitX=1;exitY=0.5;exitDx=0;exitDy=0;entryX=1;entryY=0.5;entryDx=0;entryDy=0;endArrow=blockThin;endFill=1;curved=1;" edge="1" parent="1" source="M1dlDY-dCehF3eleabuK-19" target="M1dlDY-dCehF3eleabuK-34">
          <mxGeometry relative="1" as="geometry">
            <Array as="points">
              <mxPoint x="110" y="193" />
              <mxPoint x="110" y="242" />
            </Array>
          </mxGeometry>
        </mxCell>
        <mxCell id="M1dlDY-dCehF3eleabuK-43" style="edgeStyle=orthogonalEdgeStyle;orthogonalLoop=1;jettySize=auto;html=1;exitX=1;exitY=0.5;exitDx=0;exitDy=0;entryX=1;entryY=0.5;entryDx=0;entryDy=0;endArrow=blockThin;endFill=1;curved=1;" edge="1" parent="1" source="M1dlDY-dCehF3eleabuK-19" target="M1dlDY-dCehF3eleabuK-26">
          <mxGeometry relative="1" as="geometry">
            <Array as="points">
              <mxPoint x="110" y="193" />
              <mxPoint x="110" y="149" />
            </Array>
          </mxGeometry>
        </mxCell>
        <mxCell id="M1dlDY-dCehF3eleabuK-19" value="" style="shape=image;verticalLabelPosition=bottom;labelBackgroundColor=default;verticalAlign=top;aspect=fixed;imageAspect=0;image=data:image/png,iVBORw0KGgoAAAANSUhEUgAAAQAAAAEACAIAAADTED8xAAAZq0lEQVR42u2d6XsV5d3H/ReKStU+2lbAIi5Pn7bKlrAKJAgGlUVWWQMBgZQdAREIJCFAWK2CGyCQAEHKJgUqFlywdUHQim2REwGFBEPgTa8+b57nnplzJnPmzMy5Z7mXmfne1/eVb3pd5fO5z/f88jszt/wfDk6Mzy34vwAHAuDgQAAcHAiAgwMBcHAgAA4OBMDBgQA4OBAABwcC4OBAABwcCICDAwFwcCAADg4EwMGJrQB7av896dSNRw7Ut367DkGMuV9Nmz3JPGDIg2oeqknm4VT+m2S3kl8nc/V/UvnNrmQ6762b9kHjvgv/FizAx/X/2+1PP+KfGbFDX6c/E/0H7dHX6W9CP0X/b1P5nZq+B699UvcfMQKQix//zEhW9NvYo/+QEX2biz8TfZ3+R3Yms9/HR8EtoB8RiD5N58lEX6f/0VQOeHXgFm/NB//YCNu6b9N5jBe/hn7bVD69+h9OAqD3IwHU/Rp3dT8T/Sb6q6+2q77ab/81HgKg/CAC6/6jGRd/u+pk2ld7KUKuBZh06gb+4ZHWWdHfw6rut02/+DX0tcx+v5G5AJj3I1k7DwX6dX7qvo6+Tn8HNT1r6pgLgH9+oO+z8/iv+6aLX6O/Y5USCICEYMTpv+4b0e9QlaQfAiBh2mjwU/cz0c9RAwGQ8G00eKj7RvR1+nMhABKWEaf/um9EX6M/dwcEQMK80eCq7pvQJ+kEAZCwbzS0dYt+VRL9ThAAicBGA2XnyUS/sxoIgIR+o4Gy85jQhwBIKOt+W69134R+F5LtEAAJYd2nHHHaXfwa+iRdIQASvbqfQ4e+misQAIlg3bfuPGnoX+22/Uo3CICEa4GZHn3ni79bKhAACXij4dciNhroO4+OfvdtSiAAErIFZvoRpx36Ov2PQQAkdAvM9CPOLul134i+Rj8EQMK3wOyz8+jok/SAAIi8C8zVAdd9E/o9IADQF7zAvJNr3Teh3/MtJRAA6Idsgdlz3TehDwFQ90O5wOyn8xjR76UGAqDuh2yB2XPdN6FPkgcB0Hl09Nv/sX7SyR9f/fL6idrGm1aH/PfXv2yYcuJap711AheYLTcaaOq+CX0lWyEA0K+pG/Hutepz179vuEl5fmi4sevc9TF/rhe70eC27pvQz1cDAWJd9586cu0vNvc9zTmZaHzmcL0MGw00dV+nP39rUyBAfC9+0nZuBnHePNvAc4HZc903XvwkvdVAgDii3/NQ/WeXb9wM7nx+ufGJ/XWMFpi7BFT3TeiTPA4BYrjATGoPfd2nP+SLwZDD9RwWmF3X/fTOo6OvZAsEiNmIkxH9ugND36nnX/cdLv58m4ufoN9HDQSI0Z91SfNhR7/uQL99dfw3Gug7D0Ffpx8CxGujIdjeb3dOX27kvNFAi/7WNPT7qoEAcdloeC2gmQ/N2XKmgfNGQy+Kut8ng/4nIEBMNhr6H7l2k+8Zfqiec93Py1b3jegr9G9WAgFiscB8wsdfu7ydDxKNstX9voaLX6O/AALEYYF55Lu8r3/tTDxSz2KB2Q79/Gx134R+AQSIyQLzznPXhQjw9t+vc677vR3rvgl9kn4QIPILzDl7639ouCFEAPK/y7/uP25f959IR78fBIjD7xWnnBDTf7Qz+/i1wBeYPdd9E/pPvqkEAoQQfTc/2nr9ywaBAmz7ooFz3e9DjT7JUxAgdJ3H7e8VTyYaBQrw4YVG/nW/r03dN9L/VDI/QIDwdR5Xv1e8Kfrwrvt0Fz9Bn+RpCBD5R7IJFyD4ur81GPSVvAEBovhINuNPdWUQgL7z5HndaLDrPJno6/T3f0MJBIj4E5iFCxD4ArPnum+8+DX6B0CAyD+STbgA8tR9I/oa/RAgso9k03+lLoMArkac7Oq+CX2SgRAgwk9g1n6oLlyAwBeY6er+lcy6b0Rfo3/g6xAg0k9gJnlf6N8BPrrQGPhGg+e6b0KfZBAECHvdz/pIts1nRf4leMfpBnnqvgn9QRAg8k9gblt9ddp7IneB5h+rD3yB2Tv6b6Sh/4waCBDxJzA/tqdO1DbolR9vMBpxeqv7JvQhQFyewFzztZjfA+z7qoHFArPnum9CfzDJaxAgQnXf7pFsE47WCxFg+uF6wXXf5uLX0CcZAgF4PpJN4DulP+A+Czp1odH/AnNBVvTf9I7+EAggzQIz83dKDz/E+0OgaF8d640Gt3XfhP5QNRBAcOfh9sKVrWf4zUOrTjcIH3E+Y3/xDzUEAki3wMzuhStfXOJRhM5ebOS/0UDfeXT0h72qBALIvtEQ4AtXBuxlPhK98uONETVXmS4wB4U+yXAIEIqNhgBfuDLqIMOHRBD6J+6rY73ATNV5bNDX6R+eCgSI3TulRx+ov8LAAZ1+IRsNNHXfePFrGQEB4vlO6UF764L9PkB6/7M1VyWv+yb0R0CAmL9TetsXwcyFqk839Oa4wDzITefJRF+n/9lNSiBArN8pPXZ/3UcXvH8UnPq2kdQezgvMlugPpqj7xotfo38kBAjRRoPvd0rbPoG5+HD9vq8aSImnr/v7v2qY8U69VHWfsvNo6Gv0QwAZF5gFvlN6/rH6HacbTtl8JpD7vup0w8Jj9YE8ko1/3TehTzIKAkhY96V9p7QkC8z0I87h9uhr9EMAho9kY1T3cyR44Yq3BeYnA1pgph9xOlz8Sjb+MHpjvAUIad0X9U5pSRaYfXYeHf3RMReAcoH5vvVnfrn4vXtmHrhj9BY9d47eQv7LvYuO37/uC9nqflehT2DmsMBMP+K0QH9TE/pjlHwfRwFoRpwtV33ys6l7bu235ie9K6yyXM+tBavvnlLTesXfQlH35XkkG6O6bxxx2l38Gvpa4iUATee5t+zD2wb+wYb7NPR/kp+W2we89KtlH/Cp+/K8ZI7/ArPPzqOjP5bkldgIQIN+643nmg97zQP6xtwx9NWHX/6az0YD53dKh73up6Gv0j8uJgLQjDhJ0bdHv4IG/VTKSe5beJzbRgO3d0oHssA8gH3dH2lT940X/7hUIi4A5UYDqfs+L34dfT0/n1zjVPerRdb9PKF1f6Cguq+hb6S/MMICUI44H9hx6a6iqmDR19Isv/ye8Tse3XoRdZ/DRgNN3TehXxhVAein+4R+m9K/3G3nyaRfy51DNrXdelFI3Zf8kWyM0f8hs+6b6B+vJmoC0G80PJiVfn/oN8tL5s4hG4kDstX98C4we677xotfof9lJdERwNUCsw39fjuPCf1meWVa7hqysd2Wi7LVfWGPZHvN+4jTT903oT9BTRQEcLvRQOj/qZn+gNDPN6NvdKD9losu6/5V1H0/I0479HX6i8IugIdlHif68wO++DMd6LDlYrALzDzfKS1R3d/kpe4b0dfoD7cAHh7J9pCZfladx8GBjpsvhmKBmfUj2TyPOD3XfRP6JBP/EE4BvC0wp9PPG/1USu8a8krO5otZR5wSvlNakgVmz3U/DX2V/vAJ4GeB+Y7RW9jUfRf0a/nFuG2cFphjs9Fggf4r5rpvQp9kUrgE8POjrbuTf+vlVPft0G/WK5kWE3cHs8AsaKNhoNCNBm9134T+pBAJ4POd0ir9wjqPCX09LSfuxgKz5xGnh7pvQv85NbIL4P9HW2n0sxlxZkHfiv6UA7uiOuIcynejgabum9BX8pLEAgTyjIa7p9aIrft26KtZRkIcwAKzh40GD3XfhP5kNZIKEMgzGpL058vSeTLp19Jq4i6hC8xXwrXA7Lnum9AnmSKhAEE9gZmOfjbo59Gib3QgpAvMg7kvMHuu+yRG9KfIJkCAz2hQ6Oda98s8o9/kQNEubDQwrfsm9EmmSiJAsI9ku3tKjXydxwn9Zj2TaVW0EwvMrkacrur+5HT0lWyQQIBgH8mWjX7Bdd8O/WY9l2q5r2hn6BaYvT2SbTT7Eacz+sVqRAoQ+BOYHemXpe7boa/nV0U75XyntCQLzJ7rvk5/8YamiBGAxSPZ7OmXru7boX9rKsSByD+SzfMCs+e6b7z4SX6vhrcA97N5p/Q93ugXV/cd6NcdCHiB2c1Gw6BNl59em3h6jZL+agZvvBzsI9mC3Wig7zw6+iTTOAsQxDulLZ7AbEO/7HXfDn01JSStJ1TzXGAe8PKlgrJ/5c09+1jx590nf5oZ8t/z5559svRfg1+6JHCBmb7zZKJfbEBfyXpeArB7ArMV/aGp+3boJ9Mj6QDrBeZ+K873mnXGEnq75M068/Ty85KMOCnrvvHiJ+iTTOcgANN3SmfQL2yjwW3dz0J/j6bcP6GaXd1/svJCz+nkvv/EFf16ek4/PXDlBc4LzPQjTmf01VzmIUCw75T+rTf6w9B5TOg3OTC+OvAF5oGbLvee/6WKvp5PvaXPvK9GvHyZ2wKzd/TT6Z+x/vIMDgJ4W2DO+taJdPoji34qS4gDAS4w99/wXeri/yQQB3pNPz107XcCR5xT7TvPNKuLX6N/Jh8BAn+ntIF+3gvM7Oq+A/1a2oyvDmSjof/62u5TP+323N+6kwTnQI/iz4et/U7URgN955lhoH/mOvYCBP6SuRT95eEdcdJf/KYQB3xO9wsq/knQ1xOsAySDys9LW/dN6JPM4iOA57qf+aYtB/oj1nns0qaw2vNGg0L/pL8qYeyAhxEnh7qfRN9APw8BAnzJ3D2Ta6I04nSL/q2PJdOmsMrDRkPB8n90nXiq26SPOTjwTNl5zhsNWS/+TPRJZnMQIKiXzFnSL/lGQ4AXf4r+xVoeKKxytcDcT6H/IyIATwdkq/sm9GdzE8D/O6Wz0B/Fup958ev06w5QLvP0K/9Hl6IPVAGMDnzM2oHBZeddjTiDq/vf06BPMmctewH8v1M6k/6Y1H079PU8qDrgvMBcUPZNlwknu0x43+DAR1wdCHqBmX7EaaLfhL4W5gL4fKf0z9Ppj1bdL/GMvtEBhwXmgrJzncef6DL+pOZA16IP+TswpOw857rvfPHr6JPM5SGAj3dKG+mXs+43Y1/3s2XRg4U7LBeYC0q/7lx4vHPhe9kcYP59YHjFt5Sdh2ndN6E/l48Abuu+/n5Fa/rj3XlM6CfTfdFD43aYdvcHrP2284T3Oo17VwYHehR/NqaylseIc132zqOj/7waHgK46jwm+oG+M/pabuu+6OFxO/SfrfRf822nwmO5Y4/mjj2WzQFOc6EeUxUH2G000Fz8JvSVrGEvgFv0dfpR9ynR10McIPQ/vfqfOWMP54w+nDvmSO6YpAOdxpkdUL4TJzXgNBciDoytrM3aeYpZdh4j+vPUMBeAsu7r75Qm9Id9gZnPxX+bRV5sM/zNtoO3txtW03HkATcOfMTPgVW1LDYa6DuPjj7JfB4COF78ptepp9GPzkN38ev0a2lRsOGRgVvaD9uTM/KgyYHMLsR/NkocGLeqNvCNhtl0nceI/nw+AmTtPPrr1H+h0w/0PaGf6UDm54AM34l7Tv2sUHWAXd136DzzDVnAR4DfOXYeG/qjWPfdjzjdot/kwBOKA5ZdSBIHxq+qZT3itOw8OvpKVrMXwLnzkLSrTtEfy40Gr3Xfnv5uyVg4INNciDgwYWVtUBsN9J1HR/8FNTwEsOs8batT9KPz+Os8JvRv67ZQi8PngAxzIc0BRnXfrvOQvLC6KcwFsL74VfQV+p+ricMCM0f0m+hPd2C3nHMh4kDRylpGdd/h4idZqIa5AJadR8svk/THYoGZXd23Q9/75wDfuRBxYOLKWg5134Q+yYt8BGibcfG3d01/XOq+z87j7ADlbJT/zhxxYNLKROB137Lz6OgrqWQvgAl9A/2o+0w6j1VeIGnxxHrJZ6PPrUwEXvftLn6CPskiHgKko6/SvxsbDUw7jwl9JV2VtOi7XvLZ6HMrEuzqvgn9RXwEMKLvhf6objTwRV+PgwOSfCcmDgRY9zM7j07/YjXMBdDR70BLPzqPT/QXWqKf4cDuDn4cMGgQuAOTVQeCqvuWF/9ingJ0oKUf6AdT9x3oV7OgRd91ks9Gp1QkAq/7JvSXkKxiLwAd/aj7rDqPCX09mgPS7swRB6ZWJAKp+y9moL9YRV8LewGqqOmP40aDAPS13N51Qcu+6x4d9Fb74W9LOxstrkgEUvczL36SEjXMBXCkH52Hbd23Qz+ZLikHJJ6NFi9PBFX3lxgufpX+S0tXXWIugFzo94xd3bdDP5X5LZPfB+SdC/1+ecJn3V+cgb5GvxABSvluNJREZqPBf+cxoa8n5YC8cyHiQBb0V2ev+yWGi1/LspW8BcACszj0u1qgn+mAtJ8D05YnfNZ9I/oa/TwFQN3n0HkW0HQeu8jfhaaXJzzX/ZIM9ElKuQiABWYBF78r9A0OrJV5Ntpr6mczyhOe674J/VKuAmCBWY66b595Wlr2WetvNvpX1g7MLE/Y1v1Kp7pvQp+kjIcAWGAWNOKkpj+J/u2dk0k6YDUblaELaQ7QjDgd6C9LRaAAqPvCO48ZfaMDTXOhUe9YOfAXgXMh4sCs8oTbum9Cv2zFpfIVYgTARoP4uu9Af8qBNTLPRjUH/KBfLkKAyD6STeYRp1v0b+/8vBbdAWm70OyyhMOIs9SKfh395Wp4CoC6L13dd6Df6IDlXEiG3xMTB+aUJSjrvgl9ngKg7kvTeajRb3Lg8TUy78wRB+aqDtB0HiP6FWo4CBCvR7KFse7boa+kkxIHByTpQnNLE9adZ4XFxa+hX1GhRJAAWGCWrO7boa9mLknSgWE12lwoZ/SfZJsLPV+ayNp5Kgz0r1DDXQDUfcYbDZ7rvh36eogD2WajgudC80oTWTuPjj7JSq4CYIFZ+rpvhz5JczVpDkg5G523LOHQeYzor+QqADYa+G40+Og81ug3z3BA2tno/GUJy7pvQp9kFQ8B4r7AvDB0dd8OfTVzSFo+vlrynbkFqgMOF/8qLcs5CYARZ8jq/u026CvJVUIckHwuRBxwRp+kkosAWGCWcsTpFX09KQf2dCQO2MyFFA3EfR94YWkis/Po6FdyFgB1P3R134H+NAdSs1EJd+YWLk3Yob9aDScBsNHAt/MEVvft0Fczm0T7PiDzXOjFpQkT/asNYS4A6n5YRpxu0dejOyDtXIg4UJlB/xqSct4CYIFZ8ro/Nxv6ZvrTHaiR1oFFSxMm9LXwFAAbDSEYcdJf/E3JUdKyd6W7vdFsDnQL1IG8qZ8tVh3Q0V+rho8AqPsSjTiDRD9Ff/OcWSTEgWDnQsE7UJLQ0ecmAOp+qOv+HBr09QTuQPegHVhSktDQX6eGiwAYcco84vSOvpl+La0eT3NAttkocaCkJKHRv76MgwB4JFuU6n6uE/rmzwHt7wPyzUaJA0uXJAj9ogTAAnPo675jZpK07L1K5tmo5sAG7gKg7ken7jvQ37yjEtWBzeRzwDwXGvtn73MhCw28O7BsyQWeAqDuR63uW6Cfop/kpx1ntiIODNpq8Z24yQH3c6FAHeAjABaYI1v37dDXQxyQeTbKQQB0HikWmPmjn8oMGgdEfScWIQA2GgQtMDOp+zlO6OsxOSDPXIi7AKj7QheY2dV9O/TNDkg2G+UoADYaojLidIu+kg5KWuWvfGTgZovdaVdzoUC/E3MRACPOKNT9WTR134F+NdM1B9ore6NSzIXYC4C6L+UCs5/O4w19PYoDlrNREXMhPgJggVnGBWYOnceEvtEBSXbmOAiAuh/Vup+V/ukOMTkgamdOrACo+yHYaPDfeagcEDQXEigARpwh2GhghL75+0DmbJTXXEiIAFhgjuCI0y36aQ7os1HucyHOAuCRbCHeaPBc9ykdEDIb5SYA6n6s67677wMcZ6N8BEDdD80CM3/0xc5GOQgQlhEn6r4w9AXORtkLgAVm1H0Pc6FMBwzfBwKcC/EQABsNYVxg5nnx281GOXwnZi4A6n6ENxrYOsBlLsRZAGw0hKfzCEI/+85coA5wEwAjzviOOGWejXIQAHU/+hsNYh3wMxcSJAA2GlD3A+1CnudC3AXAI9liPOKU8PsARwFQ91H35ZuN8hIAGw2o+/LNRrkIgLofv40GAV3I1VzI8CHATQAsMKPuyzQb5SgANhpQ9+X9TixWANT9uI84hTsgUIDYvVMadV9CB4QIgAVm1P2AZ6M5Xh3gLADqPkacLGajTe8nNn4n7lxo5UBKAM0BbgJgxIm6z3ou9HbmO7pTDjQ9W8X4IUDCRwAsMMdigVmG2aj950DKgfQixEEAbDRgxCng7wNOnwMGB9gLgBEn6r7ALjTW0oGmL8SiBMBGA+o+PwfUoZDqgPaF2OAAfwFQ9zHi5ObAodSXgaN2g1HOAqDuo+7zcuCZt9qP2GtwwOqBuxwFQN1H5+HvwDazAxlfBjgIgLoP9AU6sL0DcSA1FEp9CBzXixBXAbDRgLov2IG0LwPKhwAnAbDAjBGnSAcG7+gw4o85ow6nFSH1Q4C5AHf1WoJHsqHzCHegLXHg2X255MuA4UOgZxH7T4DcwjexwAz0ZXLgiP4hMP559o9GXPLGqfi9U3omRpySOjCkquPIg+TLgPYhsHl7grkA5NzbpxyPZAP6cjiwqt3QXR1HHew05lifiSc9wOxFgKqj32CBGejL4kBv4sDujqMOHTt+hZMA5JS8fgobDRhxSpL7ele+uvmcN5I9CmDlADYaQL+YjJxe4xlj7wKQU330G/X7ABaYgb6Y/Ffn+aXrT/hh2JcA2nlp9+lOY9/4WY9FGHEifHJn7pzWeeXDi3f5pzcAAXBwwnsgAA4EwMGBADg4EAAHBwLg4EAAHBwIgIMDAXBwIAAODgTAwYEAODgQAAcHAuDgQAAcHAiAgxPS8/9/EwF6k/xuVgAAAABJRU5ErkJggg==;" vertex="1" parent="1">
          <mxGeometry x="48.5" y="171.5" width="43" height="43" as="geometry" />
        </mxCell>
        <mxCell id="M1dlDY-dCehF3eleabuK-21" value="" style="shape=image;verticalLabelPosition=bottom;labelBackgroundColor=default;verticalAlign=top;aspect=fixed;imageAspect=0;image=data:image/png,iVBORw0KGgoAAAANSUhEUgAAAQAAAAEACAIAAADTED8xAAAZq0lEQVR42u2d6XsV5d3H/ReKStU+2lbAIi5Pn7bKlrAKJAgGlUVWWQMBgZQdAREIJCFAWK2CGyCQAEHKJgUqFlywdUHQim2REwGFBEPgTa8+b57nnplzJnPmzMy5Z7mXmfne1/eVb3pd5fO5z/f88jszt/wfDk6Mzy34vwAHAuDgQAAcHAiAgwMBcHAgAA4OBMDBgQA4OBAABwcC4OBAABwcCICDAwFwcCAADg4EwMGJrQB7av896dSNRw7Ut367DkGMuV9Nmz3JPGDIg2oeqknm4VT+m2S3kl8nc/V/UvnNrmQ6762b9kHjvgv/FizAx/X/2+1PP+KfGbFDX6c/E/0H7dHX6W9CP0X/b1P5nZq+B699UvcfMQKQix//zEhW9NvYo/+QEX2biz8TfZ3+R3Yms9/HR8EtoB8RiD5N58lEX6f/0VQOeHXgFm/NB//YCNu6b9N5jBe/hn7bVD69+h9OAqD3IwHU/Rp3dT8T/Sb6q6+2q77ab/81HgKg/CAC6/6jGRd/u+pk2ld7KUKuBZh06gb+4ZHWWdHfw6rut02/+DX0tcx+v5G5AJj3I1k7DwX6dX7qvo6+Tn8HNT1r6pgLgH9+oO+z8/iv+6aLX6O/Y5USCICEYMTpv+4b0e9QlaQfAiBh2mjwU/cz0c9RAwGQ8G00eKj7RvR1+nMhABKWEaf/um9EX6M/dwcEQMK80eCq7pvQJ+kEAZCwbzS0dYt+VRL9ThAAicBGA2XnyUS/sxoIgIR+o4Gy85jQhwBIKOt+W69134R+F5LtEAAJYd2nHHHaXfwa+iRdIQASvbqfQ4e+misQAIlg3bfuPGnoX+22/Uo3CICEa4GZHn3ni79bKhAACXij4dciNhroO4+OfvdtSiAAErIFZvoRpx36Ov2PQQAkdAvM9CPOLul134i+Rj8EQMK3wOyz8+jok/SAAIi8C8zVAdd9E/o9IADQF7zAvJNr3Teh3/MtJRAA6Idsgdlz3TehDwFQ90O5wOyn8xjR76UGAqDuh2yB2XPdN6FPkgcB0Hl09Nv/sX7SyR9f/fL6idrGm1aH/PfXv2yYcuJap711AheYLTcaaOq+CX0lWyEA0K+pG/Hutepz179vuEl5fmi4sevc9TF/rhe70eC27pvQz1cDAWJd9586cu0vNvc9zTmZaHzmcL0MGw00dV+nP39rUyBAfC9+0nZuBnHePNvAc4HZc903XvwkvdVAgDii3/NQ/WeXb9wM7nx+ufGJ/XWMFpi7BFT3TeiTPA4BYrjATGoPfd2nP+SLwZDD9RwWmF3X/fTOo6OvZAsEiNmIkxH9ugND36nnX/cdLv58m4ufoN9HDQSI0Z91SfNhR7/uQL99dfw3Gug7D0Ffpx8CxGujIdjeb3dOX27kvNFAi/7WNPT7qoEAcdloeC2gmQ/N2XKmgfNGQy+Kut8ng/4nIEBMNhr6H7l2k+8Zfqiec93Py1b3jegr9G9WAgFiscB8wsdfu7ydDxKNstX9voaLX6O/AALEYYF55Lu8r3/tTDxSz2KB2Q79/Gx134R+AQSIyQLzznPXhQjw9t+vc677vR3rvgl9kn4QIPILzDl7639ouCFEAPK/y7/uP25f959IR78fBIjD7xWnnBDTf7Qz+/i1wBeYPdd9E/pPvqkEAoQQfTc/2nr9ywaBAmz7ooFz3e9DjT7JUxAgdJ3H7e8VTyYaBQrw4YVG/nW/r03dN9L/VDI/QIDwdR5Xv1e8Kfrwrvt0Fz9Bn+RpCBD5R7IJFyD4ur81GPSVvAEBovhINuNPdWUQgL7z5HndaLDrPJno6/T3f0MJBIj4E5iFCxD4ArPnum+8+DX6B0CAyD+STbgA8tR9I/oa/RAgso9k03+lLoMArkac7Oq+CX2SgRAgwk9g1n6oLlyAwBeY6er+lcy6b0Rfo3/g6xAg0k9gJnlf6N8BPrrQGPhGg+e6b0KfZBAECHvdz/pIts1nRf4leMfpBnnqvgn9QRAg8k9gblt9ddp7IneB5h+rD3yB2Tv6b6Sh/4waCBDxJzA/tqdO1DbolR9vMBpxeqv7JvQhQFyewFzztZjfA+z7qoHFArPnum9CfzDJaxAgQnXf7pFsE47WCxFg+uF6wXXf5uLX0CcZAgF4PpJN4DulP+A+Czp1odH/AnNBVvTf9I7+EAggzQIz83dKDz/E+0OgaF8d640Gt3XfhP5QNRBAcOfh9sKVrWf4zUOrTjcIH3E+Y3/xDzUEAki3wMzuhStfXOJRhM5ebOS/0UDfeXT0h72qBALIvtEQ4AtXBuxlPhK98uONETVXmS4wB4U+yXAIEIqNhgBfuDLqIMOHRBD6J+6rY73ATNV5bNDX6R+eCgSI3TulRx+ov8LAAZ1+IRsNNHXfePFrGQEB4vlO6UF764L9PkB6/7M1VyWv+yb0R0CAmL9TetsXwcyFqk839Oa4wDzITefJRF+n/9lNSiBArN8pPXZ/3UcXvH8UnPq2kdQezgvMlugPpqj7xotfo38kBAjRRoPvd0rbPoG5+HD9vq8aSImnr/v7v2qY8U69VHWfsvNo6Gv0QwAZF5gFvlN6/rH6HacbTtl8JpD7vup0w8Jj9YE8ko1/3TehTzIKAkhY96V9p7QkC8z0I87h9uhr9EMAho9kY1T3cyR44Yq3BeYnA1pgph9xOlz8Sjb+MHpjvAUIad0X9U5pSRaYfXYeHf3RMReAcoH5vvVnfrn4vXtmHrhj9BY9d47eQv7LvYuO37/uC9nqflehT2DmsMBMP+K0QH9TE/pjlHwfRwFoRpwtV33ys6l7bu235ie9K6yyXM+tBavvnlLTesXfQlH35XkkG6O6bxxx2l38Gvpa4iUATee5t+zD2wb+wYb7NPR/kp+W2we89KtlH/Cp+/K8ZI7/ArPPzqOjP5bkldgIQIN+643nmg97zQP6xtwx9NWHX/6az0YD53dKh73up6Gv0j8uJgLQjDhJ0bdHv4IG/VTKSe5beJzbRgO3d0oHssA8gH3dH2lT940X/7hUIi4A5UYDqfs+L34dfT0/n1zjVPerRdb9PKF1f6Cguq+hb6S/MMICUI44H9hx6a6iqmDR19Isv/ye8Tse3XoRdZ/DRgNN3TehXxhVAein+4R+m9K/3G3nyaRfy51DNrXdelFI3Zf8kWyM0f8hs+6b6B+vJmoC0G80PJiVfn/oN8tL5s4hG4kDstX98C4we677xotfof9lJdERwNUCsw39fjuPCf1meWVa7hqysd2Wi7LVfWGPZHvN+4jTT903oT9BTRQEcLvRQOj/qZn+gNDPN6NvdKD9losu6/5V1H0/I0479HX6i8IugIdlHif68wO++DMd6LDlYrALzDzfKS1R3d/kpe4b0dfoD7cAHh7J9pCZfladx8GBjpsvhmKBmfUj2TyPOD3XfRP6JBP/EE4BvC0wp9PPG/1USu8a8krO5otZR5wSvlNakgVmz3U/DX2V/vAJ4GeB+Y7RW9jUfRf0a/nFuG2cFphjs9Fggf4r5rpvQp9kUrgE8POjrbuTf+vlVPft0G/WK5kWE3cHs8AsaKNhoNCNBm9134T+pBAJ4POd0ir9wjqPCX09LSfuxgKz5xGnh7pvQv85NbIL4P9HW2n0sxlxZkHfiv6UA7uiOuIcynejgabum9BX8pLEAgTyjIa7p9aIrft26KtZRkIcwAKzh40GD3XfhP5kNZIKEMgzGpL058vSeTLp19Jq4i6hC8xXwrXA7Lnum9AnmSKhAEE9gZmOfjbo59Gib3QgpAvMg7kvMHuu+yRG9KfIJkCAz2hQ6Oda98s8o9/kQNEubDQwrfsm9EmmSiJAsI9ku3tKjXydxwn9Zj2TaVW0EwvMrkacrur+5HT0lWyQQIBgH8mWjX7Bdd8O/WY9l2q5r2hn6BaYvT2SbTT7Eacz+sVqRAoQ+BOYHemXpe7boa/nV0U75XyntCQLzJ7rvk5/8YamiBGAxSPZ7OmXru7boX9rKsSByD+SzfMCs+e6b7z4SX6vhrcA97N5p/Q93ugXV/cd6NcdCHiB2c1Gw6BNl59em3h6jZL+agZvvBzsI9mC3Wig7zw6+iTTOAsQxDulLZ7AbEO/7HXfDn01JSStJ1TzXGAe8PKlgrJ/5c09+1jx590nf5oZ8t/z5559svRfg1+6JHCBmb7zZKJfbEBfyXpeArB7ArMV/aGp+3boJ9Mj6QDrBeZ+K873mnXGEnq75M068/Ty85KMOCnrvvHiJ+iTTOcgANN3SmfQL2yjwW3dz0J/j6bcP6GaXd1/svJCz+nkvv/EFf16ek4/PXDlBc4LzPQjTmf01VzmIUCw75T+rTf6w9B5TOg3OTC+OvAF5oGbLvee/6WKvp5PvaXPvK9GvHyZ2wKzd/TT6Z+x/vIMDgJ4W2DO+taJdPoji34qS4gDAS4w99/wXeri/yQQB3pNPz107XcCR5xT7TvPNKuLX6N/Jh8BAn+ntIF+3gvM7Oq+A/1a2oyvDmSjof/62u5TP+323N+6kwTnQI/iz4et/U7URgN955lhoH/mOvYCBP6SuRT95eEdcdJf/KYQB3xO9wsq/knQ1xOsAySDys9LW/dN6JPM4iOA57qf+aYtB/oj1nns0qaw2vNGg0L/pL8qYeyAhxEnh7qfRN9APw8BAnzJ3D2Ta6I04nSL/q2PJdOmsMrDRkPB8n90nXiq26SPOTjwTNl5zhsNWS/+TPRJZnMQIKiXzFnSL/lGQ4AXf4r+xVoeKKxytcDcT6H/IyIATwdkq/sm9GdzE8D/O6Wz0B/Fup958ev06w5QLvP0K/9Hl6IPVAGMDnzM2oHBZeddjTiDq/vf06BPMmctewH8v1M6k/6Y1H079PU8qDrgvMBcUPZNlwknu0x43+DAR1wdCHqBmX7EaaLfhL4W5gL4fKf0z9Ppj1bdL/GMvtEBhwXmgrJzncef6DL+pOZA16IP+TswpOw857rvfPHr6JPM5SGAj3dKG+mXs+43Y1/3s2XRg4U7LBeYC0q/7lx4vHPhe9kcYP59YHjFt5Sdh2ndN6E/l48Abuu+/n5Fa/rj3XlM6CfTfdFD43aYdvcHrP2284T3Oo17VwYHehR/NqaylseIc132zqOj/7waHgK46jwm+oG+M/pabuu+6OFxO/SfrfRf822nwmO5Y4/mjj2WzQFOc6EeUxUH2G000Fz8JvSVrGEvgFv0dfpR9ynR10McIPQ/vfqfOWMP54w+nDvmSO6YpAOdxpkdUL4TJzXgNBciDoytrM3aeYpZdh4j+vPUMBeAsu7r75Qm9Id9gZnPxX+bRV5sM/zNtoO3txtW03HkATcOfMTPgVW1LDYa6DuPjj7JfB4COF78ptepp9GPzkN38ev0a2lRsOGRgVvaD9uTM/KgyYHMLsR/NkocGLeqNvCNhtl0nceI/nw+AmTtPPrr1H+h0w/0PaGf6UDm54AM34l7Tv2sUHWAXd136DzzDVnAR4DfOXYeG/qjWPfdjzjdot/kwBOKA5ZdSBIHxq+qZT3itOw8OvpKVrMXwLnzkLSrTtEfy40Gr3Xfnv5uyVg4INNciDgwYWVtUBsN9J1HR/8FNTwEsOs8batT9KPz+Os8JvRv67ZQi8PngAxzIc0BRnXfrvOQvLC6KcwFsL74VfQV+p+ricMCM0f0m+hPd2C3nHMh4kDRylpGdd/h4idZqIa5AJadR8svk/THYoGZXd23Q9/75wDfuRBxYOLKWg5134Q+yYt8BGibcfG3d01/XOq+z87j7ADlbJT/zhxxYNLKROB137Lz6OgrqWQvgAl9A/2o+0w6j1VeIGnxxHrJZ6PPrUwEXvftLn6CPskiHgKko6/SvxsbDUw7jwl9JV2VtOi7XvLZ6HMrEuzqvgn9RXwEMKLvhf6objTwRV+PgwOSfCcmDgRY9zM7j07/YjXMBdDR70BLPzqPT/QXWqKf4cDuDn4cMGgQuAOTVQeCqvuWF/9ingJ0oKUf6AdT9x3oV7OgRd91ks9Gp1QkAq/7JvSXkKxiLwAd/aj7rDqPCX09mgPS7swRB6ZWJAKp+y9moL9YRV8LewGqqOmP40aDAPS13N51Qcu+6x4d9Fb74W9LOxstrkgEUvczL36SEjXMBXCkH52Hbd23Qz+ZLikHJJ6NFi9PBFX3lxgufpX+S0tXXWIugFzo94xd3bdDP5X5LZPfB+SdC/1+ecJn3V+cgb5GvxABSvluNJREZqPBf+cxoa8n5YC8cyHiQBb0V2ev+yWGi1/LspW8BcACszj0u1qgn+mAtJ8D05YnfNZ9I/oa/TwFQN3n0HkW0HQeu8jfhaaXJzzX/ZIM9ElKuQiABWYBF78r9A0OrJV5Ntpr6mczyhOe674J/VKuAmCBWY66b595Wlr2WetvNvpX1g7MLE/Y1v1Kp7pvQp+kjIcAWGAWNOKkpj+J/u2dk0k6YDUblaELaQ7QjDgd6C9LRaAAqPvCO48ZfaMDTXOhUe9YOfAXgXMh4sCs8oTbum9Cv2zFpfIVYgTARoP4uu9Af8qBNTLPRjUH/KBfLkKAyD6STeYRp1v0b+/8vBbdAWm70OyyhMOIs9SKfh395Wp4CoC6L13dd6Df6IDlXEiG3xMTB+aUJSjrvgl9ngKg7kvTeajRb3Lg8TUy78wRB+aqDtB0HiP6FWo4CBCvR7KFse7boa+kkxIHByTpQnNLE9adZ4XFxa+hX1GhRJAAWGCWrO7boa9mLknSgWE12lwoZ/SfZJsLPV+ayNp5Kgz0r1DDXQDUfcYbDZ7rvh36eogD2WajgudC80oTWTuPjj7JSq4CYIFZ+rpvhz5JczVpDkg5G523LOHQeYzor+QqADYa+G40+Og81ug3z3BA2tno/GUJy7pvQp9kFQ8B4r7AvDB0dd8OfTVzSFo+vlrynbkFqgMOF/8qLcs5CYARZ8jq/u026CvJVUIckHwuRBxwRp+kkosAWGCWcsTpFX09KQf2dCQO2MyFFA3EfR94YWkis/Po6FdyFgB1P3R134H+NAdSs1EJd+YWLk3Yob9aDScBsNHAt/MEVvft0Fczm0T7PiDzXOjFpQkT/asNYS4A6n5YRpxu0dejOyDtXIg4UJlB/xqSct4CYIFZ8ro/Nxv6ZvrTHaiR1oFFSxMm9LXwFAAbDSEYcdJf/E3JUdKyd6W7vdFsDnQL1IG8qZ8tVh3Q0V+rho8AqPsSjTiDRD9Ff/OcWSTEgWDnQsE7UJLQ0ecmAOp+qOv+HBr09QTuQPegHVhSktDQX6eGiwAYcco84vSOvpl+La0eT3NAttkocaCkJKHRv76MgwB4JFuU6n6uE/rmzwHt7wPyzUaJA0uXJAj9ogTAAnPo675jZpK07L1K5tmo5sAG7gKg7ken7jvQ37yjEtWBzeRzwDwXGvtn73MhCw28O7BsyQWeAqDuR63uW6Cfop/kpx1ntiIODNpq8Z24yQH3c6FAHeAjABaYI1v37dDXQxyQeTbKQQB0HikWmPmjn8oMGgdEfScWIQA2GgQtMDOp+zlO6OsxOSDPXIi7AKj7QheY2dV9O/TNDkg2G+UoADYaojLidIu+kg5KWuWvfGTgZovdaVdzoUC/E3MRACPOKNT9WTR134F+NdM1B9ore6NSzIXYC4C6L+UCs5/O4w19PYoDlrNREXMhPgJggVnGBWYOnceEvtEBSXbmOAiAuh/Vup+V/ukOMTkgamdOrACo+yHYaPDfeagcEDQXEigARpwh2GhghL75+0DmbJTXXEiIAFhgjuCI0y36aQ7os1HucyHOAuCRbCHeaPBc9ykdEDIb5SYA6n6s67677wMcZ6N8BEDdD80CM3/0xc5GOQgQlhEn6r4w9AXORtkLgAVm1H0Pc6FMBwzfBwKcC/EQABsNYVxg5nnx281GOXwnZi4A6n6ENxrYOsBlLsRZAGw0hKfzCEI/+85coA5wEwAjzviOOGWejXIQAHU/+hsNYh3wMxcSJAA2GlD3A+1CnudC3AXAI9liPOKU8PsARwFQ91H35ZuN8hIAGw2o+/LNRrkIgLofv40GAV3I1VzI8CHATQAsMKPuyzQb5SgANhpQ9+X9TixWANT9uI84hTsgUIDYvVMadV9CB4QIgAVm1P2AZ6M5Xh3gLADqPkacLGajTe8nNn4n7lxo5UBKAM0BbgJgxIm6z3ou9HbmO7pTDjQ9W8X4IUDCRwAsMMdigVmG2aj950DKgfQixEEAbDRgxCng7wNOnwMGB9gLgBEn6r7ALjTW0oGmL8SiBMBGA+o+PwfUoZDqgPaF2OAAfwFQ9zHi5ObAodSXgaN2g1HOAqDuo+7zcuCZt9qP2GtwwOqBuxwFQN1H5+HvwDazAxlfBjgIgLoP9AU6sL0DcSA1FEp9CBzXixBXAbDRgLov2IG0LwPKhwAnAbDAjBGnSAcG7+gw4o85ow6nFSH1Q4C5AHf1WoJHsqHzCHegLXHg2X255MuA4UOgZxH7T4DcwjexwAz0ZXLgiP4hMP559o9GXPLGqfi9U3omRpySOjCkquPIg+TLgPYhsHl7grkA5NzbpxyPZAP6cjiwqt3QXR1HHew05lifiSc9wOxFgKqj32CBGejL4kBv4sDujqMOHTt+hZMA5JS8fgobDRhxSpL7ele+uvmcN5I9CmDlADYaQL+YjJxe4xlj7wKQU330G/X7ABaYgb6Y/Ffn+aXrT/hh2JcA2nlp9+lOY9/4WY9FGHEifHJn7pzWeeXDi3f5pzcAAXBwwnsgAA4EwMGBADg4EAAHBwLg4EAAHBwIgIMDAXBwIAAODgTAwYEAODgQAAcHAuDgQAAcHAiAgxPS8/9/EwF6k/xuVgAAAABJRU5ErkJggg==;" vertex="1" parent="1">
          <mxGeometry x="48.5" y="87" width="43" height="43" as="geometry" />
        </mxCell>
        <mxCell id="M1dlDY-dCehF3eleabuK-24" value="" style="shape=image;verticalLabelPosition=bottom;labelBackgroundColor=default;verticalAlign=top;aspect=fixed;imageAspect=0;image=data:image/png,iVBORw0KGgoAAAANSUhEUgAAAQAAAAEACAIAAADTED8xAAAZq0lEQVR42u2d6XsV5d3H/ReKStU+2lbAIi5Pn7bKlrAKJAgGlUVWWQMBgZQdAREIJCFAWK2CGyCQAEHKJgUqFlywdUHQim2REwGFBEPgTa8+b57nnplzJnPmzMy5Z7mXmfne1/eVb3pd5fO5z/f88jszt/wfDk6Mzy34vwAHAuDgQAAcHAiAgwMBcHAgAA4OBMDBgQA4OBAABwcC4OBAABwcCICDAwFwcCAADg4EwMGJrQB7av896dSNRw7Ut367DkGMuV9Nmz3JPGDIg2oeqknm4VT+m2S3kl8nc/V/UvnNrmQ6762b9kHjvgv/FizAx/X/2+1PP+KfGbFDX6c/E/0H7dHX6W9CP0X/b1P5nZq+B699UvcfMQKQix//zEhW9NvYo/+QEX2biz8TfZ3+R3Yms9/HR8EtoB8RiD5N58lEX6f/0VQOeHXgFm/NB//YCNu6b9N5jBe/hn7bVD69+h9OAqD3IwHU/Rp3dT8T/Sb6q6+2q77ab/81HgKg/CAC6/6jGRd/u+pk2ld7KUKuBZh06gb+4ZHWWdHfw6rut02/+DX0tcx+v5G5AJj3I1k7DwX6dX7qvo6+Tn8HNT1r6pgLgH9+oO+z8/iv+6aLX6O/Y5USCICEYMTpv+4b0e9QlaQfAiBh2mjwU/cz0c9RAwGQ8G00eKj7RvR1+nMhABKWEaf/um9EX6M/dwcEQMK80eCq7pvQJ+kEAZCwbzS0dYt+VRL9ThAAicBGA2XnyUS/sxoIgIR+o4Gy85jQhwBIKOt+W69134R+F5LtEAAJYd2nHHHaXfwa+iRdIQASvbqfQ4e+misQAIlg3bfuPGnoX+22/Uo3CICEa4GZHn3ni79bKhAACXij4dciNhroO4+OfvdtSiAAErIFZvoRpx36Ov2PQQAkdAvM9CPOLul134i+Rj8EQMK3wOyz8+jok/SAAIi8C8zVAdd9E/o9IADQF7zAvJNr3Teh3/MtJRAA6Idsgdlz3TehDwFQ90O5wOyn8xjR76UGAqDuh2yB2XPdN6FPkgcB0Hl09Nv/sX7SyR9f/fL6idrGm1aH/PfXv2yYcuJap711AheYLTcaaOq+CX0lWyEA0K+pG/Hutepz179vuEl5fmi4sevc9TF/rhe70eC27pvQz1cDAWJd9586cu0vNvc9zTmZaHzmcL0MGw00dV+nP39rUyBAfC9+0nZuBnHePNvAc4HZc903XvwkvdVAgDii3/NQ/WeXb9wM7nx+ufGJ/XWMFpi7BFT3TeiTPA4BYrjATGoPfd2nP+SLwZDD9RwWmF3X/fTOo6OvZAsEiNmIkxH9ugND36nnX/cdLv58m4ufoN9HDQSI0Z91SfNhR7/uQL99dfw3Gug7D0Ffpx8CxGujIdjeb3dOX27kvNFAi/7WNPT7qoEAcdloeC2gmQ/N2XKmgfNGQy+Kut8ng/4nIEBMNhr6H7l2k+8Zfqiec93Py1b3jegr9G9WAgFiscB8wsdfu7ydDxKNstX9voaLX6O/AALEYYF55Lu8r3/tTDxSz2KB2Q79/Gx134R+AQSIyQLzznPXhQjw9t+vc677vR3rvgl9kn4QIPILzDl7639ouCFEAPK/y7/uP25f959IR78fBIjD7xWnnBDTf7Qz+/i1wBeYPdd9E/pPvqkEAoQQfTc/2nr9ywaBAmz7ooFz3e9DjT7JUxAgdJ3H7e8VTyYaBQrw4YVG/nW/r03dN9L/VDI/QIDwdR5Xv1e8Kfrwrvt0Fz9Bn+RpCBD5R7IJFyD4ur81GPSVvAEBovhINuNPdWUQgL7z5HndaLDrPJno6/T3f0MJBIj4E5iFCxD4ArPnum+8+DX6B0CAyD+STbgA8tR9I/oa/RAgso9k03+lLoMArkac7Oq+CX2SgRAgwk9g1n6oLlyAwBeY6er+lcy6b0Rfo3/g6xAg0k9gJnlf6N8BPrrQGPhGg+e6b0KfZBAECHvdz/pIts1nRf4leMfpBnnqvgn9QRAg8k9gblt9ddp7IneB5h+rD3yB2Tv6b6Sh/4waCBDxJzA/tqdO1DbolR9vMBpxeqv7JvQhQFyewFzztZjfA+z7qoHFArPnum9CfzDJaxAgQnXf7pFsE47WCxFg+uF6wXXf5uLX0CcZAgF4PpJN4DulP+A+Czp1odH/AnNBVvTf9I7+EAggzQIz83dKDz/E+0OgaF8d640Gt3XfhP5QNRBAcOfh9sKVrWf4zUOrTjcIH3E+Y3/xDzUEAki3wMzuhStfXOJRhM5ebOS/0UDfeXT0h72qBALIvtEQ4AtXBuxlPhK98uONETVXmS4wB4U+yXAIEIqNhgBfuDLqIMOHRBD6J+6rY73ATNV5bNDX6R+eCgSI3TulRx+ov8LAAZ1+IRsNNHXfePFrGQEB4vlO6UF764L9PkB6/7M1VyWv+yb0R0CAmL9TetsXwcyFqk839Oa4wDzITefJRF+n/9lNSiBArN8pPXZ/3UcXvH8UnPq2kdQezgvMlugPpqj7xotfo38kBAjRRoPvd0rbPoG5+HD9vq8aSImnr/v7v2qY8U69VHWfsvNo6Gv0QwAZF5gFvlN6/rH6HacbTtl8JpD7vup0w8Jj9YE8ko1/3TehTzIKAkhY96V9p7QkC8z0I87h9uhr9EMAho9kY1T3cyR44Yq3BeYnA1pgph9xOlz8Sjb+MHpjvAUIad0X9U5pSRaYfXYeHf3RMReAcoH5vvVnfrn4vXtmHrhj9BY9d47eQv7LvYuO37/uC9nqflehT2DmsMBMP+K0QH9TE/pjlHwfRwFoRpwtV33ys6l7bu235ie9K6yyXM+tBavvnlLTesXfQlH35XkkG6O6bxxx2l38Gvpa4iUATee5t+zD2wb+wYb7NPR/kp+W2we89KtlH/Cp+/K8ZI7/ArPPzqOjP5bkldgIQIN+643nmg97zQP6xtwx9NWHX/6az0YD53dKh73up6Gv0j8uJgLQjDhJ0bdHv4IG/VTKSe5beJzbRgO3d0oHssA8gH3dH2lT940X/7hUIi4A5UYDqfs+L34dfT0/n1zjVPerRdb9PKF1f6Cguq+hb6S/MMICUI44H9hx6a6iqmDR19Isv/ye8Tse3XoRdZ/DRgNN3TehXxhVAein+4R+m9K/3G3nyaRfy51DNrXdelFI3Zf8kWyM0f8hs+6b6B+vJmoC0G80PJiVfn/oN8tL5s4hG4kDstX98C4we677xotfof9lJdERwNUCsw39fjuPCf1meWVa7hqysd2Wi7LVfWGPZHvN+4jTT903oT9BTRQEcLvRQOj/qZn+gNDPN6NvdKD9losu6/5V1H0/I0479HX6i8IugIdlHif68wO++DMd6LDlYrALzDzfKS1R3d/kpe4b0dfoD7cAHh7J9pCZfladx8GBjpsvhmKBmfUj2TyPOD3XfRP6JBP/EE4BvC0wp9PPG/1USu8a8krO5otZR5wSvlNakgVmz3U/DX2V/vAJ4GeB+Y7RW9jUfRf0a/nFuG2cFphjs9Fggf4r5rpvQp9kUrgE8POjrbuTf+vlVPft0G/WK5kWE3cHs8AsaKNhoNCNBm9134T+pBAJ4POd0ir9wjqPCX09LSfuxgKz5xGnh7pvQv85NbIL4P9HW2n0sxlxZkHfiv6UA7uiOuIcynejgabum9BX8pLEAgTyjIa7p9aIrft26KtZRkIcwAKzh40GD3XfhP5kNZIKEMgzGpL058vSeTLp19Jq4i6hC8xXwrXA7Lnum9AnmSKhAEE9gZmOfjbo59Gib3QgpAvMg7kvMHuu+yRG9KfIJkCAz2hQ6Oda98s8o9/kQNEubDQwrfsm9EmmSiJAsI9ku3tKjXydxwn9Zj2TaVW0EwvMrkacrur+5HT0lWyQQIBgH8mWjX7Bdd8O/WY9l2q5r2hn6BaYvT2SbTT7Eacz+sVqRAoQ+BOYHemXpe7boa/nV0U75XyntCQLzJ7rvk5/8YamiBGAxSPZ7OmXru7boX9rKsSByD+SzfMCs+e6b7z4SX6vhrcA97N5p/Q93ugXV/cd6NcdCHiB2c1Gw6BNl59em3h6jZL+agZvvBzsI9mC3Wig7zw6+iTTOAsQxDulLZ7AbEO/7HXfDn01JSStJ1TzXGAe8PKlgrJ/5c09+1jx590nf5oZ8t/z5559svRfg1+6JHCBmb7zZKJfbEBfyXpeArB7ArMV/aGp+3boJ9Mj6QDrBeZ+K873mnXGEnq75M068/Ty85KMOCnrvvHiJ+iTTOcgANN3SmfQL2yjwW3dz0J/j6bcP6GaXd1/svJCz+nkvv/EFf16ek4/PXDlBc4LzPQjTmf01VzmIUCw75T+rTf6w9B5TOg3OTC+OvAF5oGbLvee/6WKvp5PvaXPvK9GvHyZ2wKzd/TT6Z+x/vIMDgJ4W2DO+taJdPoji34qS4gDAS4w99/wXeri/yQQB3pNPz107XcCR5xT7TvPNKuLX6N/Jh8BAn+ntIF+3gvM7Oq+A/1a2oyvDmSjof/62u5TP+323N+6kwTnQI/iz4et/U7URgN955lhoH/mOvYCBP6SuRT95eEdcdJf/KYQB3xO9wsq/knQ1xOsAySDys9LW/dN6JPM4iOA57qf+aYtB/oj1nns0qaw2vNGg0L/pL8qYeyAhxEnh7qfRN9APw8BAnzJ3D2Ta6I04nSL/q2PJdOmsMrDRkPB8n90nXiq26SPOTjwTNl5zhsNWS/+TPRJZnMQIKiXzFnSL/lGQ4AXf4r+xVoeKKxytcDcT6H/IyIATwdkq/sm9GdzE8D/O6Wz0B/Fup958ev06w5QLvP0K/9Hl6IPVAGMDnzM2oHBZeddjTiDq/vf06BPMmctewH8v1M6k/6Y1H079PU8qDrgvMBcUPZNlwknu0x43+DAR1wdCHqBmX7EaaLfhL4W5gL4fKf0z9Ppj1bdL/GMvtEBhwXmgrJzncef6DL+pOZA16IP+TswpOw857rvfPHr6JPM5SGAj3dKG+mXs+43Y1/3s2XRg4U7LBeYC0q/7lx4vHPhe9kcYP59YHjFt5Sdh2ndN6E/l48Abuu+/n5Fa/rj3XlM6CfTfdFD43aYdvcHrP2284T3Oo17VwYHehR/NqaylseIc132zqOj/7waHgK46jwm+oG+M/pabuu+6OFxO/SfrfRf822nwmO5Y4/mjj2WzQFOc6EeUxUH2G000Fz8JvSVrGEvgFv0dfpR9ynR10McIPQ/vfqfOWMP54w+nDvmSO6YpAOdxpkdUL4TJzXgNBciDoytrM3aeYpZdh4j+vPUMBeAsu7r75Qm9Id9gZnPxX+bRV5sM/zNtoO3txtW03HkATcOfMTPgVW1LDYa6DuPjj7JfB4COF78ptepp9GPzkN38ev0a2lRsOGRgVvaD9uTM/KgyYHMLsR/NkocGLeqNvCNhtl0nceI/nw+AmTtPPrr1H+h0w/0PaGf6UDm54AM34l7Tv2sUHWAXd136DzzDVnAR4DfOXYeG/qjWPfdjzjdot/kwBOKA5ZdSBIHxq+qZT3itOw8OvpKVrMXwLnzkLSrTtEfy40Gr3Xfnv5uyVg4INNciDgwYWVtUBsN9J1HR/8FNTwEsOs8batT9KPz+Os8JvRv67ZQi8PngAxzIc0BRnXfrvOQvLC6KcwFsL74VfQV+p+ricMCM0f0m+hPd2C3nHMh4kDRylpGdd/h4idZqIa5AJadR8svk/THYoGZXd23Q9/75wDfuRBxYOLKWg5134Q+yYt8BGibcfG3d01/XOq+z87j7ADlbJT/zhxxYNLKROB137Lz6OgrqWQvgAl9A/2o+0w6j1VeIGnxxHrJZ6PPrUwEXvftLn6CPskiHgKko6/SvxsbDUw7jwl9JV2VtOi7XvLZ6HMrEuzqvgn9RXwEMKLvhf6objTwRV+PgwOSfCcmDgRY9zM7j07/YjXMBdDR70BLPzqPT/QXWqKf4cDuDn4cMGgQuAOTVQeCqvuWF/9ingJ0oKUf6AdT9x3oV7OgRd91ks9Gp1QkAq/7JvSXkKxiLwAd/aj7rDqPCX09mgPS7swRB6ZWJAKp+y9moL9YRV8LewGqqOmP40aDAPS13N51Qcu+6x4d9Fb74W9LOxstrkgEUvczL36SEjXMBXCkH52Hbd23Qz+ZLikHJJ6NFi9PBFX3lxgufpX+S0tXXWIugFzo94xd3bdDP5X5LZPfB+SdC/1+ecJn3V+cgb5GvxABSvluNJREZqPBf+cxoa8n5YC8cyHiQBb0V2ev+yWGi1/LspW8BcACszj0u1qgn+mAtJ8D05YnfNZ9I/oa/TwFQN3n0HkW0HQeu8jfhaaXJzzX/ZIM9ElKuQiABWYBF78r9A0OrJV5Ntpr6mczyhOe674J/VKuAmCBWY66b595Wlr2WetvNvpX1g7MLE/Y1v1Kp7pvQp+kjIcAWGAWNOKkpj+J/u2dk0k6YDUblaELaQ7QjDgd6C9LRaAAqPvCO48ZfaMDTXOhUe9YOfAXgXMh4sCs8oTbum9Cv2zFpfIVYgTARoP4uu9Af8qBNTLPRjUH/KBfLkKAyD6STeYRp1v0b+/8vBbdAWm70OyyhMOIs9SKfh395Wp4CoC6L13dd6Df6IDlXEiG3xMTB+aUJSjrvgl9ngKg7kvTeajRb3Lg8TUy78wRB+aqDtB0HiP6FWo4CBCvR7KFse7boa+kkxIHByTpQnNLE9adZ4XFxa+hX1GhRJAAWGCWrO7boa9mLknSgWE12lwoZ/SfZJsLPV+ayNp5Kgz0r1DDXQDUfcYbDZ7rvh36eogD2WajgudC80oTWTuPjj7JSq4CYIFZ+rpvhz5JczVpDkg5G523LOHQeYzor+QqADYa+G40+Og81ug3z3BA2tno/GUJy7pvQp9kFQ8B4r7AvDB0dd8OfTVzSFo+vlrynbkFqgMOF/8qLcs5CYARZ8jq/u026CvJVUIckHwuRBxwRp+kkosAWGCWcsTpFX09KQf2dCQO2MyFFA3EfR94YWkis/Po6FdyFgB1P3R134H+NAdSs1EJd+YWLk3Yob9aDScBsNHAt/MEVvft0Fczm0T7PiDzXOjFpQkT/asNYS4A6n5YRpxu0dejOyDtXIg4UJlB/xqSct4CYIFZ8ro/Nxv6ZvrTHaiR1oFFSxMm9LXwFAAbDSEYcdJf/E3JUdKyd6W7vdFsDnQL1IG8qZ8tVh3Q0V+rho8AqPsSjTiDRD9Ff/OcWSTEgWDnQsE7UJLQ0ecmAOp+qOv+HBr09QTuQPegHVhSktDQX6eGiwAYcco84vSOvpl+La0eT3NAttkocaCkJKHRv76MgwB4JFuU6n6uE/rmzwHt7wPyzUaJA0uXJAj9ogTAAnPo675jZpK07L1K5tmo5sAG7gKg7ken7jvQ37yjEtWBzeRzwDwXGvtn73MhCw28O7BsyQWeAqDuR63uW6Cfop/kpx1ntiIODNpq8Z24yQH3c6FAHeAjABaYI1v37dDXQxyQeTbKQQB0HikWmPmjn8oMGgdEfScWIQA2GgQtMDOp+zlO6OsxOSDPXIi7AKj7QheY2dV9O/TNDkg2G+UoADYaojLidIu+kg5KWuWvfGTgZovdaVdzoUC/E3MRACPOKNT9WTR134F+NdM1B9ore6NSzIXYC4C6L+UCs5/O4w19PYoDlrNREXMhPgJggVnGBWYOnceEvtEBSXbmOAiAuh/Vup+V/ukOMTkgamdOrACo+yHYaPDfeagcEDQXEigARpwh2GhghL75+0DmbJTXXEiIAFhgjuCI0y36aQ7os1HucyHOAuCRbCHeaPBc9ykdEDIb5SYA6n6s67677wMcZ6N8BEDdD80CM3/0xc5GOQgQlhEn6r4w9AXORtkLgAVm1H0Pc6FMBwzfBwKcC/EQABsNYVxg5nnx281GOXwnZi4A6n6ENxrYOsBlLsRZAGw0hKfzCEI/+85coA5wEwAjzviOOGWejXIQAHU/+hsNYh3wMxcSJAA2GlD3A+1CnudC3AXAI9liPOKU8PsARwFQ91H35ZuN8hIAGw2o+/LNRrkIgLofv40GAV3I1VzI8CHATQAsMKPuyzQb5SgANhpQ9+X9TixWANT9uI84hTsgUIDYvVMadV9CB4QIgAVm1P2AZ6M5Xh3gLADqPkacLGajTe8nNn4n7lxo5UBKAM0BbgJgxIm6z3ou9HbmO7pTDjQ9W8X4IUDCRwAsMMdigVmG2aj950DKgfQixEEAbDRgxCng7wNOnwMGB9gLgBEn6r7ALjTW0oGmL8SiBMBGA+o+PwfUoZDqgPaF2OAAfwFQ9zHi5ObAodSXgaN2g1HOAqDuo+7zcuCZt9qP2GtwwOqBuxwFQN1H5+HvwDazAxlfBjgIgLoP9AU6sL0DcSA1FEp9CBzXixBXAbDRgLov2IG0LwPKhwAnAbDAjBGnSAcG7+gw4o85ow6nFSH1Q4C5AHf1WoJHsqHzCHegLXHg2X255MuA4UOgZxH7T4DcwjexwAz0ZXLgiP4hMP559o9GXPLGqfi9U3omRpySOjCkquPIg+TLgPYhsHl7grkA5NzbpxyPZAP6cjiwqt3QXR1HHew05lifiSc9wOxFgKqj32CBGejL4kBv4sDujqMOHTt+hZMA5JS8fgobDRhxSpL7ele+uvmcN5I9CmDlADYaQL+YjJxe4xlj7wKQU330G/X7ABaYgb6Y/Ffn+aXrT/hh2JcA2nlp9+lOY9/4WY9FGHEifHJn7pzWeeXDi3f5pzcAAXBwwnsgAA4EwMGBADg4EAAHBwLg4EAAHBwIgIMDAXBwIAAODgTAwYEAODgQAAcHAuDgQAAcHAiAgxPS8/9/EwF6k/xuVgAAAABJRU5ErkJggg==;" vertex="1" parent="1">
          <mxGeometry x="48.5" y="262" width="43" height="43" as="geometry" />
        </mxCell>
        <mxCell id="M1dlDY-dCehF3eleabuK-26" value="..." style="text;html=1;strokeColor=none;fillColor=none;align=center;verticalAlign=middle;whiteSpace=wrap;rounded=0;" vertex="1" parent="1">
          <mxGeometry x="55" y="133.5" width="30" height="30" as="geometry" />
        </mxCell>
        <mxCell id="M1dlDY-dCehF3eleabuK-28" value="t" style="text;html=1;strokeColor=none;fillColor=none;align=center;verticalAlign=middle;whiteSpace=wrap;rounded=0;" vertex="1" parent="1">
          <mxGeometry y="178" width="60" height="30" as="geometry" />
        </mxCell>
        <mxCell id="M1dlDY-dCehF3eleabuK-29" value="t + k" style="text;html=1;strokeColor=none;fillColor=none;align=center;verticalAlign=middle;whiteSpace=wrap;rounded=0;" vertex="1" parent="1">
          <mxGeometry y="136.5" width="60" height="30" as="geometry" />
        </mxCell>
        <mxCell id="M1dlDY-dCehF3eleabuK-30" value="N" style="text;html=1;strokeColor=none;fillColor=none;align=center;verticalAlign=middle;whiteSpace=wrap;rounded=0;" vertex="1" parent="1">
          <mxGeometry y="93.5" width="60" height="30" as="geometry" />
        </mxCell>
        <mxCell id="M1dlDY-dCehF3eleabuK-31" value="0" style="text;html=1;strokeColor=none;fillColor=none;align=center;verticalAlign=middle;whiteSpace=wrap;rounded=0;" vertex="1" parent="1">
          <mxGeometry y="268.5" width="60" height="30" as="geometry" />
        </mxCell>
        <mxCell id="M1dlDY-dCehF3eleabuK-34" value="..." style="text;html=1;strokeColor=none;fillColor=none;align=center;verticalAlign=middle;whiteSpace=wrap;rounded=0;" vertex="1" parent="1">
          <mxGeometry x="55" y="227" width="30" height="30" as="geometry" />
        </mxCell>
        <mxCell id="M1dlDY-dCehF3eleabuK-38" value="t - k" style="text;html=1;strokeColor=none;fillColor=none;align=center;verticalAlign=middle;whiteSpace=wrap;rounded=0;" vertex="1" parent="1">
          <mxGeometry y="230" width="60" height="30" as="geometry" />
        </mxCell>
        <mxCell id="M1dlDY-dCehF3eleabuK-44" value="" style="shape=image;verticalLabelPosition=bottom;labelBackgroundColor=default;verticalAlign=top;aspect=fixed;imageAspect=0;image=data:image/png,iVBORw0KGgoAAAANSUhEUgAAAQAAAAEACAIAAADTED8xAAAZq0lEQVR42u2d6XsV5d3H/ReKStU+2lbAIi5Pn7bKlrAKJAgGlUVWWQMBgZQdAREIJCFAWK2CGyCQAEHKJgUqFlywdUHQim2REwGFBEPgTa8+b57nnplzJnPmzMy5Z7mXmfne1/eVb3pd5fO5z/f88jszt/wfDk6Mzy34vwAHAuDgQAAcHAiAgwMBcHAgAA4OBMDBgQA4OBAABwcC4OBAABwcCICDAwFwcCAADg4EwMGJrQB7av896dSNRw7Ut367DkGMuV9Nmz3JPGDIg2oeqknm4VT+m2S3kl8nc/V/UvnNrmQ6762b9kHjvgv/FizAx/X/2+1PP+KfGbFDX6c/E/0H7dHX6W9CP0X/b1P5nZq+B699UvcfMQKQix//zEhW9NvYo/+QEX2biz8TfZ3+R3Yms9/HR8EtoB8RiD5N58lEX6f/0VQOeHXgFm/NB//YCNu6b9N5jBe/hn7bVD69+h9OAqD3IwHU/Rp3dT8T/Sb6q6+2q77ab/81HgKg/CAC6/6jGRd/u+pk2ld7KUKuBZh06gb+4ZHWWdHfw6rut02/+DX0tcx+v5G5AJj3I1k7DwX6dX7qvo6+Tn8HNT1r6pgLgH9+oO+z8/iv+6aLX6O/Y5USCICEYMTpv+4b0e9QlaQfAiBh2mjwU/cz0c9RAwGQ8G00eKj7RvR1+nMhABKWEaf/um9EX6M/dwcEQMK80eCq7pvQJ+kEAZCwbzS0dYt+VRL9ThAAicBGA2XnyUS/sxoIgIR+o4Gy85jQhwBIKOt+W69134R+F5LtEAAJYd2nHHHaXfwa+iRdIQASvbqfQ4e+misQAIlg3bfuPGnoX+22/Uo3CICEa4GZHn3ni79bKhAACXij4dciNhroO4+OfvdtSiAAErIFZvoRpx36Ov2PQQAkdAvM9CPOLul134i+Rj8EQMK3wOyz8+jok/SAAIi8C8zVAdd9E/o9IADQF7zAvJNr3Teh3/MtJRAA6Idsgdlz3TehDwFQ90O5wOyn8xjR76UGAqDuh2yB2XPdN6FPkgcB0Hl09Nv/sX7SyR9f/fL6idrGm1aH/PfXv2yYcuJap711AheYLTcaaOq+CX0lWyEA0K+pG/Hutepz179vuEl5fmi4sevc9TF/rhe70eC27pvQz1cDAWJd9586cu0vNvc9zTmZaHzmcL0MGw00dV+nP39rUyBAfC9+0nZuBnHePNvAc4HZc903XvwkvdVAgDii3/NQ/WeXb9wM7nx+ufGJ/XWMFpi7BFT3TeiTPA4BYrjATGoPfd2nP+SLwZDD9RwWmF3X/fTOo6OvZAsEiNmIkxH9ugND36nnX/cdLv58m4ufoN9HDQSI0Z91SfNhR7/uQL99dfw3Gug7D0Ffpx8CxGujIdjeb3dOX27kvNFAi/7WNPT7qoEAcdloeC2gmQ/N2XKmgfNGQy+Kut8ng/4nIEBMNhr6H7l2k+8Zfqiec93Py1b3jegr9G9WAgFiscB8wsdfu7ydDxKNstX9voaLX6O/AALEYYF55Lu8r3/tTDxSz2KB2Q79/Gx134R+AQSIyQLzznPXhQjw9t+vc677vR3rvgl9kn4QIPILzDl7639ouCFEAPK/y7/uP25f959IR78fBIjD7xWnnBDTf7Qz+/i1wBeYPdd9E/pPvqkEAoQQfTc/2nr9ywaBAmz7ooFz3e9DjT7JUxAgdJ3H7e8VTyYaBQrw4YVG/nW/r03dN9L/VDI/QIDwdR5Xv1e8Kfrwrvt0Fz9Bn+RpCBD5R7IJFyD4ur81GPSVvAEBovhINuNPdWUQgL7z5HndaLDrPJno6/T3f0MJBIj4E5iFCxD4ArPnum+8+DX6B0CAyD+STbgA8tR9I/oa/RAgso9k03+lLoMArkac7Oq+CX2SgRAgwk9g1n6oLlyAwBeY6er+lcy6b0Rfo3/g6xAg0k9gJnlf6N8BPrrQGPhGg+e6b0KfZBAECHvdz/pIts1nRf4leMfpBnnqvgn9QRAg8k9gblt9ddp7IneB5h+rD3yB2Tv6b6Sh/4waCBDxJzA/tqdO1DbolR9vMBpxeqv7JvQhQFyewFzztZjfA+z7qoHFArPnum9CfzDJaxAgQnXf7pFsE47WCxFg+uF6wXXf5uLX0CcZAgF4PpJN4DulP+A+Czp1odH/AnNBVvTf9I7+EAggzQIz83dKDz/E+0OgaF8d640Gt3XfhP5QNRBAcOfh9sKVrWf4zUOrTjcIH3E+Y3/xDzUEAki3wMzuhStfXOJRhM5ebOS/0UDfeXT0h72qBALIvtEQ4AtXBuxlPhK98uONETVXmS4wB4U+yXAIEIqNhgBfuDLqIMOHRBD6J+6rY73ATNV5bNDX6R+eCgSI3TulRx+ov8LAAZ1+IRsNNHXfePFrGQEB4vlO6UF764L9PkB6/7M1VyWv+yb0R0CAmL9TetsXwcyFqk839Oa4wDzITefJRF+n/9lNSiBArN8pPXZ/3UcXvH8UnPq2kdQezgvMlugPpqj7xotfo38kBAjRRoPvd0rbPoG5+HD9vq8aSImnr/v7v2qY8U69VHWfsvNo6Gv0QwAZF5gFvlN6/rH6HacbTtl8JpD7vup0w8Jj9YE8ko1/3TehTzIKAkhY96V9p7QkC8z0I87h9uhr9EMAho9kY1T3cyR44Yq3BeYnA1pgph9xOlz8Sjb+MHpjvAUIad0X9U5pSRaYfXYeHf3RMReAcoH5vvVnfrn4vXtmHrhj9BY9d47eQv7LvYuO37/uC9nqflehT2DmsMBMP+K0QH9TE/pjlHwfRwFoRpwtV33ys6l7bu235ie9K6yyXM+tBavvnlLTesXfQlH35XkkG6O6bxxx2l38Gvpa4iUATee5t+zD2wb+wYb7NPR/kp+W2we89KtlH/Cp+/K8ZI7/ArPPzqOjP5bkldgIQIN+643nmg97zQP6xtwx9NWHX/6az0YD53dKh73up6Gv0j8uJgLQjDhJ0bdHv4IG/VTKSe5beJzbRgO3d0oHssA8gH3dH2lT940X/7hUIi4A5UYDqfs+L34dfT0/n1zjVPerRdb9PKF1f6Cguq+hb6S/MMICUI44H9hx6a6iqmDR19Isv/ye8Tse3XoRdZ/DRgNN3TehXxhVAein+4R+m9K/3G3nyaRfy51DNrXdelFI3Zf8kWyM0f8hs+6b6B+vJmoC0G80PJiVfn/oN8tL5s4hG4kDstX98C4we677xotfof9lJdERwNUCsw39fjuPCf1meWVa7hqysd2Wi7LVfWGPZHvN+4jTT903oT9BTRQEcLvRQOj/qZn+gNDPN6NvdKD9losu6/5V1H0/I0479HX6i8IugIdlHif68wO++DMd6LDlYrALzDzfKS1R3d/kpe4b0dfoD7cAHh7J9pCZfladx8GBjpsvhmKBmfUj2TyPOD3XfRP6JBP/EE4BvC0wp9PPG/1USu8a8krO5otZR5wSvlNakgVmz3U/DX2V/vAJ4GeB+Y7RW9jUfRf0a/nFuG2cFphjs9Fggf4r5rpvQp9kUrgE8POjrbuTf+vlVPft0G/WK5kWE3cHs8AsaKNhoNCNBm9134T+pBAJ4POd0ir9wjqPCX09LSfuxgKz5xGnh7pvQv85NbIL4P9HW2n0sxlxZkHfiv6UA7uiOuIcynejgabum9BX8pLEAgTyjIa7p9aIrft26KtZRkIcwAKzh40GD3XfhP5kNZIKEMgzGpL058vSeTLp19Jq4i6hC8xXwrXA7Lnum9AnmSKhAEE9gZmOfjbo59Gib3QgpAvMg7kvMHuu+yRG9KfIJkCAz2hQ6Oda98s8o9/kQNEubDQwrfsm9EmmSiJAsI9ku3tKjXydxwn9Zj2TaVW0EwvMrkacrur+5HT0lWyQQIBgH8mWjX7Bdd8O/WY9l2q5r2hn6BaYvT2SbTT7Eacz+sVqRAoQ+BOYHemXpe7boa/nV0U75XyntCQLzJ7rvk5/8YamiBGAxSPZ7OmXru7boX9rKsSByD+SzfMCs+e6b7z4SX6vhrcA97N5p/Q93ugXV/cd6NcdCHiB2c1Gw6BNl59em3h6jZL+agZvvBzsI9mC3Wig7zw6+iTTOAsQxDulLZ7AbEO/7HXfDn01JSStJ1TzXGAe8PKlgrJ/5c09+1jx590nf5oZ8t/z5559svRfg1+6JHCBmb7zZKJfbEBfyXpeArB7ArMV/aGp+3boJ9Mj6QDrBeZ+K873mnXGEnq75M068/Ty85KMOCnrvvHiJ+iTTOcgANN3SmfQL2yjwW3dz0J/j6bcP6GaXd1/svJCz+nkvv/EFf16ek4/PXDlBc4LzPQjTmf01VzmIUCw75T+rTf6w9B5TOg3OTC+OvAF5oGbLvee/6WKvp5PvaXPvK9GvHyZ2wKzd/TT6Z+x/vIMDgJ4W2DO+taJdPoji34qS4gDAS4w99/wXeri/yQQB3pNPz107XcCR5xT7TvPNKuLX6N/Jh8BAn+ntIF+3gvM7Oq+A/1a2oyvDmSjof/62u5TP+323N+6kwTnQI/iz4et/U7URgN955lhoH/mOvYCBP6SuRT95eEdcdJf/KYQB3xO9wsq/knQ1xOsAySDys9LW/dN6JPM4iOA57qf+aYtB/oj1nns0qaw2vNGg0L/pL8qYeyAhxEnh7qfRN9APw8BAnzJ3D2Ta6I04nSL/q2PJdOmsMrDRkPB8n90nXiq26SPOTjwTNl5zhsNWS/+TPRJZnMQIKiXzFnSL/lGQ4AXf4r+xVoeKKxytcDcT6H/IyIATwdkq/sm9GdzE8D/O6Wz0B/Fup958ev06w5QLvP0K/9Hl6IPVAGMDnzM2oHBZeddjTiDq/vf06BPMmctewH8v1M6k/6Y1H079PU8qDrgvMBcUPZNlwknu0x43+DAR1wdCHqBmX7EaaLfhL4W5gL4fKf0z9Ppj1bdL/GMvtEBhwXmgrJzncef6DL+pOZA16IP+TswpOw857rvfPHr6JPM5SGAj3dKG+mXs+43Y1/3s2XRg4U7LBeYC0q/7lx4vHPhe9kcYP59YHjFt5Sdh2ndN6E/l48Abuu+/n5Fa/rj3XlM6CfTfdFD43aYdvcHrP2284T3Oo17VwYHehR/NqaylseIc132zqOj/7waHgK46jwm+oG+M/pabuu+6OFxO/SfrfRf822nwmO5Y4/mjj2WzQFOc6EeUxUH2G000Fz8JvSVrGEvgFv0dfpR9ynR10McIPQ/vfqfOWMP54w+nDvmSO6YpAOdxpkdUL4TJzXgNBciDoytrM3aeYpZdh4j+vPUMBeAsu7r75Qm9Id9gZnPxX+bRV5sM/zNtoO3txtW03HkATcOfMTPgVW1LDYa6DuPjj7JfB4COF78ptepp9GPzkN38ev0a2lRsOGRgVvaD9uTM/KgyYHMLsR/NkocGLeqNvCNhtl0nceI/nw+AmTtPPrr1H+h0w/0PaGf6UDm54AM34l7Tv2sUHWAXd136DzzDVnAR4DfOXYeG/qjWPfdjzjdot/kwBOKA5ZdSBIHxq+qZT3itOw8OvpKVrMXwLnzkLSrTtEfy40Gr3Xfnv5uyVg4INNciDgwYWVtUBsN9J1HR/8FNTwEsOs8batT9KPz+Os8JvRv67ZQi8PngAxzIc0BRnXfrvOQvLC6KcwFsL74VfQV+p+ricMCM0f0m+hPd2C3nHMh4kDRylpGdd/h4idZqIa5AJadR8svk/THYoGZXd23Q9/75wDfuRBxYOLKWg5134Q+yYt8BGibcfG3d01/XOq+z87j7ADlbJT/zhxxYNLKROB137Lz6OgrqWQvgAl9A/2o+0w6j1VeIGnxxHrJZ6PPrUwEXvftLn6CPskiHgKko6/SvxsbDUw7jwl9JV2VtOi7XvLZ6HMrEuzqvgn9RXwEMKLvhf6objTwRV+PgwOSfCcmDgRY9zM7j07/YjXMBdDR70BLPzqPT/QXWqKf4cDuDn4cMGgQuAOTVQeCqvuWF/9ingJ0oKUf6AdT9x3oV7OgRd91ks9Gp1QkAq/7JvSXkKxiLwAd/aj7rDqPCX09mgPS7swRB6ZWJAKp+y9moL9YRV8LewGqqOmP40aDAPS13N51Qcu+6x4d9Fb74W9LOxstrkgEUvczL36SEjXMBXCkH52Hbd23Qz+ZLikHJJ6NFi9PBFX3lxgufpX+S0tXXWIugFzo94xd3bdDP5X5LZPfB+SdC/1+ecJn3V+cgb5GvxABSvluNJREZqPBf+cxoa8n5YC8cyHiQBb0V2ev+yWGi1/LspW8BcACszj0u1qgn+mAtJ8D05YnfNZ9I/oa/TwFQN3n0HkW0HQeu8jfhaaXJzzX/ZIM9ElKuQiABWYBF78r9A0OrJV5Ntpr6mczyhOe674J/VKuAmCBWY66b595Wlr2WetvNvpX1g7MLE/Y1v1Kp7pvQp+kjIcAWGAWNOKkpj+J/u2dk0k6YDUblaELaQ7QjDgd6C9LRaAAqPvCO48ZfaMDTXOhUe9YOfAXgXMh4sCs8oTbum9Cv2zFpfIVYgTARoP4uu9Af8qBNTLPRjUH/KBfLkKAyD6STeYRp1v0b+/8vBbdAWm70OyyhMOIs9SKfh395Wp4CoC6L13dd6Df6IDlXEiG3xMTB+aUJSjrvgl9ngKg7kvTeajRb3Lg8TUy78wRB+aqDtB0HiP6FWo4CBCvR7KFse7boa+kkxIHByTpQnNLE9adZ4XFxa+hX1GhRJAAWGCWrO7boa9mLknSgWE12lwoZ/SfZJsLPV+ayNp5Kgz0r1DDXQDUfcYbDZ7rvh36eogD2WajgudC80oTWTuPjj7JSq4CYIFZ+rpvhz5JczVpDkg5G523LOHQeYzor+QqADYa+G40+Og81ug3z3BA2tno/GUJy7pvQp9kFQ8B4r7AvDB0dd8OfTVzSFo+vlrynbkFqgMOF/8qLcs5CYARZ8jq/u026CvJVUIckHwuRBxwRp+kkosAWGCWcsTpFX09KQf2dCQO2MyFFA3EfR94YWkis/Po6FdyFgB1P3R134H+NAdSs1EJd+YWLk3Yob9aDScBsNHAt/MEVvft0Fczm0T7PiDzXOjFpQkT/asNYS4A6n5YRpxu0dejOyDtXIg4UJlB/xqSct4CYIFZ8ro/Nxv6ZvrTHaiR1oFFSxMm9LXwFAAbDSEYcdJf/E3JUdKyd6W7vdFsDnQL1IG8qZ8tVh3Q0V+rho8AqPsSjTiDRD9Ff/OcWSTEgWDnQsE7UJLQ0ecmAOp+qOv+HBr09QTuQPegHVhSktDQX6eGiwAYcco84vSOvpl+La0eT3NAttkocaCkJKHRv76MgwB4JFuU6n6uE/rmzwHt7wPyzUaJA0uXJAj9ogTAAnPo675jZpK07L1K5tmo5sAG7gKg7ken7jvQ37yjEtWBzeRzwDwXGvtn73MhCw28O7BsyQWeAqDuR63uW6Cfop/kpx1ntiIODNpq8Z24yQH3c6FAHeAjABaYI1v37dDXQxyQeTbKQQB0HikWmPmjn8oMGgdEfScWIQA2GgQtMDOp+zlO6OsxOSDPXIi7AKj7QheY2dV9O/TNDkg2G+UoADYaojLidIu+kg5KWuWvfGTgZovdaVdzoUC/E3MRACPOKNT9WTR134F+NdM1B9ore6NSzIXYC4C6L+UCs5/O4w19PYoDlrNREXMhPgJggVnGBWYOnceEvtEBSXbmOAiAuh/Vup+V/ukOMTkgamdOrACo+yHYaPDfeagcEDQXEigARpwh2GhghL75+0DmbJTXXEiIAFhgjuCI0y36aQ7os1HucyHOAuCRbCHeaPBc9ykdEDIb5SYA6n6s67677wMcZ6N8BEDdD80CM3/0xc5GOQgQlhEn6r4w9AXORtkLgAVm1H0Pc6FMBwzfBwKcC/EQABsNYVxg5nnx281GOXwnZi4A6n6ENxrYOsBlLsRZAGw0hKfzCEI/+85coA5wEwAjzviOOGWejXIQAHU/+hsNYh3wMxcSJAA2GlD3A+1CnudC3AXAI9liPOKU8PsARwFQ91H35ZuN8hIAGw2o+/LNRrkIgLofv40GAV3I1VzI8CHATQAsMKPuyzQb5SgANhpQ9+X9TixWANT9uI84hTsgUIDYvVMadV9CB4QIgAVm1P2AZ6M5Xh3gLADqPkacLGajTe8nNn4n7lxo5UBKAM0BbgJgxIm6z3ou9HbmO7pTDjQ9W8X4IUDCRwAsMMdigVmG2aj950DKgfQixEEAbDRgxCng7wNOnwMGB9gLgBEn6r7ALjTW0oGmL8SiBMBGA+o+PwfUoZDqgPaF2OAAfwFQ9zHi5ObAodSXgaN2g1HOAqDuo+7zcuCZt9qP2GtwwOqBuxwFQN1H5+HvwDazAxlfBjgIgLoP9AU6sL0DcSA1FEp9CBzXixBXAbDRgLov2IG0LwPKhwAnAbDAjBGnSAcG7+gw4o85ow6nFSH1Q4C5AHf1WoJHsqHzCHegLXHg2X255MuA4UOgZxH7T4DcwjexwAz0ZXLgiP4hMP559o9GXPLGqfi9U3omRpySOjCkquPIg+TLgPYhsHl7grkA5NzbpxyPZAP6cjiwqt3QXR1HHew05lifiSc9wOxFgKqj32CBGejL4kBv4sDujqMOHTt+hZMA5JS8fgobDRhxSpL7ele+uvmcN5I9CmDlADYaQL+YjJxe4xlj7wKQU330G/X7ABaYgb6Y/Ffn+aXrT/hh2JcA2nlp9+lOY9/4WY9FGHEifHJn7pzWeeXDi3f5pzcAAXBwwnsgAA4EwMGBADg4EAAHBwLg4EAAHBwIgIMDAXBwIAAODgTAwYEAODgQAAcHAuDgQAAcHAiAgxPS8/9/EwF6k/xuVgAAAABJRU5ErkJggg==;" vertex="1" parent="1">
          <mxGeometry x="158.5" y="118.25" width="43" height="43" as="geometry" />
        </mxCell>
        <mxCell id="M1dlDY-dCehF3eleabuK-45" value="" style="shape=image;verticalLabelPosition=bottom;labelBackgroundColor=default;verticalAlign=top;aspect=fixed;imageAspect=0;image=data:image/png,iVBORw0KGgoAAAANSUhEUgAAAQAAAAEACAIAAADTED8xAAAZq0lEQVR42u2d6XsV5d3H/ReKStU+2lbAIi5Pn7bKlrAKJAgGlUVWWQMBgZQdAREIJCFAWK2CGyCQAEHKJgUqFlywdUHQim2REwGFBEPgTa8+b57nnplzJnPmzMy5Z7mXmfne1/eVb3pd5fO5z/f88jszt/wfDk6Mzy34vwAHAuDgQAAcHAiAgwMBcHAgAA4OBMDBgQA4OBAABwcC4OBAABwcCICDAwFwcCAADg4EwMGJrQB7av896dSNRw7Ut367DkGMuV9Nmz3JPGDIg2oeqknm4VT+m2S3kl8nc/V/UvnNrmQ6762b9kHjvgv/FizAx/X/2+1PP+KfGbFDX6c/E/0H7dHX6W9CP0X/b1P5nZq+B699UvcfMQKQix//zEhW9NvYo/+QEX2biz8TfZ3+R3Yms9/HR8EtoB8RiD5N58lEX6f/0VQOeHXgFm/NB//YCNu6b9N5jBe/hn7bVD69+h9OAqD3IwHU/Rp3dT8T/Sb6q6+2q77ab/81HgKg/CAC6/6jGRd/u+pk2ld7KUKuBZh06gb+4ZHWWdHfw6rut02/+DX0tcx+v5G5AJj3I1k7DwX6dX7qvo6+Tn8HNT1r6pgLgH9+oO+z8/iv+6aLX6O/Y5USCICEYMTpv+4b0e9QlaQfAiBh2mjwU/cz0c9RAwGQ8G00eKj7RvR1+nMhABKWEaf/um9EX6M/dwcEQMK80eCq7pvQJ+kEAZCwbzS0dYt+VRL9ThAAicBGA2XnyUS/sxoIgIR+o4Gy85jQhwBIKOt+W69134R+F5LtEAAJYd2nHHHaXfwa+iRdIQASvbqfQ4e+misQAIlg3bfuPGnoX+22/Uo3CICEa4GZHn3ni79bKhAACXij4dciNhroO4+OfvdtSiAAErIFZvoRpx36Ov2PQQAkdAvM9CPOLul134i+Rj8EQMK3wOyz8+jok/SAAIi8C8zVAdd9E/o9IADQF7zAvJNr3Teh3/MtJRAA6Idsgdlz3TehDwFQ90O5wOyn8xjR76UGAqDuh2yB2XPdN6FPkgcB0Hl09Nv/sX7SyR9f/fL6idrGm1aH/PfXv2yYcuJap711AheYLTcaaOq+CX0lWyEA0K+pG/Hutepz179vuEl5fmi4sevc9TF/rhe70eC27pvQz1cDAWJd9586cu0vNvc9zTmZaHzmcL0MGw00dV+nP39rUyBAfC9+0nZuBnHePNvAc4HZc903XvwkvdVAgDii3/NQ/WeXb9wM7nx+ufGJ/XWMFpi7BFT3TeiTPA4BYrjATGoPfd2nP+SLwZDD9RwWmF3X/fTOo6OvZAsEiNmIkxH9ugND36nnX/cdLv58m4ufoN9HDQSI0Z91SfNhR7/uQL99dfw3Gug7D0Ffpx8CxGujIdjeb3dOX27kvNFAi/7WNPT7qoEAcdloeC2gmQ/N2XKmgfNGQy+Kut8ng/4nIEBMNhr6H7l2k+8Zfqiec93Py1b3jegr9G9WAgFiscB8wsdfu7ydDxKNstX9voaLX6O/AALEYYF55Lu8r3/tTDxSz2KB2Q79/Gx134R+AQSIyQLzznPXhQjw9t+vc677vR3rvgl9kn4QIPILzDl7639ouCFEAPK/y7/uP25f959IR78fBIjD7xWnnBDTf7Qz+/i1wBeYPdd9E/pPvqkEAoQQfTc/2nr9ywaBAmz7ooFz3e9DjT7JUxAgdJ3H7e8VTyYaBQrw4YVG/nW/r03dN9L/VDI/QIDwdR5Xv1e8Kfrwrvt0Fz9Bn+RpCBD5R7IJFyD4ur81GPSVvAEBovhINuNPdWUQgL7z5HndaLDrPJno6/T3f0MJBIj4E5iFCxD4ArPnum+8+DX6B0CAyD+STbgA8tR9I/oa/RAgso9k03+lLoMArkac7Oq+CX2SgRAgwk9g1n6oLlyAwBeY6er+lcy6b0Rfo3/g6xAg0k9gJnlf6N8BPrrQGPhGg+e6b0KfZBAECHvdz/pIts1nRf4leMfpBnnqvgn9QRAg8k9gblt9ddp7IneB5h+rD3yB2Tv6b6Sh/4waCBDxJzA/tqdO1DbolR9vMBpxeqv7JvQhQFyewFzztZjfA+z7qoHFArPnum9CfzDJaxAgQnXf7pFsE47WCxFg+uF6wXXf5uLX0CcZAgF4PpJN4DulP+A+Czp1odH/AnNBVvTf9I7+EAggzQIz83dKDz/E+0OgaF8d640Gt3XfhP5QNRBAcOfh9sKVrWf4zUOrTjcIH3E+Y3/xDzUEAki3wMzuhStfXOJRhM5ebOS/0UDfeXT0h72qBALIvtEQ4AtXBuxlPhK98uONETVXmS4wB4U+yXAIEIqNhgBfuDLqIMOHRBD6J+6rY73ATNV5bNDX6R+eCgSI3TulRx+ov8LAAZ1+IRsNNHXfePFrGQEB4vlO6UF764L9PkB6/7M1VyWv+yb0R0CAmL9TetsXwcyFqk839Oa4wDzITefJRF+n/9lNSiBArN8pPXZ/3UcXvH8UnPq2kdQezgvMlugPpqj7xotfo38kBAjRRoPvd0rbPoG5+HD9vq8aSImnr/v7v2qY8U69VHWfsvNo6Gv0QwAZF5gFvlN6/rH6HacbTtl8JpD7vup0w8Jj9YE8ko1/3TehTzIKAkhY96V9p7QkC8z0I87h9uhr9EMAho9kY1T3cyR44Yq3BeYnA1pgph9xOlz8Sjb+MHpjvAUIad0X9U5pSRaYfXYeHf3RMReAcoH5vvVnfrn4vXtmHrhj9BY9d47eQv7LvYuO37/uC9nqflehT2DmsMBMP+K0QH9TE/pjlHwfRwFoRpwtV33ys6l7bu235ie9K6yyXM+tBavvnlLTesXfQlH35XkkG6O6bxxx2l38Gvpa4iUATee5t+zD2wb+wYb7NPR/kp+W2we89KtlH/Cp+/K8ZI7/ArPPzqOjP5bkldgIQIN+643nmg97zQP6xtwx9NWHX/6az0YD53dKh73up6Gv0j8uJgLQjDhJ0bdHv4IG/VTKSe5beJzbRgO3d0oHssA8gH3dH2lT940X/7hUIi4A5UYDqfs+L34dfT0/n1zjVPerRdb9PKF1f6Cguq+hb6S/MMICUI44H9hx6a6iqmDR19Isv/ye8Tse3XoRdZ/DRgNN3TehXxhVAein+4R+m9K/3G3nyaRfy51DNrXdelFI3Zf8kWyM0f8hs+6b6B+vJmoC0G80PJiVfn/oN8tL5s4hG4kDstX98C4we677xotfof9lJdERwNUCsw39fjuPCf1meWVa7hqysd2Wi7LVfWGPZHvN+4jTT903oT9BTRQEcLvRQOj/qZn+gNDPN6NvdKD9losu6/5V1H0/I0479HX6i8IugIdlHif68wO++DMd6LDlYrALzDzfKS1R3d/kpe4b0dfoD7cAHh7J9pCZfladx8GBjpsvhmKBmfUj2TyPOD3XfRP6JBP/EE4BvC0wp9PPG/1USu8a8krO5otZR5wSvlNakgVmz3U/DX2V/vAJ4GeB+Y7RW9jUfRf0a/nFuG2cFphjs9Fggf4r5rpvQp9kUrgE8POjrbuTf+vlVPft0G/WK5kWE3cHs8AsaKNhoNCNBm9134T+pBAJ4POd0ir9wjqPCX09LSfuxgKz5xGnh7pvQv85NbIL4P9HW2n0sxlxZkHfiv6UA7uiOuIcynejgabum9BX8pLEAgTyjIa7p9aIrft26KtZRkIcwAKzh40GD3XfhP5kNZIKEMgzGpL058vSeTLp19Jq4i6hC8xXwrXA7Lnum9AnmSKhAEE9gZmOfjbo59Gib3QgpAvMg7kvMHuu+yRG9KfIJkCAz2hQ6Oda98s8o9/kQNEubDQwrfsm9EmmSiJAsI9ku3tKjXydxwn9Zj2TaVW0EwvMrkacrur+5HT0lWyQQIBgH8mWjX7Bdd8O/WY9l2q5r2hn6BaYvT2SbTT7Eacz+sVqRAoQ+BOYHemXpe7boa/nV0U75XyntCQLzJ7rvk5/8YamiBGAxSPZ7OmXru7boX9rKsSByD+SzfMCs+e6b7z4SX6vhrcA97N5p/Q93ugXV/cd6NcdCHiB2c1Gw6BNl59em3h6jZL+agZvvBzsI9mC3Wig7zw6+iTTOAsQxDulLZ7AbEO/7HXfDn01JSStJ1TzXGAe8PKlgrJ/5c09+1jx590nf5oZ8t/z5559svRfg1+6JHCBmb7zZKJfbEBfyXpeArB7ArMV/aGp+3boJ9Mj6QDrBeZ+K873mnXGEnq75M068/Ty85KMOCnrvvHiJ+iTTOcgANN3SmfQL2yjwW3dz0J/j6bcP6GaXd1/svJCz+nkvv/EFf16ek4/PXDlBc4LzPQjTmf01VzmIUCw75T+rTf6w9B5TOg3OTC+OvAF5oGbLvee/6WKvp5PvaXPvK9GvHyZ2wKzd/TT6Z+x/vIMDgJ4W2DO+taJdPoji34qS4gDAS4w99/wXeri/yQQB3pNPz107XcCR5xT7TvPNKuLX6N/Jh8BAn+ntIF+3gvM7Oq+A/1a2oyvDmSjof/62u5TP+323N+6kwTnQI/iz4et/U7URgN955lhoH/mOvYCBP6SuRT95eEdcdJf/KYQB3xO9wsq/knQ1xOsAySDys9LW/dN6JPM4iOA57qf+aYtB/oj1nns0qaw2vNGg0L/pL8qYeyAhxEnh7qfRN9APw8BAnzJ3D2Ta6I04nSL/q2PJdOmsMrDRkPB8n90nXiq26SPOTjwTNl5zhsNWS/+TPRJZnMQIKiXzFnSL/lGQ4AXf4r+xVoeKKxytcDcT6H/IyIATwdkq/sm9GdzE8D/O6Wz0B/Fup958ev06w5QLvP0K/9Hl6IPVAGMDnzM2oHBZeddjTiDq/vf06BPMmctewH8v1M6k/6Y1H079PU8qDrgvMBcUPZNlwknu0x43+DAR1wdCHqBmX7EaaLfhL4W5gL4fKf0z9Ppj1bdL/GMvtEBhwXmgrJzncef6DL+pOZA16IP+TswpOw857rvfPHr6JPM5SGAj3dKG+mXs+43Y1/3s2XRg4U7LBeYC0q/7lx4vHPhe9kcYP59YHjFt5Sdh2ndN6E/l48Abuu+/n5Fa/rj3XlM6CfTfdFD43aYdvcHrP2284T3Oo17VwYHehR/NqaylseIc132zqOj/7waHgK46jwm+oG+M/pabuu+6OFxO/SfrfRf822nwmO5Y4/mjj2WzQFOc6EeUxUH2G000Fz8JvSVrGEvgFv0dfpR9ynR10McIPQ/vfqfOWMP54w+nDvmSO6YpAOdxpkdUL4TJzXgNBciDoytrM3aeYpZdh4j+vPUMBeAsu7r75Qm9Id9gZnPxX+bRV5sM/zNtoO3txtW03HkATcOfMTPgVW1LDYa6DuPjj7JfB4COF78ptepp9GPzkN38ev0a2lRsOGRgVvaD9uTM/KgyYHMLsR/NkocGLeqNvCNhtl0nceI/nw+AmTtPPrr1H+h0w/0PaGf6UDm54AM34l7Tv2sUHWAXd136DzzDVnAR4DfOXYeG/qjWPfdjzjdot/kwBOKA5ZdSBIHxq+qZT3itOw8OvpKVrMXwLnzkLSrTtEfy40Gr3Xfnv5uyVg4INNciDgwYWVtUBsN9J1HR/8FNTwEsOs8batT9KPz+Os8JvRv67ZQi8PngAxzIc0BRnXfrvOQvLC6KcwFsL74VfQV+p+ricMCM0f0m+hPd2C3nHMh4kDRylpGdd/h4idZqIa5AJadR8svk/THYoGZXd23Q9/75wDfuRBxYOLKWg5134Q+yYt8BGibcfG3d01/XOq+z87j7ADlbJT/zhxxYNLKROB137Lz6OgrqWQvgAl9A/2o+0w6j1VeIGnxxHrJZ6PPrUwEXvftLn6CPskiHgKko6/SvxsbDUw7jwl9JV2VtOi7XvLZ6HMrEuzqvgn9RXwEMKLvhf6objTwRV+PgwOSfCcmDgRY9zM7j07/YjXMBdDR70BLPzqPT/QXWqKf4cDuDn4cMGgQuAOTVQeCqvuWF/9ingJ0oKUf6AdT9x3oV7OgRd91ks9Gp1QkAq/7JvSXkKxiLwAd/aj7rDqPCX09mgPS7swRB6ZWJAKp+y9moL9YRV8LewGqqOmP40aDAPS13N51Qcu+6x4d9Fb74W9LOxstrkgEUvczL36SEjXMBXCkH52Hbd23Qz+ZLikHJJ6NFi9PBFX3lxgufpX+S0tXXWIugFzo94xd3bdDP5X5LZPfB+SdC/1+ecJn3V+cgb5GvxABSvluNJREZqPBf+cxoa8n5YC8cyHiQBb0V2ev+yWGi1/LspW8BcACszj0u1qgn+mAtJ8D05YnfNZ9I/oa/TwFQN3n0HkW0HQeu8jfhaaXJzzX/ZIM9ElKuQiABWYBF78r9A0OrJV5Ntpr6mczyhOe674J/VKuAmCBWY66b595Wlr2WetvNvpX1g7MLE/Y1v1Kp7pvQp+kjIcAWGAWNOKkpj+J/u2dk0k6YDUblaELaQ7QjDgd6C9LRaAAqPvCO48ZfaMDTXOhUe9YOfAXgXMh4sCs8oTbum9Cv2zFpfIVYgTARoP4uu9Af8qBNTLPRjUH/KBfLkKAyD6STeYRp1v0b+/8vBbdAWm70OyyhMOIs9SKfh395Wp4CoC6L13dd6Df6IDlXEiG3xMTB+aUJSjrvgl9ngKg7kvTeajRb3Lg8TUy78wRB+aqDtB0HiP6FWo4CBCvR7KFse7boa+kkxIHByTpQnNLE9adZ4XFxa+hX1GhRJAAWGCWrO7boa9mLknSgWE12lwoZ/SfZJsLPV+ayNp5Kgz0r1DDXQDUfcYbDZ7rvh36eogD2WajgudC80oTWTuPjj7JSq4CYIFZ+rpvhz5JczVpDkg5G523LOHQeYzor+QqADYa+G40+Og81ug3z3BA2tno/GUJy7pvQp9kFQ8B4r7AvDB0dd8OfTVzSFo+vlrynbkFqgMOF/8qLcs5CYARZ8jq/u026CvJVUIckHwuRBxwRp+kkosAWGCWcsTpFX09KQf2dCQO2MyFFA3EfR94YWkis/Po6FdyFgB1P3R134H+NAdSs1EJd+YWLk3Yob9aDScBsNHAt/MEVvft0Fczm0T7PiDzXOjFpQkT/asNYS4A6n5YRpxu0dejOyDtXIg4UJlB/xqSct4CYIFZ8ro/Nxv6ZvrTHaiR1oFFSxMm9LXwFAAbDSEYcdJf/E3JUdKyd6W7vdFsDnQL1IG8qZ8tVh3Q0V+rho8AqPsSjTiDRD9Ff/OcWSTEgWDnQsE7UJLQ0ecmAOp+qOv+HBr09QTuQPegHVhSktDQX6eGiwAYcco84vSOvpl+La0eT3NAttkocaCkJKHRv76MgwB4JFuU6n6uE/rmzwHt7wPyzUaJA0uXJAj9ogTAAnPo675jZpK07L1K5tmo5sAG7gKg7ken7jvQ37yjEtWBzeRzwDwXGvtn73MhCw28O7BsyQWeAqDuR63uW6Cfop/kpx1ntiIODNpq8Z24yQH3c6FAHeAjABaYI1v37dDXQxyQeTbKQQB0HikWmPmjn8oMGgdEfScWIQA2GgQtMDOp+zlO6OsxOSDPXIi7AKj7QheY2dV9O/TNDkg2G+UoADYaojLidIu+kg5KWuWvfGTgZovdaVdzoUC/E3MRACPOKNT9WTR134F+NdM1B9ore6NSzIXYC4C6L+UCs5/O4w19PYoDlrNREXMhPgJggVnGBWYOnceEvtEBSXbmOAiAuh/Vup+V/ukOMTkgamdOrACo+yHYaPDfeagcEDQXEigARpwh2GhghL75+0DmbJTXXEiIAFhgjuCI0y36aQ7os1HucyHOAuCRbCHeaPBc9ykdEDIb5SYA6n6s67677wMcZ6N8BEDdD80CM3/0xc5GOQgQlhEn6r4w9AXORtkLgAVm1H0Pc6FMBwzfBwKcC/EQABsNYVxg5nnx281GOXwnZi4A6n6ENxrYOsBlLsRZAGw0hKfzCEI/+85coA5wEwAjzviOOGWejXIQAHU/+hsNYh3wMxcSJAA2GlD3A+1CnudC3AXAI9liPOKU8PsARwFQ91H35ZuN8hIAGw2o+/LNRrkIgLofv40GAV3I1VzI8CHATQAsMKPuyzQb5SgANhpQ9+X9TixWANT9uI84hTsgUIDYvVMadV9CB4QIgAVm1P2AZ6M5Xh3gLADqPkacLGajTe8nNn4n7lxo5UBKAM0BbgJgxIm6z3ou9HbmO7pTDjQ9W8X4IUDCRwAsMMdigVmG2aj950DKgfQixEEAbDRgxCng7wNOnwMGB9gLgBEn6r7ALjTW0oGmL8SiBMBGA+o+PwfUoZDqgPaF2OAAfwFQ9zHi5ObAodSXgaN2g1HOAqDuo+7zcuCZt9qP2GtwwOqBuxwFQN1H5+HvwDazAxlfBjgIgLoP9AU6sL0DcSA1FEp9CBzXixBXAbDRgLov2IG0LwPKhwAnAbDAjBGnSAcG7+gw4o85ow6nFSH1Q4C5AHf1WoJHsqHzCHegLXHg2X255MuA4UOgZxH7T4DcwjexwAz0ZXLgiP4hMP559o9GXPLGqfi9U3omRpySOjCkquPIg+TLgPYhsHl7grkA5NzbpxyPZAP6cjiwqt3QXR1HHew05lifiSc9wOxFgKqj32CBGejL4kBv4sDujqMOHTt+hZMA5JS8fgobDRhxSpL7ele+uvmcN5I9CmDlADYaQL+YjJxe4xlj7wKQU330G/X7ABaYgb6Y/Ffn+aXrT/hh2JcA2nlp9+lOY9/4WY9FGHEifHJn7pzWeeXDi3f5pzcAAXBwwnsgAA4EwMGBADg4EAAHBwLg4EAAHBwIgIMDAXBwIAAODgTAwYEAODgQAAcHAuDgQAAcHAiAgxPS8/9/EwF6k/xuVgAAAABJRU5ErkJggg==;" vertex="1" parent="1">
          <mxGeometry x="228.5" y="118.25" width="43" height="43" as="geometry" />
        </mxCell>
        <mxCell id="M1dlDY-dCehF3eleabuK-52" style="edgeStyle=orthogonalEdgeStyle;rounded=1;orthogonalLoop=1;jettySize=auto;html=1;exitX=0.5;exitY=1;exitDx=0;exitDy=0;entryX=0.5;entryY=0;entryDx=0;entryDy=0;endArrow=blockThin;endFill=1;" edge="1" parent="1" source="M1dlDY-dCehF3eleabuK-49" target="M1dlDY-dCehF3eleabuK-51">
          <mxGeometry relative="1" as="geometry" />
        </mxCell>
        <mxCell id="M1dlDY-dCehF3eleabuK-49" value="Pose #1" style="text;html=1;strokeColor=none;fillColor=none;align=center;verticalAlign=middle;whiteSpace=wrap;rounded=0;" vertex="1" parent="1">
          <mxGeometry x="150" y="163.75" width="60" height="30" as="geometry" />
        </mxCell>
        <mxCell id="M1dlDY-dCehF3eleabuK-53" style="edgeStyle=orthogonalEdgeStyle;rounded=1;orthogonalLoop=1;jettySize=auto;html=1;exitX=0.5;exitY=1;exitDx=0;exitDy=0;endArrow=blockThin;endFill=1;" edge="1" parent="1" source="M1dlDY-dCehF3eleabuK-50" target="M1dlDY-dCehF3eleabuK-51">
          <mxGeometry relative="1" as="geometry" />
        </mxCell>
        <mxCell id="M1dlDY-dCehF3eleabuK-50" value="Pose #2" style="text;html=1;strokeColor=none;fillColor=none;align=center;verticalAlign=middle;whiteSpace=wrap;rounded=0;" vertex="1" parent="1">
          <mxGeometry x="220" y="163.75" width="60" height="30" as="geometry" />
        </mxCell>
        <mxCell id="M1dlDY-dCehF3eleabuK-54" style="edgeStyle=orthogonalEdgeStyle;rounded=1;orthogonalLoop=1;jettySize=auto;html=1;exitX=0.5;exitY=1;exitDx=0;exitDy=0;entryX=0;entryY=0.5;entryDx=0;entryDy=0;endArrow=blockThin;endFill=1;" edge="1" parent="1" source="M1dlDY-dCehF3eleabuK-51" target="M1dlDY-dCehF3eleabuK-9">
          <mxGeometry relative="1" as="geometry">
            <Array as="points">
              <mxPoint x="215" y="295" />
            </Array>
          </mxGeometry>
        </mxCell>
        <mxCell id="M1dlDY-dCehF3eleabuK-51" value="Fundamental&lt;br&gt;Matrix" style="text;html=1;strokeColor=none;fillColor=none;align=center;verticalAlign=middle;whiteSpace=wrap;rounded=0;" vertex="1" parent="1">
          <mxGeometry x="185" y="250" width="60" height="30" as="geometry" />
        </mxCell>
        <mxCell id="M1dlDY-dCehF3eleabuK-69" style="edgeStyle=orthogonalEdgeStyle;rounded=1;orthogonalLoop=1;jettySize=auto;html=1;exitX=1;exitY=0;exitDx=0;exitDy=0;entryX=0;entryY=0;entryDx=0;entryDy=0;endArrow=none;endFill=0;fillColor=#e1d5e7;strokeColor=#9673a6;" edge="1" parent="1" source="M1dlDY-dCehF3eleabuK-55" target="M1dlDY-dCehF3eleabuK-56">
          <mxGeometry relative="1" as="geometry" />
        </mxCell>
        <mxCell id="M1dlDY-dCehF3eleabuK-78" style="edgeStyle=orthogonalEdgeStyle;rounded=1;orthogonalLoop=1;jettySize=auto;html=1;exitX=0.5;exitY=0;exitDx=0;exitDy=0;entryX=0.5;entryY=1;entryDx=0;entryDy=0;endArrow=blockThin;endFill=1;" edge="1" parent="1" source="M1dlDY-dCehF3eleabuK-55" target="M1dlDY-dCehF3eleabuK-10">
          <mxGeometry relative="1" as="geometry" />
        </mxCell>
        <mxCell id="M1dlDY-dCehF3eleabuK-55" value="" style="shape=image;verticalLabelPosition=bottom;labelBackgroundColor=default;verticalAlign=top;aspect=fixed;imageAspect=0;image=data:image/png,iVBORw0KGgoAAAANSUhEUgAAAQAAAAEACAIAAADTED8xAAAZq0lEQVR42u2d6XsV5d3H/ReKStU+2lbAIi5Pn7bKlrAKJAgGlUVWWQMBgZQdAREIJCFAWK2CGyCQAEHKJgUqFlywdUHQim2REwGFBEPgTa8+b57nnplzJnPmzMy5Z7mXmfne1/eVb3pd5fO5z/f88jszt/wfDk6Mzy34vwAHAuDgQAAcHAiAgwMBcHAgAA4OBMDBgQA4OBAABwcC4OBAABwcCICDAwFwcCAADg4EwMGJrQB7av896dSNRw7Ut367DkGMuV9Nmz3JPGDIg2oeqknm4VT+m2S3kl8nc/V/UvnNrmQ6762b9kHjvgv/FizAx/X/2+1PP+KfGbFDX6c/E/0H7dHX6W9CP0X/b1P5nZq+B699UvcfMQKQix//zEhW9NvYo/+QEX2biz8TfZ3+R3Yms9/HR8EtoB8RiD5N58lEX6f/0VQOeHXgFm/NB//YCNu6b9N5jBe/hn7bVD69+h9OAqD3IwHU/Rp3dT8T/Sb6q6+2q77ab/81HgKg/CAC6/6jGRd/u+pk2ld7KUKuBZh06gb+4ZHWWdHfw6rut02/+DX0tcx+v5G5AJj3I1k7DwX6dX7qvo6+Tn8HNT1r6pgLgH9+oO+z8/iv+6aLX6O/Y5USCICEYMTpv+4b0e9QlaQfAiBh2mjwU/cz0c9RAwGQ8G00eKj7RvR1+nMhABKWEaf/um9EX6M/dwcEQMK80eCq7pvQJ+kEAZCwbzS0dYt+VRL9ThAAicBGA2XnyUS/sxoIgIR+o4Gy85jQhwBIKOt+W69134R+F5LtEAAJYd2nHHHaXfwa+iRdIQASvbqfQ4e+misQAIlg3bfuPGnoX+22/Uo3CICEa4GZHn3ni79bKhAACXij4dciNhroO4+OfvdtSiAAErIFZvoRpx36Ov2PQQAkdAvM9CPOLul134i+Rj8EQMK3wOyz8+jok/SAAIi8C8zVAdd9E/o9IADQF7zAvJNr3Teh3/MtJRAA6Idsgdlz3TehDwFQ90O5wOyn8xjR76UGAqDuh2yB2XPdN6FPkgcB0Hl09Nv/sX7SyR9f/fL6idrGm1aH/PfXv2yYcuJap711AheYLTcaaOq+CX0lWyEA0K+pG/Hutepz179vuEl5fmi4sevc9TF/rhe70eC27pvQz1cDAWJd9586cu0vNvc9zTmZaHzmcL0MGw00dV+nP39rUyBAfC9+0nZuBnHePNvAc4HZc903XvwkvdVAgDii3/NQ/WeXb9wM7nx+ufGJ/XWMFpi7BFT3TeiTPA4BYrjATGoPfd2nP+SLwZDD9RwWmF3X/fTOo6OvZAsEiNmIkxH9ugND36nnX/cdLv58m4ufoN9HDQSI0Z91SfNhR7/uQL99dfw3Gug7D0Ffpx8CxGujIdjeb3dOX27kvNFAi/7WNPT7qoEAcdloeC2gmQ/N2XKmgfNGQy+Kut8ng/4nIEBMNhr6H7l2k+8Zfqiec93Py1b3jegr9G9WAgFiscB8wsdfu7ydDxKNstX9voaLX6O/AALEYYF55Lu8r3/tTDxSz2KB2Q79/Gx134R+AQSIyQLzznPXhQjw9t+vc677vR3rvgl9kn4QIPILzDl7639ouCFEAPK/y7/uP25f959IR78fBIjD7xWnnBDTf7Qz+/i1wBeYPdd9E/pPvqkEAoQQfTc/2nr9ywaBAmz7ooFz3e9DjT7JUxAgdJ3H7e8VTyYaBQrw4YVG/nW/r03dN9L/VDI/QIDwdR5Xv1e8Kfrwrvt0Fz9Bn+RpCBD5R7IJFyD4ur81GPSVvAEBovhINuNPdWUQgL7z5HndaLDrPJno6/T3f0MJBIj4E5iFCxD4ArPnum+8+DX6B0CAyD+STbgA8tR9I/oa/RAgso9k03+lLoMArkac7Oq+CX2SgRAgwk9g1n6oLlyAwBeY6er+lcy6b0Rfo3/g6xAg0k9gJnlf6N8BPrrQGPhGg+e6b0KfZBAECHvdz/pIts1nRf4leMfpBnnqvgn9QRAg8k9gblt9ddp7IneB5h+rD3yB2Tv6b6Sh/4waCBDxJzA/tqdO1DbolR9vMBpxeqv7JvQhQFyewFzztZjfA+z7qoHFArPnum9CfzDJaxAgQnXf7pFsE47WCxFg+uF6wXXf5uLX0CcZAgF4PpJN4DulP+A+Czp1odH/AnNBVvTf9I7+EAggzQIz83dKDz/E+0OgaF8d640Gt3XfhP5QNRBAcOfh9sKVrWf4zUOrTjcIH3E+Y3/xDzUEAki3wMzuhStfXOJRhM5ebOS/0UDfeXT0h72qBALIvtEQ4AtXBuxlPhK98uONETVXmS4wB4U+yXAIEIqNhgBfuDLqIMOHRBD6J+6rY73ATNV5bNDX6R+eCgSI3TulRx+ov8LAAZ1+IRsNNHXfePFrGQEB4vlO6UF764L9PkB6/7M1VyWv+yb0R0CAmL9TetsXwcyFqk839Oa4wDzITefJRF+n/9lNSiBArN8pPXZ/3UcXvH8UnPq2kdQezgvMlugPpqj7xotfo38kBAjRRoPvd0rbPoG5+HD9vq8aSImnr/v7v2qY8U69VHWfsvNo6Gv0QwAZF5gFvlN6/rH6HacbTtl8JpD7vup0w8Jj9YE8ko1/3TehTzIKAkhY96V9p7QkC8z0I87h9uhr9EMAho9kY1T3cyR44Yq3BeYnA1pgph9xOlz8Sjb+MHpjvAUIad0X9U5pSRaYfXYeHf3RMReAcoH5vvVnfrn4vXtmHrhj9BY9d47eQv7LvYuO37/uC9nqflehT2DmsMBMP+K0QH9TE/pjlHwfRwFoRpwtV33ys6l7bu235ie9K6yyXM+tBavvnlLTesXfQlH35XkkG6O6bxxx2l38Gvpa4iUATee5t+zD2wb+wYb7NPR/kp+W2we89KtlH/Cp+/K8ZI7/ArPPzqOjP5bkldgIQIN+643nmg97zQP6xtwx9NWHX/6az0YD53dKh73up6Gv0j8uJgLQjDhJ0bdHv4IG/VTKSe5beJzbRgO3d0oHssA8gH3dH2lT940X/7hUIi4A5UYDqfs+L34dfT0/n1zjVPerRdb9PKF1f6Cguq+hb6S/MMICUI44H9hx6a6iqmDR19Isv/ye8Tse3XoRdZ/DRgNN3TehXxhVAein+4R+m9K/3G3nyaRfy51DNrXdelFI3Zf8kWyM0f8hs+6b6B+vJmoC0G80PJiVfn/oN8tL5s4hG4kDstX98C4we677xotfof9lJdERwNUCsw39fjuPCf1meWVa7hqysd2Wi7LVfWGPZHvN+4jTT903oT9BTRQEcLvRQOj/qZn+gNDPN6NvdKD9losu6/5V1H0/I0479HX6i8IugIdlHif68wO++DMd6LDlYrALzDzfKS1R3d/kpe4b0dfoD7cAHh7J9pCZfladx8GBjpsvhmKBmfUj2TyPOD3XfRP6JBP/EE4BvC0wp9PPG/1USu8a8krO5otZR5wSvlNakgVmz3U/DX2V/vAJ4GeB+Y7RW9jUfRf0a/nFuG2cFphjs9Fggf4r5rpvQp9kUrgE8POjrbuTf+vlVPft0G/WK5kWE3cHs8AsaKNhoNCNBm9134T+pBAJ4POd0ir9wjqPCX09LSfuxgKz5xGnh7pvQv85NbIL4P9HW2n0sxlxZkHfiv6UA7uiOuIcynejgabum9BX8pLEAgTyjIa7p9aIrft26KtZRkIcwAKzh40GD3XfhP5kNZIKEMgzGpL058vSeTLp19Jq4i6hC8xXwrXA7Lnum9AnmSKhAEE9gZmOfjbo59Gib3QgpAvMg7kvMHuu+yRG9KfIJkCAz2hQ6Oda98s8o9/kQNEubDQwrfsm9EmmSiJAsI9ku3tKjXydxwn9Zj2TaVW0EwvMrkacrur+5HT0lWyQQIBgH8mWjX7Bdd8O/WY9l2q5r2hn6BaYvT2SbTT7Eacz+sVqRAoQ+BOYHemXpe7boa/nV0U75XyntCQLzJ7rvk5/8YamiBGAxSPZ7OmXru7boX9rKsSByD+SzfMCs+e6b7z4SX6vhrcA97N5p/Q93ugXV/cd6NcdCHiB2c1Gw6BNl59em3h6jZL+agZvvBzsI9mC3Wig7zw6+iTTOAsQxDulLZ7AbEO/7HXfDn01JSStJ1TzXGAe8PKlgrJ/5c09+1jx590nf5oZ8t/z5559svRfg1+6JHCBmb7zZKJfbEBfyXpeArB7ArMV/aGp+3boJ9Mj6QDrBeZ+K873mnXGEnq75M068/Ty85KMOCnrvvHiJ+iTTOcgANN3SmfQL2yjwW3dz0J/j6bcP6GaXd1/svJCz+nkvv/EFf16ek4/PXDlBc4LzPQjTmf01VzmIUCw75T+rTf6w9B5TOg3OTC+OvAF5oGbLvee/6WKvp5PvaXPvK9GvHyZ2wKzd/TT6Z+x/vIMDgJ4W2DO+taJdPoji34qS4gDAS4w99/wXeri/yQQB3pNPz107XcCR5xT7TvPNKuLX6N/Jh8BAn+ntIF+3gvM7Oq+A/1a2oyvDmSjof/62u5TP+323N+6kwTnQI/iz4et/U7URgN955lhoH/mOvYCBP6SuRT95eEdcdJf/KYQB3xO9wsq/knQ1xOsAySDys9LW/dN6JPM4iOA57qf+aYtB/oj1nns0qaw2vNGg0L/pL8qYeyAhxEnh7qfRN9APw8BAnzJ3D2Ta6I04nSL/q2PJdOmsMrDRkPB8n90nXiq26SPOTjwTNl5zhsNWS/+TPRJZnMQIKiXzFnSL/lGQ4AXf4r+xVoeKKxytcDcT6H/IyIATwdkq/sm9GdzE8D/O6Wz0B/Fup958ev06w5QLvP0K/9Hl6IPVAGMDnzM2oHBZeddjTiDq/vf06BPMmctewH8v1M6k/6Y1H079PU8qDrgvMBcUPZNlwknu0x43+DAR1wdCHqBmX7EaaLfhL4W5gL4fKf0z9Ppj1bdL/GMvtEBhwXmgrJzncef6DL+pOZA16IP+TswpOw857rvfPHr6JPM5SGAj3dKG+mXs+43Y1/3s2XRg4U7LBeYC0q/7lx4vHPhe9kcYP59YHjFt5Sdh2ndN6E/l48Abuu+/n5Fa/rj3XlM6CfTfdFD43aYdvcHrP2284T3Oo17VwYHehR/NqaylseIc132zqOj/7waHgK46jwm+oG+M/pabuu+6OFxO/SfrfRf822nwmO5Y4/mjj2WzQFOc6EeUxUH2G000Fz8JvSVrGEvgFv0dfpR9ynR10McIPQ/vfqfOWMP54w+nDvmSO6YpAOdxpkdUL4TJzXgNBciDoytrM3aeYpZdh4j+vPUMBeAsu7r75Qm9Id9gZnPxX+bRV5sM/zNtoO3txtW03HkATcOfMTPgVW1LDYa6DuPjj7JfB4COF78ptepp9GPzkN38ev0a2lRsOGRgVvaD9uTM/KgyYHMLsR/NkocGLeqNvCNhtl0nceI/nw+AmTtPPrr1H+h0w/0PaGf6UDm54AM34l7Tv2sUHWAXd136DzzDVnAR4DfOXYeG/qjWPfdjzjdot/kwBOKA5ZdSBIHxq+qZT3itOw8OvpKVrMXwLnzkLSrTtEfy40Gr3Xfnv5uyVg4INNciDgwYWVtUBsN9J1HR/8FNTwEsOs8batT9KPz+Os8JvRv67ZQi8PngAxzIc0BRnXfrvOQvLC6KcwFsL74VfQV+p+ricMCM0f0m+hPd2C3nHMh4kDRylpGdd/h4idZqIa5AJadR8svk/THYoGZXd23Q9/75wDfuRBxYOLKWg5134Q+yYt8BGibcfG3d01/XOq+z87j7ADlbJT/zhxxYNLKROB137Lz6OgrqWQvgAl9A/2o+0w6j1VeIGnxxHrJZ6PPrUwEXvftLn6CPskiHgKko6/SvxsbDUw7jwl9JV2VtOi7XvLZ6HMrEuzqvgn9RXwEMKLvhf6objTwRV+PgwOSfCcmDgRY9zM7j07/YjXMBdDR70BLPzqPT/QXWqKf4cDuDn4cMGgQuAOTVQeCqvuWF/9ingJ0oKUf6AdT9x3oV7OgRd91ks9Gp1QkAq/7JvSXkKxiLwAd/aj7rDqPCX09mgPS7swRB6ZWJAKp+y9moL9YRV8LewGqqOmP40aDAPS13N51Qcu+6x4d9Fb74W9LOxstrkgEUvczL36SEjXMBXCkH52Hbd23Qz+ZLikHJJ6NFi9PBFX3lxgufpX+S0tXXWIugFzo94xd3bdDP5X5LZPfB+SdC/1+ecJn3V+cgb5GvxABSvluNJREZqPBf+cxoa8n5YC8cyHiQBb0V2ev+yWGi1/LspW8BcACszj0u1qgn+mAtJ8D05YnfNZ9I/oa/TwFQN3n0HkW0HQeu8jfhaaXJzzX/ZIM9ElKuQiABWYBF78r9A0OrJV5Ntpr6mczyhOe674J/VKuAmCBWY66b595Wlr2WetvNvpX1g7MLE/Y1v1Kp7pvQp+kjIcAWGAWNOKkpj+J/u2dk0k6YDUblaELaQ7QjDgd6C9LRaAAqPvCO48ZfaMDTXOhUe9YOfAXgXMh4sCs8oTbum9Cv2zFpfIVYgTARoP4uu9Af8qBNTLPRjUH/KBfLkKAyD6STeYRp1v0b+/8vBbdAWm70OyyhMOIs9SKfh395Wp4CoC6L13dd6Df6IDlXEiG3xMTB+aUJSjrvgl9ngKg7kvTeajRb3Lg8TUy78wRB+aqDtB0HiP6FWo4CBCvR7KFse7boa+kkxIHByTpQnNLE9adZ4XFxa+hX1GhRJAAWGCWrO7boa9mLknSgWE12lwoZ/SfZJsLPV+ayNp5Kgz0r1DDXQDUfcYbDZ7rvh36eogD2WajgudC80oTWTuPjj7JSq4CYIFZ+rpvhz5JczVpDkg5G523LOHQeYzor+QqADYa+G40+Og81ug3z3BA2tno/GUJy7pvQp9kFQ8B4r7AvDB0dd8OfTVzSFo+vlrynbkFqgMOF/8qLcs5CYARZ8jq/u026CvJVUIckHwuRBxwRp+kkosAWGCWcsTpFX09KQf2dCQO2MyFFA3EfR94YWkis/Po6FdyFgB1P3R134H+NAdSs1EJd+YWLk3Yob9aDScBsNHAt/MEVvft0Fczm0T7PiDzXOjFpQkT/asNYS4A6n5YRpxu0dejOyDtXIg4UJlB/xqSct4CYIFZ8ro/Nxv6ZvrTHaiR1oFFSxMm9LXwFAAbDSEYcdJf/E3JUdKyd6W7vdFsDnQL1IG8qZ8tVh3Q0V+rho8AqPsSjTiDRD9Ff/OcWSTEgWDnQsE7UJLQ0ecmAOp+qOv+HBr09QTuQPegHVhSktDQX6eGiwAYcco84vSOvpl+La0eT3NAttkocaCkJKHRv76MgwB4JFuU6n6uE/rmzwHt7wPyzUaJA0uXJAj9ogTAAnPo675jZpK07L1K5tmo5sAG7gKg7ken7jvQ37yjEtWBzeRzwDwXGvtn73MhCw28O7BsyQWeAqDuR63uW6Cfop/kpx1ntiIODNpq8Z24yQH3c6FAHeAjABaYI1v37dDXQxyQeTbKQQB0HikWmPmjn8oMGgdEfScWIQA2GgQtMDOp+zlO6OsxOSDPXIi7AKj7QheY2dV9O/TNDkg2G+UoADYaojLidIu+kg5KWuWvfGTgZovdaVdzoUC/E3MRACPOKNT9WTR134F+NdM1B9ore6NSzIXYC4C6L+UCs5/O4w19PYoDlrNREXMhPgJggVnGBWYOnceEvtEBSXbmOAiAuh/Vup+V/ukOMTkgamdOrACo+yHYaPDfeagcEDQXEigARpwh2GhghL75+0DmbJTXXEiIAFhgjuCI0y36aQ7os1HucyHOAuCRbCHeaPBc9ykdEDIb5SYA6n6s67677wMcZ6N8BEDdD80CM3/0xc5GOQgQlhEn6r4w9AXORtkLgAVm1H0Pc6FMBwzfBwKcC/EQABsNYVxg5nnx281GOXwnZi4A6n6ENxrYOsBlLsRZAGw0hKfzCEI/+85coA5wEwAjzviOOGWejXIQAHU/+hsNYh3wMxcSJAA2GlD3A+1CnudC3AXAI9liPOKU8PsARwFQ91H35ZuN8hIAGw2o+/LNRrkIgLofv40GAV3I1VzI8CHATQAsMKPuyzQb5SgANhpQ9+X9TixWANT9uI84hTsgUIDYvVMadV9CB4QIgAVm1P2AZ6M5Xh3gLADqPkacLGajTe8nNn4n7lxo5UBKAM0BbgJgxIm6z3ou9HbmO7pTDjQ9W8X4IUDCRwAsMMdigVmG2aj950DKgfQixEEAbDRgxCng7wNOnwMGB9gLgBEn6r7ALjTW0oGmL8SiBMBGA+o+PwfUoZDqgPaF2OAAfwFQ9zHi5ObAodSXgaN2g1HOAqDuo+7zcuCZt9qP2GtwwOqBuxwFQN1H5+HvwDazAxlfBjgIgLoP9AU6sL0DcSA1FEp9CBzXixBXAbDRgLov2IG0LwPKhwAnAbDAjBGnSAcG7+gw4o85ow6nFSH1Q4C5AHf1WoJHsqHzCHegLXHg2X255MuA4UOgZxH7T4DcwjexwAz0ZXLgiP4hMP559o9GXPLGqfi9U3omRpySOjCkquPIg+TLgPYhsHl7grkA5NzbpxyPZAP6cjiwqt3QXR1HHew05lifiSc9wOxFgKqj32CBGejL4kBv4sDujqMOHTt+hZMA5JS8fgobDRhxSpL7ele+uvmcN5I9CmDlADYaQL+YjJxe4xlj7wKQU330G/X7ABaYgb6Y/Ffn+aXrT/hh2JcA2nlp9+lOY9/4WY9FGHEifHJn7pzWeeXDi3f5pzcAAXBwwnsgAA4EwMGBADg4EAAHBwLg4EAAHBwIgIMDAXBwIAAODgTAwYEAODgQAAcHAuDgQAAcHAiAgxPS8/9/EwF6k/xuVgAAAABJRU5ErkJggg==;" vertex="1" parent="1">
          <mxGeometry x="325.75" y="190" width="43" height="43" as="geometry" />
        </mxCell>
        <mxCell id="M1dlDY-dCehF3eleabuK-79" style="edgeStyle=orthogonalEdgeStyle;rounded=1;orthogonalLoop=1;jettySize=auto;html=1;exitX=0.5;exitY=0;exitDx=0;exitDy=0;endArrow=blockThin;endFill=1;" edge="1" parent="1" source="M1dlDY-dCehF3eleabuK-56" target="M1dlDY-dCehF3eleabuK-10">
          <mxGeometry relative="1" as="geometry" />
        </mxCell>
        <mxCell id="M1dlDY-dCehF3eleabuK-56" value="" style="shape=image;verticalLabelPosition=bottom;labelBackgroundColor=default;verticalAlign=top;aspect=fixed;imageAspect=0;image=data:image/png,iVBORw0KGgoAAAANSUhEUgAAAQAAAAEACAIAAADTED8xAAAZq0lEQVR42u2d6XsV5d3H/ReKStU+2lbAIi5Pn7bKlrAKJAgGlUVWWQMBgZQdAREIJCFAWK2CGyCQAEHKJgUqFlywdUHQim2REwGFBEPgTa8+b57nnplzJnPmzMy5Z7mXmfne1/eVb3pd5fO5z/f88jszt/wfDk6Mzy34vwAHAuDgQAAcHAiAgwMBcHAgAA4OBMDBgQA4OBAABwcC4OBAABwcCICDAwFwcCAADg4EwMGJrQB7av896dSNRw7Ut367DkGMuV9Nmz3JPGDIg2oeqknm4VT+m2S3kl8nc/V/UvnNrmQ6762b9kHjvgv/FizAx/X/2+1PP+KfGbFDX6c/E/0H7dHX6W9CP0X/b1P5nZq+B699UvcfMQKQix//zEhW9NvYo/+QEX2biz8TfZ3+R3Yms9/HR8EtoB8RiD5N58lEX6f/0VQOeHXgFm/NB//YCNu6b9N5jBe/hn7bVD69+h9OAqD3IwHU/Rp3dT8T/Sb6q6+2q77ab/81HgKg/CAC6/6jGRd/u+pk2ld7KUKuBZh06gb+4ZHWWdHfw6rut02/+DX0tcx+v5G5AJj3I1k7DwX6dX7qvo6+Tn8HNT1r6pgLgH9+oO+z8/iv+6aLX6O/Y5USCICEYMTpv+4b0e9QlaQfAiBh2mjwU/cz0c9RAwGQ8G00eKj7RvR1+nMhABKWEaf/um9EX6M/dwcEQMK80eCq7pvQJ+kEAZCwbzS0dYt+VRL9ThAAicBGA2XnyUS/sxoIgIR+o4Gy85jQhwBIKOt+W69134R+F5LtEAAJYd2nHHHaXfwa+iRdIQASvbqfQ4e+misQAIlg3bfuPGnoX+22/Uo3CICEa4GZHn3ni79bKhAACXij4dciNhroO4+OfvdtSiAAErIFZvoRpx36Ov2PQQAkdAvM9CPOLul134i+Rj8EQMK3wOyz8+jok/SAAIi8C8zVAdd9E/o9IADQF7zAvJNr3Teh3/MtJRAA6Idsgdlz3TehDwFQ90O5wOyn8xjR76UGAqDuh2yB2XPdN6FPkgcB0Hl09Nv/sX7SyR9f/fL6idrGm1aH/PfXv2yYcuJap711AheYLTcaaOq+CX0lWyEA0K+pG/Hutepz179vuEl5fmi4sevc9TF/rhe70eC27pvQz1cDAWJd9586cu0vNvc9zTmZaHzmcL0MGw00dV+nP39rUyBAfC9+0nZuBnHePNvAc4HZc903XvwkvdVAgDii3/NQ/WeXb9wM7nx+ufGJ/XWMFpi7BFT3TeiTPA4BYrjATGoPfd2nP+SLwZDD9RwWmF3X/fTOo6OvZAsEiNmIkxH9ugND36nnX/cdLv58m4ufoN9HDQSI0Z91SfNhR7/uQL99dfw3Gug7D0Ffpx8CxGujIdjeb3dOX27kvNFAi/7WNPT7qoEAcdloeC2gmQ/N2XKmgfNGQy+Kut8ng/4nIEBMNhr6H7l2k+8Zfqiec93Py1b3jegr9G9WAgFiscB8wsdfu7ydDxKNstX9voaLX6O/AALEYYF55Lu8r3/tTDxSz2KB2Q79/Gx134R+AQSIyQLzznPXhQjw9t+vc677vR3rvgl9kn4QIPILzDl7639ouCFEAPK/y7/uP25f959IR78fBIjD7xWnnBDTf7Qz+/i1wBeYPdd9E/pPvqkEAoQQfTc/2nr9ywaBAmz7ooFz3e9DjT7JUxAgdJ3H7e8VTyYaBQrw4YVG/nW/r03dN9L/VDI/QIDwdR5Xv1e8Kfrwrvt0Fz9Bn+RpCBD5R7IJFyD4ur81GPSVvAEBovhINuNPdWUQgL7z5HndaLDrPJno6/T3f0MJBIj4E5iFCxD4ArPnum+8+DX6B0CAyD+STbgA8tR9I/oa/RAgso9k03+lLoMArkac7Oq+CX2SgRAgwk9g1n6oLlyAwBeY6er+lcy6b0Rfo3/g6xAg0k9gJnlf6N8BPrrQGPhGg+e6b0KfZBAECHvdz/pIts1nRf4leMfpBnnqvgn9QRAg8k9gblt9ddp7IneB5h+rD3yB2Tv6b6Sh/4waCBDxJzA/tqdO1DbolR9vMBpxeqv7JvQhQFyewFzztZjfA+z7qoHFArPnum9CfzDJaxAgQnXf7pFsE47WCxFg+uF6wXXf5uLX0CcZAgF4PpJN4DulP+A+Czp1odH/AnNBVvTf9I7+EAggzQIz83dKDz/E+0OgaF8d640Gt3XfhP5QNRBAcOfh9sKVrWf4zUOrTjcIH3E+Y3/xDzUEAki3wMzuhStfXOJRhM5ebOS/0UDfeXT0h72qBALIvtEQ4AtXBuxlPhK98uONETVXmS4wB4U+yXAIEIqNhgBfuDLqIMOHRBD6J+6rY73ATNV5bNDX6R+eCgSI3TulRx+ov8LAAZ1+IRsNNHXfePFrGQEB4vlO6UF764L9PkB6/7M1VyWv+yb0R0CAmL9TetsXwcyFqk839Oa4wDzITefJRF+n/9lNSiBArN8pPXZ/3UcXvH8UnPq2kdQezgvMlugPpqj7xotfo38kBAjRRoPvd0rbPoG5+HD9vq8aSImnr/v7v2qY8U69VHWfsvNo6Gv0QwAZF5gFvlN6/rH6HacbTtl8JpD7vup0w8Jj9YE8ko1/3TehTzIKAkhY96V9p7QkC8z0I87h9uhr9EMAho9kY1T3cyR44Yq3BeYnA1pgph9xOlz8Sjb+MHpjvAUIad0X9U5pSRaYfXYeHf3RMReAcoH5vvVnfrn4vXtmHrhj9BY9d47eQv7LvYuO37/uC9nqflehT2DmsMBMP+K0QH9TE/pjlHwfRwFoRpwtV33ys6l7bu235ie9K6yyXM+tBavvnlLTesXfQlH35XkkG6O6bxxx2l38Gvpa4iUATee5t+zD2wb+wYb7NPR/kp+W2we89KtlH/Cp+/K8ZI7/ArPPzqOjP5bkldgIQIN+643nmg97zQP6xtwx9NWHX/6az0YD53dKh73up6Gv0j8uJgLQjDhJ0bdHv4IG/VTKSe5beJzbRgO3d0oHssA8gH3dH2lT940X/7hUIi4A5UYDqfs+L34dfT0/n1zjVPerRdb9PKF1f6Cguq+hb6S/MMICUI44H9hx6a6iqmDR19Isv/ye8Tse3XoRdZ/DRgNN3TehXxhVAein+4R+m9K/3G3nyaRfy51DNrXdelFI3Zf8kWyM0f8hs+6b6B+vJmoC0G80PJiVfn/oN8tL5s4hG4kDstX98C4we677xotfof9lJdERwNUCsw39fjuPCf1meWVa7hqysd2Wi7LVfWGPZHvN+4jTT903oT9BTRQEcLvRQOj/qZn+gNDPN6NvdKD9losu6/5V1H0/I0479HX6i8IugIdlHif68wO++DMd6LDlYrALzDzfKS1R3d/kpe4b0dfoD7cAHh7J9pCZfladx8GBjpsvhmKBmfUj2TyPOD3XfRP6JBP/EE4BvC0wp9PPG/1USu8a8krO5otZR5wSvlNakgVmz3U/DX2V/vAJ4GeB+Y7RW9jUfRf0a/nFuG2cFphjs9Fggf4r5rpvQp9kUrgE8POjrbuTf+vlVPft0G/WK5kWE3cHs8AsaKNhoNCNBm9134T+pBAJ4POd0ir9wjqPCX09LSfuxgKz5xGnh7pvQv85NbIL4P9HW2n0sxlxZkHfiv6UA7uiOuIcynejgabum9BX8pLEAgTyjIa7p9aIrft26KtZRkIcwAKzh40GD3XfhP5kNZIKEMgzGpL058vSeTLp19Jq4i6hC8xXwrXA7Lnum9AnmSKhAEE9gZmOfjbo59Gib3QgpAvMg7kvMHuu+yRG9KfIJkCAz2hQ6Oda98s8o9/kQNEubDQwrfsm9EmmSiJAsI9ku3tKjXydxwn9Zj2TaVW0EwvMrkacrur+5HT0lWyQQIBgH8mWjX7Bdd8O/WY9l2q5r2hn6BaYvT2SbTT7Eacz+sVqRAoQ+BOYHemXpe7boa/nV0U75XyntCQLzJ7rvk5/8YamiBGAxSPZ7OmXru7boX9rKsSByD+SzfMCs+e6b7z4SX6vhrcA97N5p/Q93ugXV/cd6NcdCHiB2c1Gw6BNl59em3h6jZL+agZvvBzsI9mC3Wig7zw6+iTTOAsQxDulLZ7AbEO/7HXfDn01JSStJ1TzXGAe8PKlgrJ/5c09+1jx590nf5oZ8t/z5559svRfg1+6JHCBmb7zZKJfbEBfyXpeArB7ArMV/aGp+3boJ9Mj6QDrBeZ+K873mnXGEnq75M068/Ty85KMOCnrvvHiJ+iTTOcgANN3SmfQL2yjwW3dz0J/j6bcP6GaXd1/svJCz+nkvv/EFf16ek4/PXDlBc4LzPQjTmf01VzmIUCw75T+rTf6w9B5TOg3OTC+OvAF5oGbLvee/6WKvp5PvaXPvK9GvHyZ2wKzd/TT6Z+x/vIMDgJ4W2DO+taJdPoji34qS4gDAS4w99/wXeri/yQQB3pNPz107XcCR5xT7TvPNKuLX6N/Jh8BAn+ntIF+3gvM7Oq+A/1a2oyvDmSjof/62u5TP+323N+6kwTnQI/iz4et/U7URgN955lhoH/mOvYCBP6SuRT95eEdcdJf/KYQB3xO9wsq/knQ1xOsAySDys9LW/dN6JPM4iOA57qf+aYtB/oj1nns0qaw2vNGg0L/pL8qYeyAhxEnh7qfRN9APw8BAnzJ3D2Ta6I04nSL/q2PJdOmsMrDRkPB8n90nXiq26SPOTjwTNl5zhsNWS/+TPRJZnMQIKiXzFnSL/lGQ4AXf4r+xVoeKKxytcDcT6H/IyIATwdkq/sm9GdzE8D/O6Wz0B/Fup958ev06w5QLvP0K/9Hl6IPVAGMDnzM2oHBZeddjTiDq/vf06BPMmctewH8v1M6k/6Y1H079PU8qDrgvMBcUPZNlwknu0x43+DAR1wdCHqBmX7EaaLfhL4W5gL4fKf0z9Ppj1bdL/GMvtEBhwXmgrJzncef6DL+pOZA16IP+TswpOw857rvfPHr6JPM5SGAj3dKG+mXs+43Y1/3s2XRg4U7LBeYC0q/7lx4vHPhe9kcYP59YHjFt5Sdh2ndN6E/l48Abuu+/n5Fa/rj3XlM6CfTfdFD43aYdvcHrP2284T3Oo17VwYHehR/NqaylseIc132zqOj/7waHgK46jwm+oG+M/pabuu+6OFxO/SfrfRf822nwmO5Y4/mjj2WzQFOc6EeUxUH2G000Fz8JvSVrGEvgFv0dfpR9ynR10McIPQ/vfqfOWMP54w+nDvmSO6YpAOdxpkdUL4TJzXgNBciDoytrM3aeYpZdh4j+vPUMBeAsu7r75Qm9Id9gZnPxX+bRV5sM/zNtoO3txtW03HkATcOfMTPgVW1LDYa6DuPjj7JfB4COF78ptepp9GPzkN38ev0a2lRsOGRgVvaD9uTM/KgyYHMLsR/NkocGLeqNvCNhtl0nceI/nw+AmTtPPrr1H+h0w/0PaGf6UDm54AM34l7Tv2sUHWAXd136DzzDVnAR4DfOXYeG/qjWPfdjzjdot/kwBOKA5ZdSBIHxq+qZT3itOw8OvpKVrMXwLnzkLSrTtEfy40Gr3Xfnv5uyVg4INNciDgwYWVtUBsN9J1HR/8FNTwEsOs8batT9KPz+Os8JvRv67ZQi8PngAxzIc0BRnXfrvOQvLC6KcwFsL74VfQV+p+ricMCM0f0m+hPd2C3nHMh4kDRylpGdd/h4idZqIa5AJadR8svk/THYoGZXd23Q9/75wDfuRBxYOLKWg5134Q+yYt8BGibcfG3d01/XOq+z87j7ADlbJT/zhxxYNLKROB137Lz6OgrqWQvgAl9A/2o+0w6j1VeIGnxxHrJZ6PPrUwEXvftLn6CPskiHgKko6/SvxsbDUw7jwl9JV2VtOi7XvLZ6HMrEuzqvgn9RXwEMKLvhf6objTwRV+PgwOSfCcmDgRY9zM7j07/YjXMBdDR70BLPzqPT/QXWqKf4cDuDn4cMGgQuAOTVQeCqvuWF/9ingJ0oKUf6AdT9x3oV7OgRd91ks9Gp1QkAq/7JvSXkKxiLwAd/aj7rDqPCX09mgPS7swRB6ZWJAKp+y9moL9YRV8LewGqqOmP40aDAPS13N51Qcu+6x4d9Fb74W9LOxstrkgEUvczL36SEjXMBXCkH52Hbd23Qz+ZLikHJJ6NFi9PBFX3lxgufpX+S0tXXWIugFzo94xd3bdDP5X5LZPfB+SdC/1+ecJn3V+cgb5GvxABSvluNJREZqPBf+cxoa8n5YC8cyHiQBb0V2ev+yWGi1/LspW8BcACszj0u1qgn+mAtJ8D05YnfNZ9I/oa/TwFQN3n0HkW0HQeu8jfhaaXJzzX/ZIM9ElKuQiABWYBF78r9A0OrJV5Ntpr6mczyhOe674J/VKuAmCBWY66b595Wlr2WetvNvpX1g7MLE/Y1v1Kp7pvQp+kjIcAWGAWNOKkpj+J/u2dk0k6YDUblaELaQ7QjDgd6C9LRaAAqPvCO48ZfaMDTXOhUe9YOfAXgXMh4sCs8oTbum9Cv2zFpfIVYgTARoP4uu9Af8qBNTLPRjUH/KBfLkKAyD6STeYRp1v0b+/8vBbdAWm70OyyhMOIs9SKfh395Wp4CoC6L13dd6Df6IDlXEiG3xMTB+aUJSjrvgl9ngKg7kvTeajRb3Lg8TUy78wRB+aqDtB0HiP6FWo4CBCvR7KFse7boa+kkxIHByTpQnNLE9adZ4XFxa+hX1GhRJAAWGCWrO7boa9mLknSgWE12lwoZ/SfZJsLPV+ayNp5Kgz0r1DDXQDUfcYbDZ7rvh36eogD2WajgudC80oTWTuPjj7JSq4CYIFZ+rpvhz5JczVpDkg5G523LOHQeYzor+QqADYa+G40+Og81ug3z3BA2tno/GUJy7pvQp9kFQ8B4r7AvDB0dd8OfTVzSFo+vlrynbkFqgMOF/8qLcs5CYARZ8jq/u026CvJVUIckHwuRBxwRp+kkosAWGCWcsTpFX09KQf2dCQO2MyFFA3EfR94YWkis/Po6FdyFgB1P3R134H+NAdSs1EJd+YWLk3Yob9aDScBsNHAt/MEVvft0Fczm0T7PiDzXOjFpQkT/asNYS4A6n5YRpxu0dejOyDtXIg4UJlB/xqSct4CYIFZ8ro/Nxv6ZvrTHaiR1oFFSxMm9LXwFAAbDSEYcdJf/E3JUdKyd6W7vdFsDnQL1IG8qZ8tVh3Q0V+rho8AqPsSjTiDRD9Ff/OcWSTEgWDnQsE7UJLQ0ecmAOp+qOv+HBr09QTuQPegHVhSktDQX6eGiwAYcco84vSOvpl+La0eT3NAttkocaCkJKHRv76MgwB4JFuU6n6uE/rmzwHt7wPyzUaJA0uXJAj9ogTAAnPo675jZpK07L1K5tmo5sAG7gKg7ken7jvQ37yjEtWBzeRzwDwXGvtn73MhCw28O7BsyQWeAqDuR63uW6Cfop/kpx1ntiIODNpq8Z24yQH3c6FAHeAjABaYI1v37dDXQxyQeTbKQQB0HikWmPmjn8oMGgdEfScWIQA2GgQtMDOp+zlO6OsxOSDPXIi7AKj7QheY2dV9O/TNDkg2G+UoADYaojLidIu+kg5KWuWvfGTgZovdaVdzoUC/E3MRACPOKNT9WTR134F+NdM1B9ore6NSzIXYC4C6L+UCs5/O4w19PYoDlrNREXMhPgJggVnGBWYOnceEvtEBSXbmOAiAuh/Vup+V/ukOMTkgamdOrACo+yHYaPDfeagcEDQXEigARpwh2GhghL75+0DmbJTXXEiIAFhgjuCI0y36aQ7os1HucyHOAuCRbCHeaPBc9ykdEDIb5SYA6n6s67677wMcZ6N8BEDdD80CM3/0xc5GOQgQlhEn6r4w9AXORtkLgAVm1H0Pc6FMBwzfBwKcC/EQABsNYVxg5nnx281GOXwnZi4A6n6ENxrYOsBlLsRZAGw0hKfzCEI/+85coA5wEwAjzviOOGWejXIQAHU/+hsNYh3wMxcSJAA2GlD3A+1CnudC3AXAI9liPOKU8PsARwFQ91H35ZuN8hIAGw2o+/LNRrkIgLofv40GAV3I1VzI8CHATQAsMKPuyzQb5SgANhpQ9+X9TixWANT9uI84hTsgUIDYvVMadV9CB4QIgAVm1P2AZ6M5Xh3gLADqPkacLGajTe8nNn4n7lxo5UBKAM0BbgJgxIm6z3ou9HbmO7pTDjQ9W8X4IUDCRwAsMMdigVmG2aj950DKgfQixEEAbDRgxCng7wNOnwMGB9gLgBEn6r7ALjTW0oGmL8SiBMBGA+o+PwfUoZDqgPaF2OAAfwFQ9zHi5ObAodSXgaN2g1HOAqDuo+7zcuCZt9qP2GtwwOqBuxwFQN1H5+HvwDazAxlfBjgIgLoP9AU6sL0DcSA1FEp9CBzXixBXAbDRgLov2IG0LwPKhwAnAbDAjBGnSAcG7+gw4o85ow6nFSH1Q4C5AHf1WoJHsqHzCHegLXHg2X255MuA4UOgZxH7T4DcwjexwAz0ZXLgiP4hMP559o9GXPLGqfi9U3omRpySOjCkquPIg+TLgPYhsHl7grkA5NzbpxyPZAP6cjiwqt3QXR1HHew05lifiSc9wOxFgKqj32CBGejL4kBv4sDujqMOHTt+hZMA5JS8fgobDRhxSpL7ele+uvmcN5I9CmDlADYaQL+YjJxe4xlj7wKQU330G/X7ABaYgb6Y/Ffn+aXrT/hh2JcA2nlp9+lOY9/4WY9FGHEifHJn7pzWeeXDi3f5pzcAAXBwwnsgAA4EwMGBADg4EAAHBwLg4EAAHBwIgIMDAXBwIAAODgTAwYEAODgQAAcHAuDgQAAcHAiAgxPS8/9/EwF6k/xuVgAAAABJRU5ErkJggg==;" vertex="1" parent="1">
          <mxGeometry x="395.75" y="190" width="43" height="43" as="geometry" />
        </mxCell>
        <mxCell id="M1dlDY-dCehF3eleabuK-57" value="" style="endArrow=none;html=1;rounded=1;fillColor=#d5e8d4;strokeColor=#82b366;" edge="1" parent="1" source="M1dlDY-dCehF3eleabuK-55" target="M1dlDY-dCehF3eleabuK-56">
          <mxGeometry width="50" height="50" relative="1" as="geometry">
            <mxPoint x="387.25" y="223" as="sourcePoint" />
            <mxPoint x="437.25" y="173" as="targetPoint" />
          </mxGeometry>
        </mxCell>
        <mxCell id="M1dlDY-dCehF3eleabuK-58" value="" style="endArrow=none;html=1;rounded=1;exitX=1;exitY=0.25;exitDx=0;exitDy=0;entryX=0;entryY=0.75;entryDx=0;entryDy=0;fillColor=#ffe6cc;strokeColor=#d79b00;" edge="1" parent="1" source="M1dlDY-dCehF3eleabuK-55" target="M1dlDY-dCehF3eleabuK-56">
          <mxGeometry width="50" height="50" relative="1" as="geometry">
            <mxPoint x="378.75" y="221.5" as="sourcePoint" />
            <mxPoint x="405.75" y="221.5" as="targetPoint" />
          </mxGeometry>
        </mxCell>
        <mxCell id="M1dlDY-dCehF3eleabuK-59" value="" style="endArrow=none;html=1;rounded=1;exitX=1;exitY=0.75;exitDx=0;exitDy=0;entryX=0;entryY=0.25;entryDx=0;entryDy=0;fillColor=#fff2cc;strokeColor=#d6b656;" edge="1" parent="1" source="M1dlDY-dCehF3eleabuK-55" target="M1dlDY-dCehF3eleabuK-56">
          <mxGeometry width="50" height="50" relative="1" as="geometry">
            <mxPoint x="378.75" y="210.75" as="sourcePoint" />
            <mxPoint x="405.75" y="232.25" as="targetPoint" />
          </mxGeometry>
        </mxCell>
        <mxCell id="M1dlDY-dCehF3eleabuK-60" value="" style="endArrow=none;html=1;rounded=1;exitX=1;exitY=0.75;exitDx=0;exitDy=0;entryX=0;entryY=0.75;entryDx=0;entryDy=0;fillColor=#e1d5e7;strokeColor=#9673a6;" edge="1" parent="1" source="M1dlDY-dCehF3eleabuK-55" target="M1dlDY-dCehF3eleabuK-56">
          <mxGeometry width="50" height="50" relative="1" as="geometry">
            <mxPoint x="378.75" y="232.25" as="sourcePoint" />
            <mxPoint x="405.75" y="210.75" as="targetPoint" />
          </mxGeometry>
        </mxCell>
        <mxCell id="M1dlDY-dCehF3eleabuK-61" value="" style="endArrow=none;html=1;rounded=1;exitX=1;exitY=0.25;exitDx=0;exitDy=0;entryX=0;entryY=0.25;entryDx=0;entryDy=0;fillColor=#f8cecc;strokeColor=#b85450;" edge="1" parent="1" source="M1dlDY-dCehF3eleabuK-55" target="M1dlDY-dCehF3eleabuK-56">
          <mxGeometry width="50" height="50" relative="1" as="geometry">
            <mxPoint x="378.75" y="232.25" as="sourcePoint" />
            <mxPoint x="405.75" y="232.25" as="targetPoint" />
          </mxGeometry>
        </mxCell>
        <mxCell id="M1dlDY-dCehF3eleabuK-62" value="" style="endArrow=none;html=1;rounded=1;exitX=1;exitY=0;exitDx=0;exitDy=0;fillColor=#dae8fc;strokeColor=#6c8ebf;" edge="1" parent="1" source="M1dlDY-dCehF3eleabuK-55">
          <mxGeometry width="50" height="50" relative="1" as="geometry">
            <mxPoint x="378.75" y="210.75" as="sourcePoint" />
            <mxPoint x="397.25" y="233" as="targetPoint" />
          </mxGeometry>
        </mxCell>
        <mxCell id="M1dlDY-dCehF3eleabuK-63" value="" style="endArrow=none;html=1;rounded=1;exitX=1;exitY=1;exitDx=0;exitDy=0;entryX=0;entryY=0;entryDx=0;entryDy=0;fillColor=#f8cecc;strokeColor=#b85450;" edge="1" parent="1" source="M1dlDY-dCehF3eleabuK-55" target="M1dlDY-dCehF3eleabuK-56">
          <mxGeometry width="50" height="50" relative="1" as="geometry">
            <mxPoint x="378.75" y="200" as="sourcePoint" />
            <mxPoint x="405.75" y="243" as="targetPoint" />
          </mxGeometry>
        </mxCell>
        <mxCell id="M1dlDY-dCehF3eleabuK-64" value="" style="endArrow=none;html=1;rounded=1;exitX=1;exitY=1;exitDx=0;exitDy=0;fillColor=#fff2cc;strokeColor=#d6b656;" edge="1" parent="1" source="M1dlDY-dCehF3eleabuK-55">
          <mxGeometry width="50" height="50" relative="1" as="geometry">
            <mxPoint x="378.75" y="243" as="sourcePoint" />
            <mxPoint x="397.25" y="233" as="targetPoint" />
          </mxGeometry>
        </mxCell>
        <mxCell id="M1dlDY-dCehF3eleabuK-81" value="$$\hat{P} = argmin &amp;nbsp;_{x_2}\{x_1^T F x_2\}$$" style="text;html=1;strokeColor=none;fillColor=none;align=center;verticalAlign=middle;whiteSpace=wrap;rounded=0;dashed=1;" vertex="1" parent="1">
          <mxGeometry x="320.5" y="44" width="112.5" height="30" as="geometry" />
        </mxCell>
        <mxCell id="M1dlDY-dCehF3eleabuK-82" value="$$\hat{N} =&amp;nbsp;\{x_2 : x_1^T F x_2 \in D_t\} \setminus \hat{P}&lt;br&gt;$$" style="text;html=1;strokeColor=none;fillColor=none;align=center;verticalAlign=middle;whiteSpace=wrap;rounded=0;dashed=1;" vertex="1" parent="1">
          <mxGeometry x="292" y="68" width="200" height="30" as="geometry" />
        </mxCell>
        <mxCell id="M1dlDY-dCehF3eleabuK-88" value="" style="shape=parallelogram;perimeter=parallelogramPerimeter;whiteSpace=wrap;html=1;fixedSize=1;fillColor=#000000;" vertex="1" parent="1">
          <mxGeometry x="511.25" y="240" width="60" height="10" as="geometry" />
        </mxCell>
        <mxCell id="M1dlDY-dCehF3eleabuK-89" value="" style="shape=parallelogram;perimeter=parallelogramPerimeter;whiteSpace=wrap;html=1;fixedSize=1;fillColor=#0050ef;fontColor=#ffffff;strokeColor=#001DBC;" vertex="1" parent="1">
          <mxGeometry x="511.25" y="235" width="60" height="10" as="geometry" />
        </mxCell>
        <mxCell id="M1dlDY-dCehF3eleabuK-90" value="" style="shape=parallelogram;perimeter=parallelogramPerimeter;whiteSpace=wrap;html=1;fixedSize=1;fillColor=#60a917;strokeColor=#2D7600;fontColor=#ffffff;" vertex="1" parent="1">
          <mxGeometry x="511.25" y="229" width="60" height="10" as="geometry" />
        </mxCell>
        <mxCell id="M1dlDY-dCehF3eleabuK-112" style="edgeStyle=orthogonalEdgeStyle;rounded=1;orthogonalLoop=1;jettySize=auto;html=1;exitX=0.5;exitY=0;exitDx=0;exitDy=0;entryX=0.5;entryY=1;entryDx=0;entryDy=0;endArrow=blockThin;endFill=1;" edge="1" parent="1" source="M1dlDY-dCehF3eleabuK-91" target="M1dlDY-dCehF3eleabuK-107">
          <mxGeometry relative="1" as="geometry" />
        </mxCell>
        <mxCell id="M1dlDY-dCehF3eleabuK-91" value="" style="shape=parallelogram;perimeter=parallelogramPerimeter;whiteSpace=wrap;html=1;fixedSize=1;fillColor=#e51400;fontColor=#ffffff;strokeColor=#B20000;" vertex="1" parent="1">
          <mxGeometry x="510" y="223" width="60" height="10" as="geometry" />
        </mxCell>
        <mxCell id="M1dlDY-dCehF3eleabuK-96" value="" style="shape=parallelogram;perimeter=parallelogramPerimeter;whiteSpace=wrap;html=1;fixedSize=1;fillColor=#000000;" vertex="1" parent="1">
          <mxGeometry x="614.63" y="240" width="60" height="10" as="geometry" />
        </mxCell>
        <mxCell id="M1dlDY-dCehF3eleabuK-97" value="" style="shape=parallelogram;perimeter=parallelogramPerimeter;whiteSpace=wrap;html=1;fixedSize=1;fillColor=#0050ef;fontColor=#ffffff;strokeColor=#001DBC;" vertex="1" parent="1">
          <mxGeometry x="614.63" y="235" width="60" height="10" as="geometry" />
        </mxCell>
        <mxCell id="M1dlDY-dCehF3eleabuK-98" value="" style="shape=parallelogram;perimeter=parallelogramPerimeter;whiteSpace=wrap;html=1;fixedSize=1;fillColor=#60a917;strokeColor=#2D7600;fontColor=#ffffff;" vertex="1" parent="1">
          <mxGeometry x="614.63" y="229" width="60" height="10" as="geometry" />
        </mxCell>
        <mxCell id="M1dlDY-dCehF3eleabuK-113" style="edgeStyle=orthogonalEdgeStyle;rounded=1;orthogonalLoop=1;jettySize=auto;html=1;exitX=0.5;exitY=0;exitDx=0;exitDy=0;entryX=0.5;entryY=1;entryDx=0;entryDy=0;endArrow=blockThin;endFill=1;" edge="1" parent="1" source="M1dlDY-dCehF3eleabuK-99" target="M1dlDY-dCehF3eleabuK-108">
          <mxGeometry relative="1" as="geometry" />
        </mxCell>
        <mxCell id="M1dlDY-dCehF3eleabuK-99" value="" style="shape=parallelogram;perimeter=parallelogramPerimeter;whiteSpace=wrap;html=1;fixedSize=1;fillColor=#e51400;fontColor=#ffffff;strokeColor=#B20000;" vertex="1" parent="1">
          <mxGeometry x="613.38" y="223" width="60" height="10" as="geometry" />
        </mxCell>
        <mxCell id="M1dlDY-dCehF3eleabuK-100" value="" style="shape=parallelogram;perimeter=parallelogramPerimeter;whiteSpace=wrap;html=1;fixedSize=1;fillColor=#000000;" vertex="1" parent="1">
          <mxGeometry x="721.25" y="240" width="60" height="10" as="geometry" />
        </mxCell>
        <mxCell id="M1dlDY-dCehF3eleabuK-101" value="" style="shape=parallelogram;perimeter=parallelogramPerimeter;whiteSpace=wrap;html=1;fixedSize=1;fillColor=#0050ef;fontColor=#ffffff;strokeColor=#001DBC;" vertex="1" parent="1">
          <mxGeometry x="721.25" y="235" width="60" height="10" as="geometry" />
        </mxCell>
        <mxCell id="M1dlDY-dCehF3eleabuK-102" value="" style="shape=parallelogram;perimeter=parallelogramPerimeter;whiteSpace=wrap;html=1;fixedSize=1;fillColor=#60a917;strokeColor=#2D7600;fontColor=#ffffff;" vertex="1" parent="1">
          <mxGeometry x="721.25" y="229" width="60" height="10" as="geometry" />
        </mxCell>
        <mxCell id="M1dlDY-dCehF3eleabuK-116" style="edgeStyle=orthogonalEdgeStyle;rounded=1;orthogonalLoop=1;jettySize=auto;html=1;exitX=0.5;exitY=0;exitDx=0;exitDy=0;entryX=0.5;entryY=1;entryDx=0;entryDy=0;endArrow=blockThin;endFill=1;" edge="1" parent="1" source="M1dlDY-dCehF3eleabuK-103" target="M1dlDY-dCehF3eleabuK-109">
          <mxGeometry relative="1" as="geometry" />
        </mxCell>
        <mxCell id="M1dlDY-dCehF3eleabuK-103" value="" style="shape=parallelogram;perimeter=parallelogramPerimeter;whiteSpace=wrap;html=1;fixedSize=1;fillColor=#e51400;fontColor=#ffffff;strokeColor=#B20000;" vertex="1" parent="1">
          <mxGeometry x="720" y="223" width="60" height="10" as="geometry" />
        </mxCell>
        <mxCell id="M1dlDY-dCehF3eleabuK-117" style="edgeStyle=orthogonalEdgeStyle;rounded=1;orthogonalLoop=1;jettySize=auto;html=1;exitX=1;exitY=0.25;exitDx=0;exitDy=0;entryX=0;entryY=0.25;entryDx=0;entryDy=0;endArrow=blockThin;endFill=1;startArrow=blockThin;startFill=1;fillColor=#f5f5f5;strokeColor=#666666;" edge="1" parent="1" source="M1dlDY-dCehF3eleabuK-107" target="M1dlDY-dCehF3eleabuK-108">
          <mxGeometry relative="1" as="geometry" />
        </mxCell>
        <mxCell id="M1dlDY-dCehF3eleabuK-107" value="CNN-ENC" style="shape=trapezoid;perimeter=trapezoidPerimeter;whiteSpace=wrap;html=1;fixedSize=1;fillColor=#fad7ac;strokeColor=#b46504;fontStyle=1" vertex="1" parent="1">
          <mxGeometry x="494.37" y="178" width="90" height="28" as="geometry" />
        </mxCell>
        <mxCell id="M1dlDY-dCehF3eleabuK-118" style="edgeStyle=orthogonalEdgeStyle;rounded=1;orthogonalLoop=1;jettySize=auto;html=1;exitX=1;exitY=0.25;exitDx=0;exitDy=0;entryX=0;entryY=0.25;entryDx=0;entryDy=0;startArrow=blockThin;startFill=1;endArrow=blockThin;endFill=1;fillColor=#f5f5f5;strokeColor=#666666;" edge="1" parent="1" source="M1dlDY-dCehF3eleabuK-108" target="M1dlDY-dCehF3eleabuK-109">
          <mxGeometry relative="1" as="geometry" />
        </mxCell>
        <mxCell id="M1dlDY-dCehF3eleabuK-108" value="CNN-ENC" style="shape=trapezoid;perimeter=trapezoidPerimeter;whiteSpace=wrap;html=1;fixedSize=1;fillColor=#fad7ac;strokeColor=#b46504;fontStyle=1" vertex="1" parent="1">
          <mxGeometry x="598.75" y="178" width="90" height="28" as="geometry" />
        </mxCell>
        <mxCell id="M1dlDY-dCehF3eleabuK-109" value="CNN-ENC" style="shape=trapezoid;perimeter=trapezoidPerimeter;whiteSpace=wrap;html=1;fixedSize=1;fillColor=#fad7ac;strokeColor=#b46504;fontStyle=1" vertex="1" parent="1">
          <mxGeometry x="705.62" y="178" width="90" height="28" as="geometry" />
        </mxCell>
        <mxCell id="M1dlDY-dCehF3eleabuK-119" value="$$d_{\hat{P}} = simil(l_{\hat{A}}, l_{\hat{P}})$$" style="rounded=0;whiteSpace=wrap;html=1;fillColor=none;" vertex="1" parent="1">
          <mxGeometry x="500" y="125.5" width="140" height="28.5" as="geometry" />
        </mxCell>
        <mxCell id="M1dlDY-dCehF3eleabuK-120" value="$$d_{\hat{N}} = simil(l_{\hat{A}}, l_{\hat{N}})$$" style="rounded=0;whiteSpace=wrap;html=1;fillColor=none;" vertex="1" parent="1">
          <mxGeometry x="650" y="125.5" width="140" height="28.5" as="geometry" />
        </mxCell>
        <mxCell id="M1dlDY-dCehF3eleabuK-123" value="&lt;span style=&quot;&quot;&gt;$$L = d_{\hat{P}} - d_{\hat{N}} + \alpha$$&lt;/span&gt;" style="ellipse;whiteSpace=wrap;html=1;fillColor=none;" vertex="1" parent="1">
          <mxGeometry x="568.31" y="80" width="153.38" height="26" as="geometry" />
        </mxCell>
        <mxCell id="M1dlDY-dCehF3eleabuK-125" value="" style="endArrow=blockThin;html=1;rounded=0;exitX=0.5;exitY=0;exitDx=0;exitDy=0;entryX=0.5;entryY=1;entryDx=0;entryDy=0;endFill=1;" edge="1" parent="1" source="M1dlDY-dCehF3eleabuK-107" target="M1dlDY-dCehF3eleabuK-119">
          <mxGeometry width="50" height="50" relative="1" as="geometry">
            <mxPoint x="590" y="150" as="sourcePoint" />
            <mxPoint x="640" y="100" as="targetPoint" />
          </mxGeometry>
        </mxCell>
        <mxCell id="M1dlDY-dCehF3eleabuK-126" value="" style="endArrow=none;html=1;rounded=0;exitX=0.75;exitY=1;exitDx=0;exitDy=0;entryX=0.5;entryY=0;entryDx=0;entryDy=0;startArrow=blockThin;startFill=1;" edge="1" parent="1" source="M1dlDY-dCehF3eleabuK-119" target="M1dlDY-dCehF3eleabuK-108">
          <mxGeometry width="50" height="50" relative="1" as="geometry">
            <mxPoint x="590" y="150" as="sourcePoint" />
            <mxPoint x="640" y="100" as="targetPoint" />
          </mxGeometry>
        </mxCell>
        <mxCell id="M1dlDY-dCehF3eleabuK-127" value="" style="endArrow=blockThin;html=1;rounded=0;exitX=0.5;exitY=0;exitDx=0;exitDy=0;entryX=0.25;entryY=1;entryDx=0;entryDy=0;endFill=1;" edge="1" parent="1" source="M1dlDY-dCehF3eleabuK-108" target="M1dlDY-dCehF3eleabuK-120">
          <mxGeometry width="50" height="50" relative="1" as="geometry">
            <mxPoint x="590" y="150" as="sourcePoint" />
            <mxPoint x="640" y="100" as="targetPoint" />
          </mxGeometry>
        </mxCell>
        <mxCell id="M1dlDY-dCehF3eleabuK-128" value="" style="endArrow=blockThin;html=1;rounded=0;exitX=0.5;exitY=0;exitDx=0;exitDy=0;entryX=0.5;entryY=1;entryDx=0;entryDy=0;endFill=1;" edge="1" parent="1" source="M1dlDY-dCehF3eleabuK-109" target="M1dlDY-dCehF3eleabuK-120">
          <mxGeometry width="50" height="50" relative="1" as="geometry">
            <mxPoint x="590" y="150" as="sourcePoint" />
            <mxPoint x="640" y="100" as="targetPoint" />
          </mxGeometry>
        </mxCell>
        <mxCell id="M1dlDY-dCehF3eleabuK-129" value="" style="endArrow=blockThin;html=1;rounded=0;exitX=0.5;exitY=0;exitDx=0;exitDy=0;entryX=0;entryY=1;entryDx=0;entryDy=0;endFill=1;" edge="1" parent="1" source="M1dlDY-dCehF3eleabuK-119" target="M1dlDY-dCehF3eleabuK-123">
          <mxGeometry width="50" height="50" relative="1" as="geometry">
            <mxPoint x="590" y="150" as="sourcePoint" />
            <mxPoint x="640" y="100" as="targetPoint" />
          </mxGeometry>
        </mxCell>
        <mxCell id="M1dlDY-dCehF3eleabuK-130" value="" style="endArrow=blockThin;html=1;rounded=0;entryX=1;entryY=1;entryDx=0;entryDy=0;exitX=0.5;exitY=0;exitDx=0;exitDy=0;endFill=1;" edge="1" parent="1" source="M1dlDY-dCehF3eleabuK-120" target="M1dlDY-dCehF3eleabuK-123">
          <mxGeometry width="50" height="50" relative="1" as="geometry">
            <mxPoint x="590" y="150" as="sourcePoint" />
            <mxPoint x="640" y="100" as="targetPoint" />
          </mxGeometry>
        </mxCell>
        <mxCell id="M1dlDY-dCehF3eleabuK-132" value="$$\hat{P}$$" style="text;html=1;strokeColor=none;fillColor=none;align=center;verticalAlign=middle;whiteSpace=wrap;rounded=0;" vertex="1" parent="1">
          <mxGeometry x="538.75" y="240" width="60" height="30" as="geometry" />
        </mxCell>
        <mxCell id="M1dlDY-dCehF3eleabuK-133" value="$$\hat{A}$$" style="text;html=1;strokeColor=none;fillColor=none;align=center;verticalAlign=middle;whiteSpace=wrap;rounded=0;" vertex="1" parent="1">
          <mxGeometry x="645.62" y="240" width="60" height="30" as="geometry" />
        </mxCell>
        <mxCell id="M1dlDY-dCehF3eleabuK-134" value="$$\hat{N}$$" style="text;html=1;strokeColor=none;fillColor=none;align=center;verticalAlign=middle;whiteSpace=wrap;rounded=0;" vertex="1" parent="1">
          <mxGeometry x="750" y="239" width="60" height="30" as="geometry" />
        </mxCell>
      </root>
    </mxGraphModel>
  </diagram>
  <diagram id="BLO1P63jUbuzOHjMaoZF" name="CV Pipeline">
    <mxGraphModel dx="946" dy="542" grid="1" gridSize="10" guides="1" tooltips="1" connect="1" arrows="1" fold="1" page="1" pageScale="1" pageWidth="827" pageHeight="1169" math="1" shadow="0">
      <root>
        <mxCell id="0" />
        <mxCell id="1" parent="0" />
        <mxCell id="fke1vGRp1GwAu60pVETZ-1" value="" style="rounded=1;whiteSpace=wrap;html=1;fillColor=none;" vertex="1" parent="1">
          <mxGeometry x="9" y="10" width="810" height="280" as="geometry" />
        </mxCell>
        <mxCell id="t5Wde6OU6j4x6PrBEpFK-1" value="" style="endArrow=none;dashed=1;html=1;rounded=0;exitX=0.026;exitY=0.5;exitDx=0;exitDy=0;exitPerimeter=0;" edge="1" parent="1" source="fke1vGRp1GwAu60pVETZ-1">
          <mxGeometry width="50" height="50" relative="1" as="geometry">
            <mxPoint x="40" y="150" as="sourcePoint" />
            <mxPoint x="800" y="150" as="targetPoint" />
          </mxGeometry>
        </mxCell>
        <mxCell id="t5Wde6OU6j4x6PrBEpFK-30" style="edgeStyle=orthogonalEdgeStyle;rounded=1;orthogonalLoop=1;jettySize=auto;html=1;exitX=1;exitY=0.5;exitDx=0;exitDy=0;entryX=0.5;entryY=1;entryDx=0;entryDy=0;startArrow=none;startFill=0;endArrow=blockThin;endFill=1;fillColor=#fad7ac;strokeColor=#b46504;" edge="1" parent="1" source="t5Wde6OU6j4x6PrBEpFK-5" target="t5Wde6OU6j4x6PrBEpFK-25">
          <mxGeometry relative="1" as="geometry" />
        </mxCell>
        <mxCell id="t5Wde6OU6j4x6PrBEpFK-5" value="PATCH EXTRACTION" style="rounded=1;whiteSpace=wrap;html=1;fillColor=#fad9d5;strokeColor=#ae4132;" vertex="1" parent="1">
          <mxGeometry x="26" y="195" width="90" height="70" as="geometry" />
        </mxCell>
        <mxCell id="t5Wde6OU6j4x6PrBEpFK-32" style="edgeStyle=orthogonalEdgeStyle;rounded=1;orthogonalLoop=1;jettySize=auto;html=1;exitX=1;exitY=0.5;exitDx=0;exitDy=0;entryX=0;entryY=0.5;entryDx=0;entryDy=0;startArrow=none;startFill=0;endArrow=blockThin;endFill=1;fillColor=#fad9d5;strokeColor=#ae4132;" edge="1" parent="1" source="t5Wde6OU6j4x6PrBEpFK-7" target="t5Wde6OU6j4x6PrBEpFK-9">
          <mxGeometry relative="1" as="geometry" />
        </mxCell>
        <mxCell id="t5Wde6OU6j4x6PrBEpFK-7" value="LATENT VECTOR" style="rounded=1;whiteSpace=wrap;html=1;fillColor=#fad9d5;strokeColor=#ae4132;" vertex="1" parent="1">
          <mxGeometry x="241" y="195" width="80" height="70" as="geometry" />
        </mxCell>
        <mxCell id="t5Wde6OU6j4x6PrBEpFK-33" style="edgeStyle=orthogonalEdgeStyle;rounded=1;orthogonalLoop=1;jettySize=auto;html=1;exitX=1;exitY=0.5;exitDx=0;exitDy=0;entryX=0;entryY=0.5;entryDx=0;entryDy=0;startArrow=none;startFill=0;endArrow=blockThin;endFill=1;fillColor=#fad9d5;strokeColor=#ae4132;" edge="1" parent="1" source="t5Wde6OU6j4x6PrBEpFK-9" target="t5Wde6OU6j4x6PrBEpFK-11">
          <mxGeometry relative="1" as="geometry" />
        </mxCell>
        <mxCell id="t5Wde6OU6j4x6PrBEpFK-9" value="SEMANTIC SCORE" style="rounded=1;whiteSpace=wrap;html=1;fillColor=#fad9d5;strokeColor=#ae4132;" vertex="1" parent="1">
          <mxGeometry x="351" y="195" width="80" height="70" as="geometry" />
        </mxCell>
        <mxCell id="t5Wde6OU6j4x6PrBEpFK-34" style="edgeStyle=orthogonalEdgeStyle;rounded=1;orthogonalLoop=1;jettySize=auto;html=1;exitX=1;exitY=0.5;exitDx=0;exitDy=0;entryX=0;entryY=0.5;entryDx=0;entryDy=0;startArrow=none;startFill=0;endArrow=blockThin;endFill=1;fillColor=#fad9d5;strokeColor=#ae4132;" edge="1" parent="1" source="t5Wde6OU6j4x6PrBEpFK-11" target="t5Wde6OU6j4x6PrBEpFK-13">
          <mxGeometry relative="1" as="geometry" />
        </mxCell>
        <mxCell id="t5Wde6OU6j4x6PrBEpFK-11" value="NORMALIZATION" style="rounded=1;whiteSpace=wrap;html=1;fillColor=#fad9d5;strokeColor=#ae4132;" vertex="1" parent="1">
          <mxGeometry x="451" y="195" width="110" height="70" as="geometry" />
        </mxCell>
        <mxCell id="t5Wde6OU6j4x6PrBEpFK-35" style="edgeStyle=orthogonalEdgeStyle;rounded=1;orthogonalLoop=1;jettySize=auto;html=1;exitX=1;exitY=0.5;exitDx=0;exitDy=0;entryX=0;entryY=0.5;entryDx=0;entryDy=0;startArrow=none;startFill=0;endArrow=blockThin;endFill=1;fillColor=#fad9d5;strokeColor=#ae4132;" edge="1" parent="1" source="t5Wde6OU6j4x6PrBEpFK-13" target="t5Wde6OU6j4x6PrBEpFK-15">
          <mxGeometry relative="1" as="geometry" />
        </mxCell>
        <mxCell id="t5Wde6OU6j4x6PrBEpFK-13" value="PROBABILITY DISTRIBUTION" style="rounded=1;whiteSpace=wrap;html=1;fillColor=#fad9d5;strokeColor=#ae4132;" vertex="1" parent="1">
          <mxGeometry x="581" y="195" width="100" height="70" as="geometry" />
        </mxCell>
        <mxCell id="K0zNCv2ROFGdCsGtAYMN-4" style="edgeStyle=orthogonalEdgeStyle;rounded=1;orthogonalLoop=1;jettySize=auto;html=1;exitX=0.5;exitY=0;exitDx=0;exitDy=0;entryX=0.5;entryY=1;entryDx=0;entryDy=0;fontSize=14;fontColor=#66B2FF;startArrow=none;startFill=0;endArrow=blockThin;endFill=1;fillColor=#fad9d5;strokeColor=#ae4132;" edge="1" parent="1" source="t5Wde6OU6j4x6PrBEpFK-15" target="t5Wde6OU6j4x6PrBEpFK-22">
          <mxGeometry relative="1" as="geometry" />
        </mxCell>
        <mxCell id="t5Wde6OU6j4x6PrBEpFK-15" value="&lt;b&gt;WEIGHTED RANSAC&lt;/b&gt;" style="rounded=1;whiteSpace=wrap;html=1;fillColor=#fad9d5;strokeColor=#ae4132;" vertex="1" parent="1">
          <mxGeometry x="701" y="195" width="100" height="70" as="geometry" />
        </mxCell>
        <mxCell id="t5Wde6OU6j4x6PrBEpFK-26" style="edgeStyle=orthogonalEdgeStyle;rounded=0;orthogonalLoop=1;jettySize=auto;html=1;exitX=1;exitY=0.5;exitDx=0;exitDy=0;entryX=0;entryY=0.5;entryDx=0;entryDy=0;startArrow=none;startFill=0;endArrow=blockThin;endFill=1;" edge="1" parent="1" source="t5Wde6OU6j4x6PrBEpFK-19" target="t5Wde6OU6j4x6PrBEpFK-20">
          <mxGeometry relative="1" as="geometry" />
        </mxCell>
        <mxCell id="t5Wde6OU6j4x6PrBEpFK-19" value="DETECTION" style="rounded=1;whiteSpace=wrap;html=1;" vertex="1" parent="1">
          <mxGeometry x="29" y="33" width="80" height="70" as="geometry" />
        </mxCell>
        <mxCell id="t5Wde6OU6j4x6PrBEpFK-38" style="edgeStyle=orthogonalEdgeStyle;rounded=1;orthogonalLoop=1;jettySize=auto;html=1;exitX=1;exitY=0.5;exitDx=0;exitDy=0;entryX=0;entryY=0.5;entryDx=0;entryDy=0;fontSize=22;startArrow=none;startFill=0;endArrow=blockThin;endFill=1;" edge="1" parent="1" source="t5Wde6OU6j4x6PrBEpFK-20" target="t5Wde6OU6j4x6PrBEpFK-37">
          <mxGeometry relative="1" as="geometry" />
        </mxCell>
        <mxCell id="t5Wde6OU6j4x6PrBEpFK-20" value="MATCHING" style="rounded=1;whiteSpace=wrap;html=1;" vertex="1" parent="1">
          <mxGeometry x="139" y="33" width="80" height="70" as="geometry" />
        </mxCell>
        <mxCell id="t5Wde6OU6j4x6PrBEpFK-28" style="edgeStyle=orthogonalEdgeStyle;rounded=0;orthogonalLoop=1;jettySize=auto;html=1;exitX=1;exitY=0.5;exitDx=0;exitDy=0;entryX=0;entryY=0.5;entryDx=0;entryDy=0;startArrow=none;startFill=0;endArrow=blockThin;endFill=1;fillColor=#b1ddf0;strokeColor=#10739e;" edge="1" parent="1" source="t5Wde6OU6j4x6PrBEpFK-21" target="t5Wde6OU6j4x6PrBEpFK-22">
          <mxGeometry relative="1" as="geometry" />
        </mxCell>
        <mxCell id="t5Wde6OU6j4x6PrBEpFK-21" value="&lt;b&gt;RANSAC&lt;/b&gt;" style="rounded=1;whiteSpace=wrap;html=1;fillColor=#b1ddf0;strokeColor=#10739e;" vertex="1" parent="1">
          <mxGeometry x="530" y="33" width="80" height="70" as="geometry" />
        </mxCell>
        <mxCell id="t5Wde6OU6j4x6PrBEpFK-22" value="LOCALIZATION" style="rounded=1;whiteSpace=wrap;html=1;" vertex="1" parent="1">
          <mxGeometry x="701" y="33" width="100" height="70" as="geometry" />
        </mxCell>
        <mxCell id="t5Wde6OU6j4x6PrBEpFK-31" style="edgeStyle=orthogonalEdgeStyle;rounded=1;orthogonalLoop=1;jettySize=auto;html=1;exitX=0.5;exitY=0;exitDx=0;exitDy=0;entryX=0;entryY=0.5;entryDx=0;entryDy=0;startArrow=none;startFill=0;endArrow=blockThin;endFill=1;fillColor=#fad7ac;strokeColor=#b46504;" edge="1" parent="1" source="t5Wde6OU6j4x6PrBEpFK-25" target="t5Wde6OU6j4x6PrBEpFK-7">
          <mxGeometry relative="1" as="geometry" />
        </mxCell>
        <mxCell id="t5Wde6OU6j4x6PrBEpFK-25" value="&lt;b&gt;CNN-ENC TRAINED&lt;/b&gt;" style="shape=trapezoid;perimeter=trapezoidPerimeter;fixedSize=1;fillColor=#fad7ac;rotation=0;html=1;whiteSpace=wrap;direction=south;strokeColor=#b46504;" vertex="1" parent="1">
          <mxGeometry x="151" y="180" width="60" height="100" as="geometry" />
        </mxCell>
        <mxCell id="t5Wde6OU6j4x6PrBEpFK-39" style="edgeStyle=orthogonalEdgeStyle;rounded=1;orthogonalLoop=1;jettySize=auto;html=1;exitX=1;exitY=0.5;exitDx=0;exitDy=0;entryX=0;entryY=0.5;entryDx=0;entryDy=0;fontSize=22;startArrow=none;startFill=0;endArrow=blockThin;endFill=1;fillColor=#b1ddf0;strokeColor=#10739e;" edge="1" parent="1" source="t5Wde6OU6j4x6PrBEpFK-37" target="t5Wde6OU6j4x6PrBEpFK-21">
          <mxGeometry relative="1" as="geometry" />
        </mxCell>
        <mxCell id="K0zNCv2ROFGdCsGtAYMN-3" style="edgeStyle=orthogonalEdgeStyle;rounded=1;orthogonalLoop=1;jettySize=auto;html=1;exitX=0.5;exitY=1;exitDx=0;exitDy=0;entryX=0.5;entryY=0;entryDx=0;entryDy=0;fontSize=14;fontColor=#66B2FF;startArrow=none;startFill=0;endArrow=blockThin;endFill=1;fillColor=#fad9d5;strokeColor=#ae4132;" edge="1" parent="1" source="t5Wde6OU6j4x6PrBEpFK-37" target="t5Wde6OU6j4x6PrBEpFK-5">
          <mxGeometry relative="1" as="geometry">
            <Array as="points">
              <mxPoint x="297" y="120" />
              <mxPoint x="71" y="120" />
            </Array>
          </mxGeometry>
        </mxCell>
        <mxCell id="t5Wde6OU6j4x6PrBEpFK-37" value="" style="ellipse;whiteSpace=wrap;html=1;aspect=fixed;fillColor=default;" vertex="1" parent="1">
          <mxGeometry x="289" y="60.5" width="15" height="15" as="geometry" />
        </mxCell>
        <mxCell id="t5Wde6OU6j4x6PrBEpFK-41" style="edgeStyle=orthogonalEdgeStyle;rounded=0;orthogonalLoop=1;jettySize=auto;html=1;entryX=0.5;entryY=0;entryDx=0;entryDy=0;startArrow=none;startFill=0;endArrow=blockThin;endFill=1;" edge="1" parent="1" target="t5Wde6OU6j4x6PrBEpFK-19">
          <mxGeometry relative="1" as="geometry">
            <mxPoint x="69" y="13" as="sourcePoint" />
            <mxPoint x="149" y="78" as="targetPoint" />
          </mxGeometry>
        </mxCell>
        <mxCell id="K0zNCv2ROFGdCsGtAYMN-1" value="&lt;font color=&quot;#7093c7&quot;&gt;Computer Vision&amp;nbsp;pipeline&lt;/font&gt;" style="text;html=1;strokeColor=none;fillColor=none;align=left;verticalAlign=middle;whiteSpace=wrap;rounded=0;fontSize=14;" vertex="1" parent="1">
          <mxGeometry x="314" y="40" width="166" height="30" as="geometry" />
        </mxCell>
        <mxCell id="K0zNCv2ROFGdCsGtAYMN-5" value="&lt;span style=&quot;caret-color: rgb(102, 178, 255);&quot;&gt;&lt;font color=&quot;#c75050&quot;&gt;Deep Learning pipeline&lt;/font&gt;&lt;/span&gt;" style="text;html=1;strokeColor=none;fillColor=none;align=left;verticalAlign=middle;whiteSpace=wrap;rounded=0;fontSize=14;" vertex="1" parent="1">
          <mxGeometry x="85" y="120" width="156" height="30" as="geometry" />
        </mxCell>
      </root>
    </mxGraphModel>
  </diagram>
</mxfile>
